<svg fill="none" height="967" viewBox="0 0 1680 967" width="1680" xmlns="http://www.w3.org/2000/svg"><g fill="#979dbd" opacity=".1"><path d="m968.268 1121.78c-34.925-.02-69.69-4.73-103.361-14.01-90.951-25.01-164.26-80.51-201.284-152.299-28.043-54.381-32.477-114.503-12.468-169.3 37.1-101.656 151.47-169.944 284.579-169.944 34.926.01 69.696 4.72 103.366 14.002 90.95 24.992 164.25 80.51 201.28 152.304 28.04 54.38 32.48 114.502 12.47 169.3-37.12 101.637-151.49 169.947-284.582 169.947zm-32.439-503.602c-132.276 0-245.907 67.777-282.741 168.637-19.82 54.286-15.424 113.839 12.373 167.727 36.778 71.318 109.689 126.478 200.052 151.318 33.504 9.23 68.097 13.91 102.849 13.93 132.278 0 245.908-67.78 282.738-168.64 19.82-54.266 15.43-113.839-12.37-167.708-36.78-71.32-109.69-126.477-200.05-151.337-33.51-9.219-68.1-13.903-102.851-13.927z"/><path d="m978.537 1123.25c-46.063-.01-91.821-7.48-135.497-22.11-95.801-32.01-169.471-94.14-202.137-170.535-23.836-55.65-23.381-112.816 1.289-165.339 42.993-91.5 154.198-150.618 283.271-150.618 46.064.003 91.827 7.47 135.497 22.113 95.8 32.003 169.47 94.114 202.14 170.531 23.83 55.65 23.38 112.816-1.29 165.34-43.01 91.498-154.2 150.618-283.273 150.618zm-53.055-506.498c-128.296 0-238.744 58.738-281.452 149.461-24.424 51.974-24.86 108.591-1.27 163.691 32.439 75.796 105.692 137.506 200.848 169.336 43.47 14.56 89.01 21.99 134.853 22 128.299 0 238.739-58.74 281.429-149.461 24.45-51.993 24.88-108.59 1.29-163.691-32.45-75.792-105.69-137.505-200.94-169.338-43.45-14.55-88.959-21.978-134.777-21.998z"/><path d="m991.649 1125.53c-58.549-.15-116.56-11.18-171.081-32.52-100.14-39.35-173.449-107.889-201.132-188.001-19.308-55.915-14.154-111.584 14.893-161.057 47.654-81.116 154.179-131.499 278.023-131.499 58.546.119 116.558 11.126 171.078 32.458 100.14 39.355 173.45 107.889 201.14 188.001 19.3 55.916 14.15 111.585-14.9 161.058-47.73 81.15-154.2 131.56-278.021 131.56zm-79.297-510.936c-123.162 0-228.948 50.004-276.242 130.476-28.744 48.904-33.822 104.005-14.722 159.314 27.474 79.581 100.423 147.626 199.938 186.766 54.279 21.25 112.034 32.22 170.323 32.37 123.161 0 228.951-50.01 276.241-130.498 28.73-48.904 33.82-103.986 14.72-159.295-27.47-79.581-100.42-147.623-199.93-186.77-54.28-21.245-112.039-32.219-170.328-32.363z"/><path d="m1007.6 1128.79c-72.433-.19-144.011-15.68-210.035-45.48-52.239-23.63-96.388-54.13-131.214-90.665-33.273-34.902-56.446-74.352-67.038-114.086-14.931-56.01-5.135-110.125 28.327-156.491 51.008-70.676 151.47-112.873 268.758-112.873 72.436.174 144.012 15.672 210.042 45.475 52.24 23.628 96.38 54.135 131.21 90.666 33.27 34.902 56.45 74.352 67.04 114.086 14.93 56.01 5.13 110.125-28.42 156.468-50.94 70.7-151.4 112.9-268.67 112.9zm-111.202-517.454c-116.606 0-216.424 41.856-267.034 111.983-33.083 45.835-42.765 99.344-28.005 154.729 10.497 39.392 33.5 78.52 66.507 113.157 34.656 36.345 78.578 66.675 130.571 90.195 65.749 29.67 137.031 45.1 209.163 45.26 116.59 0 216.43-41.87 267.04-112 33.08-45.833 42.76-99.323 28-154.708-10.5-39.392-33.5-78.52-66.51-113.157-34.65-36.342-78.57-66.696-130.57-90.211-65.75-29.656-137.031-45.075-209.162-45.248z"/><path d="m1026.21 1133.22c-85.569 0-175.098-21.71-252.008-61.14-52.903-27.1-98.529-61.91-132.086-100.694-32.477-37.574-53.756-78.975-61.543-119.751-10.706-56.048 3.789-108.572 41.685-151.849 53.055-60.387 146.146-95.005 255.57-95.005 85.569 0 175.082 21.715 252.012 61.145 52.88 27.077 98.53 61.903 132.08 100.69 32.48 37.573 53.76 78.975 61.55 119.751 10.68 56.048-3.79 108.552-41.69 151.853-53 60.36-146.15 95-255.57 95zm-148.42-526.203c-108.799 0-201.359 34.372-253.902 94.266-37.517 42.766-51.766 94.74-41.212 150.03 15.935 83.504 87.9 165.337 192.492 218.907 76.683 39.28 165.852 60.92 251.082 60.92 108.8 0 201.34-34.38 253.9-94.29 37.54-42.764 51.78-94.625 41.21-150.009-15.93-83.504-87.88-165.34-192.47-218.906-76.7-39.355-165.872-60.918-251.1-60.918z"/><path d="m1047.09 1139c-101.637 0-207.007-28.43-296.725-79.79-107.227-61.491-177.258-149.314-187.319-234.959-6.613-56.105 12.448-106.999 55.138-147.15 53.547-50.42 138.32-78.179 238.744-78.179 101.618 0 207.002 28.422 296.722 79.809 107.23 61.486 177.24 149.309 187.32 234.954 6.62 56.105-12.47 106.985-55.14 147.145-53.58 50.41-138.35 78.17-238.74 78.17zm-190.181-537.785c-99.818 0-184.06 27.531-237.209 77.554-42.14 39.677-60.975 89.908-54.456 145.273 10.004 84.906 79.581 172.086 186.22 233.228 89.377 51.28 194.368 79.58 295.586 79.58 99.82 0 184.06-27.55 237.21-77.57 42.14-39.66 60.96-89.888 54.44-145.254-9.99-84.906-79.58-172.085-186.2-233.249-89.36-51.33-194.352-79.562-295.591-79.562z"/><path d="m1069.71 1146.28c-116.867 0-242.037-37.01-343.371-101.54-108.363-69.032-175.458-161.744-179.494-248.014-2.615-56.219 21.146-105.465 68.743-142.432 51.975-40.34 129.642-62.528 218.698-62.528 116.87 0 242.024 37.024 343.374 101.561 108.36 69.008 175.46 161.739 179.49 248.009 2.62 56.219-21.16 105.464-68.74 142.414-51.97 40.3-129.64 62.53-218.7 62.53zm-235.424-552.278c-88.563 0-165.719 22.055-217.296 62.111-46.972 36.475-70.448 85.057-67.852 140.499 3.979 85.55 70.695 177.58 178.433 246.188 100.973 64.31 225.688 101.2 342.139 101.2 88.55 0 165.72-22.07 217.3-62.11 46.97-36.49 70.45-85.074 67.85-140.497-3.98-85.55-70.69-177.58-178.43-246.19-100.99-64.31-225.69-101.201-342.144-101.201z"/><path d="m1093.44 1155.13c-132.241 0-278.538-47.37-391.26-126.52-54.532-38.332-98.87-82.689-128.239-128.259-28.422-44.205-42.993-89.662-42.046-131.442 1.288-56.389 29.862-103.967 82.651-137.581 49.795-31.7 117.477-48.469 195.998-48.469 132.256 0 278.536 47.37 391.276 126.535 108.59 76.322 172.25 173.392 170.28 259.7-1.28 56.386-29.86 103.966-82.65 137.586-49.79 31.7-117.57 48.45-196.01 48.45zm-282.896-569.921c-77.99 0-145.331 16.636-194.728 48.09-52.107 33.178-80.321 80.093-81.477 135.667-1.894 85.512 61.335 181.9 169.281 257.694 112.381 78.97 258.128 126.12 389.91 126.12 77.99 0 145.33-16.64 194.75-48.11 52.11-33.16 80.3-80.08 81.57-135.651 1.89-85.513-61.34-181.901-169.28-257.692-112.48-78.976-258.243-126.118-390.026-126.118z"/><path d="m1117.73 1165.62c-147.492 0-315.94-59.31-439.594-154.78-54.21-41.86-97.411-89.06-124.886-136.297-26.66-45.873-38.748-92.068-34.978-133.602 5.154-56.692 38.692-102.546 96.995-132.635 45.626-23.515 104.839-36.001 171.232-36.001 147.472 0 315.941 59.307 439.591 154.785 54.21 41.856 97.39 89.056 124.89 136.293 26.66 45.873 38.75 92.068 34.98 133.602-5.16 56.695-38.7 102.545-97 132.635-45.72 23.57-104.91 36-171.23 36zm-331.363-590.814c-66.015 0-124.848 12.335-170.134 35.679-57.526 29.672-90.628 74.863-95.706 130.74-3.79 41.023 8.261 86.725 34.656 132.162 27.342 47.048 70.316 93.944 124.279 135.593 123.295 95.17 291.192 154.29 438.168 154.29 66.02 0 124.85-12.33 170.14-35.7 57.52-29.65 90.63-74.84 95.7-130.737 3.79-41.022-8.26-86.725-34.67-132.162-27.32-47.047-70.3-93.943-124.26-135.61-123.3-95.157-291.194-154.255-438.173-154.255z"/><path d="m1141.68 1177.74c-162.405 0-353.874-73.13-487.76-186.329-54.229-45.836-94.74-94.153-120.604-143.607-24.632-47.37-34.257-93.963-27.777-135.004 9.038-57.109 47.73-101.144 111.906-127.368 40.89-16.712 89.643-25.182 144.876-25.182 162.403 0 353.849 73.139 487.759 186.315 54.23 45.835 94.74 94.171 120.58 143.626 24.64 47.369 34.28 93.962 27.78 134.999-9.04 57.11-47.73 101.15-111.89 127.37-40.9 16.71-89.64 25.18-144.87 25.18zm-379.359-615.027c-54.949 0-103.342 8.413-144.004 24.993-63.324 25.883-101.504 69.273-110.391 125.492-6.404 40.492 3.108 86.649 27.531 133.469 25.277 48.469 66.773 97.885 119.998 142.868 133.469 112.835 324.313 185.685 486.165 185.685 54.95 0 103.34-8.41 144.01-25.01 63.32-25.86 101.48-69.25 110.39-125.47 6.4-40.492-3.11-86.649-27.53-133.469-25.28-48.488-66.78-97.885-120-142.868-133.47-112.778-324.315-185.69-486.169-185.69z"/><path d="m1165.1 1191.51c-176.9 0-391.921-88.87-535.035-221.126-53.055-48.999-91.841-99.533-115.393-150.181-22.51-48.431-29.616-95.346-20.54-135.686 12.98-57.64 57.034-99.742 127.425-121.76 34.485-10.781 73.897-16.257 117.383-16.257 176.898 0 391.9 88.866 535.03 221.122 53.06 49 91.84 99.534 115.4 150.182 22.51 48.431 29.61 95.346 20.54 135.686-12.98 57.64-57.04 99.74-127.43 121.76-34.5 10.78-73.99 16.26-117.38 16.26zm-426.179-642.471c-43.145 0-82.386 5.419-116.625 16.144-69.482 21.733-112.949 63.191-125.701 119.883-8.962 39.791-1.894 86.156 20.351 134.076 23.4 50.344 62.035 100.595 114.824 149.385 142.678 131.863 356.998 220.443 533.31 220.443 43.14 0 82.38-5.44 116.62-16.15 69.49-21.73 112.95-63.19 125.7-119.88 8.97-39.79 1.9-86.156-20.35-134.075-23.4-50.345-62.03-100.614-114.82-149.386-142.68-131.858-357.018-220.44-533.309-220.44z"/><path d="m1187.46 1206.82c-90.95 0-198.389-25.39-302.717-71.49-107.453-47.37-203.652-112.35-278.212-187.587-51.425-51.918-88.222-104.385-109.387-155.961-20.217-49.264-24.821-96.255-13.263-135.743 17.053-58.246 66.678-98.207 143.644-115.582 29.255-6.346 59.121-9.441 89.056-9.228 90.95 0 198.366 25.39 302.709 71.472 107.46 47.483 203.66 112.361 278.22 187.584 51.42 51.899 88.22 104.384 109.36 155.961 20.24 49.264 24.84 96.234 13.27 135.744-17.06 58.24-66.68 98.21-143.65 115.58-29.25 6.35-59.11 9.46-89.03 9.25zm-470.917-673.033c-29.738-.214-59.407 2.861-88.468 9.171-76.001 17.167-125.057 56.503-141.731 113.801-11.369 38.919-6.783 85.266 13.264 134.019 21.032 51.159 57.639 103.456 108.837 155.127 74.313 75.035 170.247 139.705 277.397 187.055 104.025 45.95 211.158 71.26 301.668 71.26 29.74.22 59.41-2.86 88.47-9.17 76-17.17 125.06-56.52 141.73-113.8 11.37-38.92 6.78-85.266-13.26-134.019-21.03-51.273-57.64-103.456-108.84-155.127-74.31-75.033-170.25-139.722-277.42-187.054-104.002-45.949-211.209-71.263-301.647-71.263z"/><path d="m1208.53 1223.6c-97.38 0-213.887-29.99-328.068-84.47-115.317-54.95-220.781-131.59-296.952-215.644-97.904-108.003-137.524-216.006-108.723-296.137 21.165-58.947 76.701-96.635 160.603-108.799 19.902-2.821 39.982-4.208 60.084-4.15 97.373 0 213.884 29.995 328.066 84.47 115.32 54.949 220.78 131.594 296.95 215.647 97.9 108.003 137.52 216.003 108.72 296.133-21.18 58.95-76.7 96.64-160.6 108.8-19.9 2.82-39.98 4.21-60.08 4.15zm-513.056-706.528c-19.975-.061-39.928 1.313-59.705 4.111-82.86 12.089-137.657 49.114-158.481 107.075-28.422 79.222 10.971 186.183 108.193 293.447 75.943 83.785 181.104 160.145 296.118 215.025 113.839 54.3 229.931 84.2 326.931 84.2 19.97.06 39.92-1.31 59.7-4.11 82.86-12.09 137.66-49.11 158.46-107.08 28.43-79.22-10.97-186.178-108.17-293.442-75.94-83.788-181.1-160.148-296.14-215.022-113.818-54.304-229.912-84.204-326.906-84.204z"/><path d="m1228.14 1241.77c-103.78 0-229.16-35.07-353.06-98.79-124.507-64.01-236.016-151.113-313.967-245.284-93.073-112.4-127.387-221.464-94.153-299.226 12.373-28.972 33.671-52.353 63.286-69.539 30.544-17.736 69.255-28.422 115.033-31.643 9.891-.702 20.18-1.061 30.582-1.061 103.778 0 229.157 35.072 353.059 98.775 124.5 64.025 236.01 151.129 313.97 245.3 93.07 112.399 127.38 221.468 94.15 299.228-12.39 28.95-33.67 52.35-63.29 69.54-30.54 17.73-69.25 28.42-115.03 31.64-9.89.7-20.18 1.06-30.58 1.06zm-552.279-742.758c-10.345 0-20.558.36-30.316 1.061-45.362 3.24-83.656 13.756-113.859 31.283-29.085 16.864-49.984 39.791-62.149 68.213-32.818 76.777 1.346 184.818 93.755 296.402 77.686 93.887 188.93 180.749 313.114 244.599 123.522 63.51 248.464 98.53 351.804 98.53 10.35 0 20.56-.36 30.32-1.06 45.36-3.24 83.65-13.76 113.86-31.28 29.08-16.89 49.98-39.8 62.13-68.22 32.82-76.77-1.35-184.815-93.74-296.4-77.68-93.887-188.93-180.763-313.11-244.599-123.524-63.608-248.466-98.529-351.809-98.529z"/><path d="m1246.18 1261.23c-227.13 0-544.151-175.33-706.762-390.821-87.615-116.151-116.416-225.859-79.032-301.007 29.635-59.61 99.515-92.504 196.756-92.636h.625c227.129 0 544.143 175.325 706.763 390.82 87.61 116.151 116.41 225.864 79.03 301.004-29.64 59.59-99.52 92.51-196.76 92.64zm-588.356-781.66h-.531c-96.123.133-165.112 32.477-194.254 91.083-36.892 74.162-8.167 182.809 78.767 298.07 162.08 214.887 478.114 389.707 704.464 389.707h.63c96.1-.14 165.09-32.48 194.25-91.09 36.87-74.16 8.17-182.807-78.77-298.068-162.17-214.888-478.204-389.702-704.556-389.702z"/><path d="m1262.15 1281.85c-9.47 0-19.38-.33-29.39-.97-238.61-15.54-558.962-212.56-713.995-439.195-40.662-59.439-66.867-115.961-77.857-167.992-10.648-50.421-6.556-94.02 12.184-129.547 14.779-28.024 38.237-49.833 69.709-64.821 32.326-15.386 72.381-23.192 119.031-23.192 9.474 0 19.384.341 29.407.985 238.612 15.537 558.961 212.558 714.001 439.194 40.66 59.421 66.86 115.938 77.85 167.978 10.65 50.44 6.54 94.02-12.2 129.56-14.78 28.03-38.24 49.84-69.71 64.82-32.29 15.31-72.36 23.18-119.03 23.18zm-620.318-822.837c-46.233 0-85.853 7.712-117.78 22.908-30.904 14.722-53.926 36.115-68.402 63.57-37.65 71.377-13.775 178.736 65.503 294.584 154.634 225.995 473.964 422.535 711.797 437.925 9.95.64 19.78.99 29.2.99 46.23 0 85.87-7.72 117.8-22.93 30.9-14.71 53.91-36 68.4-63.55 37.65-71.38 13.78-178.74-65.5-294.587-154.64-225.992-473.965-422.539-711.8-437.925-9.967-.644-19.782-.985-29.218-.985z"/><path d="m1275.62 1303.49c-19.74-.08-39.45-1.41-59.02-4-249.395-32.21-571.264-251-717.466-487.889-36.797-59.629-59.838-115.753-68.459-166.742-8.356-49.473-2.88-91.973 16.276-126.307 30.639-54.949 93.376-83.958 181.408-83.958 19.745.075 39.466 1.41 59.042 3.998 249.392 32.211 571.259 251.003 717.459 487.89 36.8 59.63 59.82 115.758 68.44 166.738 8.38 49.48 2.9 91.98-16.25 126.29-30.66 54.93-93.38 83.98-181.43 83.98zm-647.261-865.922c-86.896 0-148.742 28.422-178.831 82.443-18.815 33.727-24.178 75.583-15.935 124.374 8.564 50.686 31.453 106.45 68.061 165.757 145.785 236.228 466.687 454.488 715.326 486.528 19.44 2.56 39.03 3.89 58.64 3.96 86.91 0 148.74-28.42 178.85-82.44 18.82-33.73 24.18-75.59 15.94-124.4-8.57-50.68-31.46-106.447-68.07-165.735-145.8-236.224-466.684-454.485-715.319-486.526-19.448-2.597-39.042-3.952-58.662-4.055z"/><path d="m1286.65 1325.94c-29.68-.24-59.26-3.25-88.37-9-259.591-49.45-581.422-290.23-717.563-536.738-64.972-117.667-78.672-219.796-38.597-287.8 31.018-52.562 91.614-80.34 175.231-80.34 29.674.232 59.261 3.245 88.373 9.001 259.587 49.435 581.416 290.225 717.556 536.738 64.97 117.669 78.67 219.799 38.58 287.799-31.02 52.56-91.59 80.34-175.21 80.34zm-669.299-910.865c-82.481 0-142.11 27.285-172.616 78.861-39.526 66.981-25.788 168.107 38.635 284.788 135.762 245.826 456.645 485.936 715.47 535.246 28.93 5.7 58.33 8.7 87.81 8.94 82.48 0 142.11-27.27 172.61-78.86 39.51-66.96 25.79-168.11-38.63-284.771-135.76-245.83-456.646-485.939-715.475-535.241-28.924-5.724-58.32-8.725-87.804-8.963z"/><path d="m1295.25 1349.07c-35.62 0-75.15-5.38-117.48-16.01-268.867-67.41-589.277-330.07-714.03-585.488-56.844-116.303-65.731-216.31-24.992-281.567 31.491-50.439 90.286-77.099 170.038-77.099 35.623 0 75.148 5.381 117.478 16.011 268.852 67.417 589.166 330.073 714.036 585.492 56.84 116.301 65.73 216.291 24.97 281.561-31.47 50.44-90.27 77.1-170.02 77.1zm-686.502-957.037c-78.634 0-136.425 26.148-167.386 75.621-40.169 64.423-31.245 163.274 25.125 278.535 124.507 254.681 443.913 516.601 712.003 583.821 42.13 10.56 81.48 15.92 116.76 15.92 78.62 0 136.43-26.15 167.39-75.64 40.15-64.42 31.22-163.26-25.13-278.536-124.5-254.698-443.91-516.597-712.004-583.824-42.122-10.535-81.476-15.897-116.758-15.897z"/><path d="m1301.52 1372.7c-43.71 0-92.99-8.39-146.45-24.97-277.375-86.01-594.449-370.358-706.754-633.867-48.753-114.332-52.808-211.8-11.369-274.442 32.041-48.507 89.359-74.124 165.738-74.124 43.732 0 93.016 8.394 146.468 24.973 277.377 86.005 594.437 370.357 706.757 633.87 48.75 114.33 52.83 211.8 11.37 274.44-32.1 48.49-89.42 74.12-165.76 74.12zm-698.949-1004.239c-75.261 0-131.65 25.144-163.084 72.703-40.776 61.714-36.608 158.102 11.709 271.43 112.039 262.751 428.224 546.306 704.864 632.066 53.15 16.48 102.11 24.84 145.5 24.84 75.28 0 131.67-25.14 163.09-72.7 40.77-61.72 36.62-158.1-11.7-271.43-112.05-262.754-428.22-546.31-704.858-632.068-53.206-16.466-102.168-24.822-145.577-24.822z"/><path d="m1305.31 1396.69c-51.71 0-110.67-12.09-175.27-36-284.936-105.14-597.008-410.905-695.651-681.614-20.843-56.995-30.961-109.14-30.317-154.937.663-44.414 11.501-81.931 32.211-111.509 32.686-46.706 88.809-71.396 162.271-71.396 51.709 0 110.674 12.089 175.268 36.001 284.938 105.143 597.008 410.905 695.658 681.615 20.84 56.99 30.94 109.12 30.31 154.94-.68 44.41-11.52 81.93-32.21 111.51-32.66 46.7-88.77 71.39-162.27 71.39zm-706.756-1052.102c-72.344 0-127.539 24.197-159.599 69.994-20.312 29.028-30.942 65.939-31.605 109.67-.701 45.475 9.474 97.147 30.051 153.782 98.359 269.913 409.56 574.826 693.699 679.666 64.24 23.7 122.82 35.71 174.15 35.71 72.35 0 127.52-24.19 159.58-69.99 20.32-29.03 30.97-65.94 31.63-109.69.68-45.48-9.48-97.13-30.05-153.76-98.36-269.916-409.56-574.826-693.706-679.665-64.139-23.704-122.745-35.717-174.056-35.717z"/><path d="m1306.89 1420.85c-59.65 0-128.28-16.43-203.96-48.81-291.477-124.75-596.728-451.548-680.44-728.491-33.33-110.277-28.1-199.332 15.158-257.54 33.443-45.059 88.601-68.876 159.504-68.876 59.648 0 128.277 16.428 203.956 48.829 291.472 124.753 596.712 451.548 680.422 728.488 33.35 110.28 28.12 199.34-15.16 257.54-33.42 45.16-88.58 68.86-159.48 68.86zm-709.776-1100.344c-69.804 0-124.033 23.343-156.813 67.492-42.557 57.337-47.616 145.369-14.59 254.585 83.371 276.109 387.845 601.957 678.549 726.367 75.26 32.21 143.43 48.55 202.63 48.55 69.8 0 124.01-23.35 156.81-67.5 42.56-57.33 47.6-145.36 14.59-254.58-83.47-276.11-387.87-601.958-678.547-726.37-75.261-32.211-143.436-48.544-202.629-48.544z"/><path d="m1306.13 1445.04c-67.67 0-145.9-21.41-232.51-63.64-296.916-144.78-593.452-492.08-661.039-774.215-25.542-106.601-15.878-192.284 27.91-247.82 34.277-43.448 88.696-66.318 157.363-66.318 67.682 0 145.899 21.411 232.529 63.646 296.917 144.781 593.447 492.078 661.017 774.217 25.54 106.6 15.9 192.28-27.89 247.8-34.3 43.37-88.7 66.33-157.38 66.33zm-708.276-1148.658c-67.568 0-121.058 22.529-154.653 65.124-43.126 54.665-52.543 139.343-27.266 244.883 67.36 281.244 363.08 627.541 659.175 771.921 86.16 41.99 163.89 63.29 231.02 63.29 67.59 0 121.06-22.51 154.67-65.11 43.11-54.66 52.54-139.34 27.27-244.88-67.38-281.247-363.08-627.54-659.184-771.923-86.156-42.008-163.88-63.305-231.032-63.305z"/><path d="m1303.11 1469.15c-74.76 0-165.01-27.82-260.97-80.44-301.154-165.13-587.041-532.282-637.291-818.452-18-102.433-4.055-184.478 40.283-237.286 35.206-41.912 89.056-64.081 155.752-64.081 74.769 0 165.018 27.815 260.97 80.434 301.156 165.131 587.046 532.285 637.296 818.555 17.98 102.43 4.05 184.47-40.28 237.28-35.21 41.8-89.13 63.99-155.76 63.99zm-702.226-1196.716c-65.616 0-118.538 21.714-153.042 62.812-43.58 51.974-57.318 133.034-39.525 234.405 50.022 285.224 335.189 651.279 635.513 815.939 95.42 52.33 185.08 80 259.27 80 65.61 0 118.53-21.72 153.04-62.82 43.58-51.99 57.32-133.03 39.5-234.4-50.08-285.244-335.17-651.28-635.51-815.957-95.421-52.353-185.064-79.998-259.246-79.998z"/><path d="m1297.85 1492.91c-83.07 0-183.1-34.28-289.28-99.14-147.321-89.98-291.799-229.04-406.832-391.61-115.033-162.574-186.922-329.279-202.307-469.342-10.744-97.79 7.276-175.95 52.125-225.992 36.191-40.397 89.643-61.732 154.597-61.732 83.048 0 183.094 34.277 289.278 99.136 147.319 89.964 291.799 229.042 406.829 391.597 115.03 162.554 186.9 329.293 202.31 469.363 10.74 97.79-7.28 175.95-52.13 225.99-36.19 40.38-89.66 61.73-154.59 61.73zm-691.716-1244.197c-63.893 0-116.417 20.843-151.906 60.538-44.13 49.265-61.846 126.421-51.16 223.169 31.662 288.009 304.153 673.03 607.412 858.34 105.64 64.43 205.02 98.53 287.41 98.53 63.87 0 116.41-20.94 151.88-60.63 44.15-49.27 61.87-126.42 51.16-223.17-31.64-288.01-304.13-673.032-607.394-858.343-105.616-64.328-204.998-98.434-287.402-98.434z"/><path d="m1290.38 1516.27c-91.69 0-201.45-41.42-317.452-119.77-148.078-100.03-289.581-248.84-398.437-419.034-108.856-170.19-172.123-341.555-177.997-482.358-3.79-92.845 18.019-166.742 63.324-214.111 37.252-38.844 90.419-59.364 153.8-59.364 91.67 0 201.455 41.42 317.454 119.77 148.078 100.026 289.578 248.843 398.438 419.014 108.86 170.172 172.1 341.573 178 482.373 3.79 92.85-18.02 166.75-63.33 214.12-37.25 38.76-90.44 59.36-153.8 59.36zm-676.667-1290.829c-62.339 0-114.597 20.142-151.11 58.227-44.603 46.48-66.128 119.543-62.301 211.27 12.089 289.505 269.952 692.562 574.805 898.472 115.373 77.95 224.443 119.15 315.373 119.15 62.32 0 114.57-20.15 151.11-58.23 44.58-46.48 66.13-119.54 62.3-211.27-12.11-289.506-269.95-692.567-574.807-898.474-115.488-77.952-224.533-119.145-315.37-119.145z"/><path d="m1280.78 1539.05c-100.75 0-220.2-49.27-345.463-142.3-148.154-110.13-285.811-268.44-387.637-445.81-101.826-177.372-155.658-352.773-151.584-493.67 2.445-82.821 24.405-147.623 65.276-192.624 39.033-42.974 94.967-65.693 161.777-65.693 100.728 0 220.194 49.265 345.459 142.299 148.152 110.107 285.812 268.436 387.622 445.807 101.8 177.372 155.67 352.771 151.58 493.671-2.44 82.82-24.41 147.62-65.26 192.62-39.03 42.98-94.98 65.7-161.77 65.7zm-657.498-1336.288c-65.692 0-120.66 22.282-158.954 64.423-40.227 44.3-61.865 108.268-64.272 190.161-8.564 289.601 232.605 709.624 537.61 936.294 124.584 92.6 243.254 141.56 343.164 141.56 65.7 0 120.66-22.3 158.96-64.42 40.22-44.3 61.84-108.27 64.27-190.16 8.54-289.605-232.63-709.624-537.612-936.298-124.659-92.618-243.31-141.56-343.261-141.56z"/><path d="m1269.07 1561.11c-108.73 0-241.29-59.22-373.279-166.75-147.491-120.16-280.43-287.72-374.317-471.799s-137.581-362.815-122.858-503.105c16.163-154.18 102.319-242.534 236.281-242.534 108.742 0 241.302 59.212 373.273 166.742 147.49 120.168 280.43 287.705 374.32 471.803 93.89 184.099 137.56 362.833 122.86 503.123-16.24 154.11-102.28 242.52-236.28 242.52zm-634.154-1380.304c-131.745 0-216.461 87.161-232.397 239.104-30.316 288.255 192.17 724.04 495.773 971.42 131.248 106.96 262.938 165.85 370.778 165.85 131.76 0 216.46-87.16 232.39-239.08 30.32-288.26-192.15-724.039-495.75-971.424-131.273-106.961-262.943-165.87-370.794-165.87z"/><path d="m1255.38 1582.31c-118.82 0-261.192-68.57-400.877-193.06-146.05-130.17-273.361-306.6-358.438-496.74-85.076-190.143-117.856-371.589-92.087-510.534 13.605-73.404 42.52-130.4 85.929-169.413 42.008-37.726 95.403-56.844 158.708-56.844 118.823 0 261.197 68.572 400.885 193.06 146.05 130.173 273.34 306.597 358.43 496.74 85.1 190.141 117.84 371.591 92.09 510.531-13.6 73.41-42.52 130.4-85.95 169.4-42 37.72-95.38 56.86-158.69 56.86zm-606.765-1422.593c-62.282 0-114.768 18.796-156.017 55.84-42.747 38.407-71.225 94.644-84.678 167.139-52.903 285.432 148.627 735.614 449.255 1003.564 138.945 123.82 280.425 192.03 398.205 192.03 62.29 0 114.77-18.79 156-55.84 42.75-38.4 71.25-94.74 84.68-167.14 52.9-285.43-148.63-735.613-449.23-1003.556-138.969-123.824-280.377-192.037-398.215-192.037z"/><path d="m1239.77 1602.51c-63 0-131.69-18.67-204.09-55.46-74.841-38.05-150.273-93.83-224.17-165.8-143.815-140.04-264.551-324.92-339.945-520.555-75.394-195.638-96.464-378.959-59.212-515.801 36.759-135.023 126.212-209.394 251.856-209.394 63.021 0 131.688 18.664 204.107 55.461 74.844 38.047 150.254 93.83 224.174 165.794 143.81 140.044 264.53 324.919 339.93 520.557 75.39 195.638 96.48 378.958 59.23 515.798-36.78 135.03-126.22 209.4-251.88 209.4zm-575.561-1462.879c-123.617 0-211.649 73.271-247.877 206.343-76.512 280.998 102.053 744.086 398.058 1032.326 73.594 71.68 148.684 127.21 223.17 165.07 71.81 36.49 139.85 54.95 202.21 54.95 123.64 0 211.67-73.27 247.9-206.34 76.49-281-102.08-744.109-398.06-1032.326-73.61-71.68-148.686-127.216-223.17-165.074-71.832-36.456-139.874-54.949-202.231-54.949z"/><path d="m1222.4 1621.58c-68.37 0-142.28-21.31-219.69-63.32-79.994-43.41-159.329-106.66-235.765-187.98-140.745-149.69-253.902-342.6-318.761-543.034-64.859-200.431-73.499-384.814-24.31-518.757 45.475-123.862 136.993-192.075 257.692-192.075 68.364 0 142.28 21.298 219.796 63.324 79.998 43.41 159.338 106.658 235.768 187.983 140.75 149.688 253.9 342.598 318.74 543.01 64.84 200.409 73.5 384.829 24.31 518.799-45.53 123.84-136.97 192.05-257.78 192.05zm-540.815-1500.94c-118.804 0-208.92 67.227-253.751 189.289-100.936 274.935 52.561 749.301 342.2 1057.451 76.133 81 155.089 144 234.686 187.16 76.8 41.69 150.03 62.82 217.68 62.82 118.82 0 208.94-67.23 253.75-189.29 100.93-274.94-52.56-749.3-342.18-1057.45-76.14-81.003-155.092-144.005-234.692-187.168-76.796-41.686-150.03-62.812-217.693-62.812z"/><path d="m1203.39 1639.41c-151.94 0-327.799-103.21-482.433-283.18-136.804-159.16-241.529-359.497-294.868-563.983-53.338-204.487-48.923-389.078 12.563-519.288 27.058-57.336 63.949-101.447 109.614-131.138 44.167-28.707 95.422-43.2585 152.341-43.2585 151.944 0 327.803 103.2285 482.433 283.1955 136.8 159.163 241.51 359.5 294.87 563.986s48.92 389.076-12.56 519.306c-27.08 57.32-63.95 101.43-109.64 131.12-44.15 28.69-95.4 43.24-152.32 43.24zm-502.783-1536.414c-56.067 0-106.525 14.325-149.973 42.557-44.982 29.237-81.343 72.76-108.003 129.339-126.174 267.166.189 751.038 281.68 1078.588 153.819 179.02 328.459 281.69 479.139 281.69 56.06 0 106.52-14.31 149.97-42.54 44.98-29.24 81.34-72.76 108-129.34 126.16-267.17-.2-751.042-281.68-1078.595-153.82-179.115-328.459-281.699-479.133-281.699z"/><path d="m1182.91 1655.92c-79.26 0-166.74-27.93-253.202-80.79-90.42-55.31-176.557-134.76-256.006-236.11-131.972-168.38-227.243-375.496-268.246-583.222s-22.737-391.616 51.33-517.279c30.449-51.614 69.122-91.234 114.976-117.78 44.338-25.6559 94.588-38.6921 149.329-38.6921 79.24 0 166.742 27.9481 253.201 80.7941 90.418 55.328 176.558 134.777 256.008 236.129 131.97 168.372 227.24 375.492 268.24 583.218 41.01 207.722 22.74 391.612-51.33 517.282-30.46 51.61-69.14 91.23-114.97 117.76-44.36 25.67-94.59 38.69-149.33 38.69zm-461.819-1569.4012c-110.846 0-200.848 53.3572-260.478 154.2742-152.076 257.692-54.949 749.107 216.594 1095.477 79.127 100.93 164.847 180 254.831 235.07 85.682 52.43 172.422 80.13 250.872 80.13 110.84 0 200.85-53.34 260.46-154.26 152.07-257.69 54.95-749.105-216.58-1095.473-79.12-100.936-164.84-180.006-254.828-235.069-85.683-52.429-172.446-80.1492-250.871-80.1492z"/><path d="m1161.16 1670.98c-178.284 0-378.582-131.75-535.812-352.43-126.231-177.19-211.08-390.463-238.896-600.653-27.815-210.189 4.794-392.336 91.898-512.522 65.635-90.572 157.078-138.4531 264.475-138.4531 178.281 0 378.595 131.7641 535.825 352.4321 126.24 177.182 211.07 390.46 238.88 600.646 27.82 210.19-4.79 392.34-91.9 512.53-65.63 90.59-157.08 138.45-264.47 138.45zm-418.335-1599.4157c-105.862 0-196.035 47.2177-260.78 136.5577-86.403 119.239-118.747 300.098-91.064 509.245s112.266 421.933 238.081 598.513c156.377 219.49 355.292 350.53 532.098 350.53 105.86 0 196.03-47.22 260.78-136.54 86.42-119.25 118.75-300.09 91.06-509.26-27.68-209.167-112.26-421.914-238.06-598.49-156.4-219.493-355.312-350.5557-532.115-350.5557z"/><path d="m1138.42 1684.53c-93.36 0-193.876-34.85-290.7-100.81-99.647-67.91-193.591-167.84-271.656-288.99-119.562-185.58-192.985-404.274-206.779-615.809s33.841-391.104 134.151-504.962c69.445-78.8238 160.092-120.4902 262.145-120.4902 93.357 0 193.875 34.8641 290.679 100.8222 99.67 67.89 193.61 167.841 271.68 288.994 119.54 185.576 192.98 404.273 206.76 615.805 13.77 211.54-33.84 391.13-134.15 504.98-69.45 78.81-160.1 120.46-262.13 120.46zm-372.839-1626.4001c-100.67 0-190.105 41.117-258.639 118.9171-50.231 57.015-87.161 130.608-109.898 218.754-21.961 85.266-29.711 180.385-23.041 282.798 13.737 210.777 86.914 428.681 206.04 613.591 77.686 120.64 171.214 220.12 270.368 287.65 96.028 65.43 195.639 100.01 288.009 100.01 100.65 0 190.09-41.12 258.62-118.9 50.23-57.02 87.16-130.63 109.9-218.76 21.96-85.26 29.73-180.38 23.04-282.81-13.72-210.761-86.9-428.662-206.02-613.575-77.69-120.642-171.22-220.118-270.37-287.668-95.991-65.4271-195.6-100.0071-288.009-100.0071z"/><path d="m1114.94 1696.52c-210.148 0-435.8-164.37-588.861-428.98-111.944-193.46-172.995-416.854-171.953-628.805.512-103.153 15.727-198.044 45.229-282.021 30.582-87.161 75.224-158.538 132.731-212.445 71.736-67.2461 160.602-102.7924 256.953-102.7924 210.17 0 435.801 164.3734 588.881 428.9814 111.93 193.459 173 416.855 171.94 628.802-.52 103.16-15.73 198.05-45.23 282.03-30.57 87.06-75.23 158.53-132.73 212.44-71.74 67.25-160.59 102.79-256.96 102.79zm-325.901-1650.2496c-95.119 0-182.829 35.1105-253.657 101.5036-56.938 53.377-101.182 124.204-131.498 210.531-29.313 83.371-44.433 177.827-44.945 280.43-1.061 211.193 59.781 433.645 171.289 626.385 152.228 263.13 376.269 426.57 584.712 426.57 95.12 0 182.83-35.09 253.66-101.48 56.84-53.38 101.18-124.21 131.5-210.53 29.31-83.49 44.43-177.83 44.94-280.43 1.06-211.198-59.76-433.647-171.27-626.386-152.23-263.13-376.285-426.5936-584.731-426.5936z"/><path d="m1091.09 1706.88c-110.47 0-225.844-42.76-333.62-123.65-110.561-82.99-208.048-202.75-281.907-346.29-103.342-200.85-151.072-427.906-134.398-639.365 8.11-102.888 31.056-196.509 68.213-278.232 38.502-84.735 90.647-152.91 154.975-202.743 73.404-56.8436 157.022-85.5688 248.54-85.5688 110.486 0 225.837 42.7656 333.617 123.6738 110.56 82.991 208.05 202.743 281.93 346.292 103.34 200.848 151.07 427.882 134.37 639.363-8.11 102.88-31.05 196.49-68.21 278.23-38.5 84.72-90.64 152.91-154.99 202.74-73.39 56.77-157 85.55-248.52 85.55zm-278.197-1670.8465c-90.401 0-172.995 28.4219-245.527 84.5265-63.684 49.265-115.336 116.833-153.479 200.848-36.91 81.211-59.723 174.322-67.776 276.64-16.618 210.55 30.923 436.672 133.848 636.652 73.537 142.89 170.531 262.05 280.429 344.61 106.905 80.24 221.255 122.66 330.642 122.66 90.4 0 173.01-28.42 245.53-84.52 63.68-49.27 115.33-116.84 153.48-200.85 36.89-81.21 59.7-174.32 67.77-276.64 16.6-210.569-30.94-436.675-133.86-636.651-73.52-142.906-170.54-262.069-280.43-344.607-106.89-80.3388-221.221-122.6685-330.627-122.6685z"/><path d="m1067.25 1715.64c-120.45 0-244.142-47.12-357.698-136.25-116.245-91.26-214.717-221.45-284.768-376.5-93.792-207.573-127.255-437.449-94.209-647.279 16.087-102.091 47.048-193.894 92.068-272.85 46.65-81.836 106.412-146.221 177.618-191.3742 72.229-45.8161 151.792-69.0274 236.47-69.0274 120.471 0 244.159 47.1046 357.719 136.2546 116.24 91.253 214.72 221.445 284.77 376.496 93.79 207.574 127.23 437.451 94.19 647.26-16.07 102.11-47.05 193.9-92.07 272.85-46.65 81.84-106.41 146.22-177.62 191.38-72.3 45.81-151.79 69.04-236.47 69.04zm-230.519-1688.2594c-83.693 0-162.346 22.946-233.761 68.2126-70.505 44.7168-129.698 108.4958-175.931 189.6118-44.717 78.426-75.489 169.66-91.462 271.145-32.894 208.845.417 437.698 93.811 644.4 69.71 154.31 167.671 283.84 283.272 374.6 112.664 88.43 235.277 135.18 354.59 135.18 83.71 0 162.35-22.97 233.76-68.22 70.51-44.71 129.7-108.51 175.93-189.63 44.72-78.42 75.49-169.64 91.47-271.12 32.89-208.867-.42-437.701-93.8-644.404-69.72-154.312-167.69-283.859-283.29-374.601-112.64-88.3917-235.255-135.1364-354.589-135.1364z"/><path d="m1043.83 1722.79c-65.503 0-131.953-13.04-197.513-38.73-64.859-25.43-127.596-62.78-186.448-110.98-122.138-100.03-221.028-241-285.981-407.7-83.257-213.659-101.504-445.279-51.406-652.38 24.386-100.746 63.665-190.18 116.719-265.82 54.949-78.388 122.48-138.453 200.564-178.5278 68.08-35.2061 143.626-53.5319 220.27-53.4331 65.522 0 131.973 13.0172 197.515 38.7295 64.86 25.4282 127.59 62.7744 186.47 110.9784 122.11 100.007 221 240.999 285.98 407.703 83.23 213.656 101.5 445.28 51.38 652.38-24.38 100.72-63.64 190.16-116.72 265.8-54.94 78.39-122.48 138.45-200.56 178.55-68.08 35.2-143.63 53.53-220.27 53.43zm-183.795-1702.3791c-75.822-.1045-150.557 18.0269-217.901 52.8648-77.327 39.7903-144.175 99.2113-198.669 176.8983-52.695 75.09-91.708 163.937-115.943 264.039-49.852 206.021-31.681 436.617 51.16 649.287 64.631 165.87 162.952 306.11 284.427 405.49 58.455 47.86 120.718 84.92 185.065 110.16 64.953 25.47 130.741 38.37 195.616 38.37 75.82.1 150.56-18.03 217.9-52.86 77.33-39.7 144.18-99.22 198.69-176.9 52.7-75.11 91.69-163.94 115.93-264.06 49.85-206.02 31.68-436.599-51.16-649.251-64.64-165.89-162.96-306.123-284.43-405.486-58.44-47.863-120.7-84.9249-185.07-110.1636-64.874-25.485-130.699-38.3885-195.615-38.3885z"/><path d="m1021.57 1728.37c-71.702 0-144.007-14.36-214.607-42.69-69.748-27.93-136.425-68.78-198.177-121.43-128.296-109.35-226.996-261.49-285.47-439.86-36.061-109.47-54.693-223.919-55.214-339.17-.379-110.504 16.144-216.594 49.132-315.351 32.989-98.756 80.813-185.31 142.11-257.066 63.494-74.352 138.756-129.5664 223.585-164.0895 63.304-25.8505 131.031-39.13989 199.409-39.12755 71.699 0 144.002 14.36255 214.602 42.67075 69.73 27.9483 136.43 68.8003 198.18 121.4563 128.28 109.349 226.99 261.482 285.45 439.858 36.08 109.461 54.71 223.915 55.23 339.168.38 110.481-16.16 216.591-49.15 315.351s-80.81 185.29-142.11 257.07c-63.49 74.35-138.75 129.56-223.68 164.09-63.27 25.83-130.95 39.12-199.29 39.12zm-139.138-1713.4216c-67.692.0076-134.737 13.1809-197.399 38.7863-84.129 34.1063-158.708 88.9223-221.691 162.6113-60.842 71.244-108.326 157.135-141.106 255.305-32.779 98.169-49.264 203.728-48.866 313.645.525 114.684 19.067 228.574 54.949 337.504 58.17 177.46 156.32 328.74 283.859 437.45 61.334 52.28 127.5 92.84 196.698 120.54 70.108 28.09 141.598 42.32 212.634 42.32 67.68.01 134.72-13.15 197.38-38.73 84.13-34.22 158.71-88.93 221.69-162.63 60.82-71.25 108.31-157.14 141.09-255.29s49.26-203.73 48.88-313.645c-.51-114.679-19.05-228.564-54.95-337.482-58.15-177.486-156.3-328.766-283.84-437.47-61.33-52.278-127.51-92.8452-196.69-120.566-70.07-28.1946-141.621-42.3486-212.638-42.3486z"/><path d="m1000.9 1732.53c-78.677 0-157.273-15.79-233.728-46.96-75.091-30.62-146.051-75.22-210.872-132.63-65.446-57.91-122.801-127.2-170.531-205.95-50.067-83.18-87.986-173.1-112.608-267.01-29.808-111.473-40.986-227.105-33.083-342.221 7.712-110.258 32.875-214.965 74.769-311.201 41.894-96.237 98.529-179.229 168.106-246.551 72.116-69.747 155.184-119.5614 246.892-148.0781 56.085-17.4866 114.492-26.39163 173.241-26.41328 78.69.00001 157.264 15.80238 233.744 46.95288 75.09 30.6198 146.03 75.2425 210.87 132.6355 65.43 57.905 122.8 127.198 170.53 205.945 50.07 83.184 88 173.098 112.63 267.015 29.81 111.469 41 227.101 33.1 342.216-7.73 110.28-32.89 214.99-74.79 311.22-41.89 96.24-98.53 179.23-168.1 246.55-72.12 69.73-155.19 119.56-246.9 148.08-56.1 17.48-114.52 26.37-173.27 26.4zm-97.814-1721.5386c-58.204.0235-116.068 8.8522-171.631 26.1862-90.95 28.2513-173.203 77.6864-244.712 146.7704-69.104 66.811-125.265 149.178-166.894 244.808-41.628 95.63-66.659 199.768-74.332 309.42-7.852 114.518 3.275 229.547 32.931 340.434 24.508 93.38 62.23 182.78 112.02 265.48 47.37 78.28 104.422 147.13 169.452 204.64 64.423 56.96 134.795 101.26 209.317 131.63 75.792 30.89 153.687 46.56 231.663 46.56 58.2-.03 116.06-8.85 171.63-26.17 90.85-28.25 173.2-77.69 244.71-146.77 69.1-66.83 125.26-149.2 166.89-244.81s66.66-199.77 74.33-309.418c7.85-114.481-3.27-229.472-32.93-340.324-24.5-93.415-62.22-182.85-112.02-265.593-47.37-78.274-104.42-147.131-169.43-204.638-64.42-56.958-134.8-101.2579-209.32-131.6504-75.77-30.923-153.703-46.5929-231.674-46.5929z"/><path d="m982.648 1735.29c-171.46 0-341.897-69.67-479.951-196.17-68.63-62.87-127.33-137.65-174.511-222.26-49.326-88.92-84.547-184.96-104.403-284.69-23.126-113.169-26.39-229.501-9.645-343.79 16.201-109.481 50.307-212.217 101.391-305.289s116.568-171.934 194.614-234.235c80.851-64.5363 171.706-108.4386 270.065-130.4751 46.33-10.39005 93.663-15.64509 141.144-15.66996 171.438 0 341.898 69.65266 479.948 196.16806 69.71 64.25 128.63 139.295 174.49 222.259 49.34 88.927 84.57 184.975 104.43 284.712 23.13 113.165 26.38 229.491 9.62 343.77-16.2 109.48-50.3 212.22-101.37 305.29-51.06 93.07-116.57 171.94-194.63 234.24-80.85 64.53-171.73 108.42-270.09 130.47-46.31 10.39-93.63 15.65-141.102 15.67zm-61.296-1727.02721c-47.068.02463-93.989 5.24151-139.912 15.55621-97.525 21.8469-187.585 65.3704-267.792 129.377-77.478 61.827-142.488 140.082-193.269 232.548-50.78 92.466-84.64 194.595-100.746 303.432-16.669 113.639-13.425 229.313 9.588 341.844 19.74 99.16 54.756 194.66 103.797 283.08 45.596 82.43 104.14 157 173.392 220.86 137.089 125.56 306.256 194.72 476.238 194.72 47.062-.03 93.972-5.24 139.892-15.53 97.51-21.87 187.59-65.39 267.79-129.38 77.48-61.85 142.49-140.08 193.27-232.55 50.78-92.46 84.66-194.59 100.77-303.43 16.65-113.642 13.4-229.312-9.59-341.841-19.75-99.165-54.77-194.663-103.82-283.082-45.58-82.438-104.13-157.009-173.39-220.857-137.07-125.5493-306.18-194.74721-476.218-194.74721z"/><path d="m967.679 1736.96c-189.119 0-373.615-76.04-519.514-214.11-147.093-139.2-243.955-331.59-272.851-541.915-15.961-114.531-10.824-231.016 15.159-343.697 25.068-108.117 68.421-208.219 128.846-297.482 60.425-89.264 135.023-163.388 221.558-220.081 117.344-77.3317 254.777-118.58204 395.311-118.65156 189.122 0 373.612 76.01916 519.512 214.11156 147.1 139.192 243.96 331.589 272.85 541.911 15.97 114.524 10.84 231.005-15.16 343.674-25.04 108.01-68.42 208.2-128.84 297.49-60.43 89.28-135.04 163.38-221.58 220.1-117.36 77.3-254.78 118.55-395.31 118.65zm-31.378-1730.17655c-139.434.06125-275.793 40.98235-392.222 117.70455-85.891 56.294-159.901 129.813-219.947 218.527-60.047 88.714-103.153 188.172-128.051 295.588-25.824 111.992-30.916 227.766-15.025 341.593 28.611 208.954 124.867 400.204 270.955 538.484 144.819 137.03 327.913 212.5 515.555 212.5 139.434-.06 275.794-40.98 392.224-117.71 85.89-56.27 159.9-129.79 219.95-218.5 60.04-88.72 103.15-188.19 128.06-295.59 25.81-111.996 30.9-227.767 15.03-341.595-28.63-208.958-124.89-400.199-270.95-538.5-144.84-137.0319-327.94-212.50155-515.579-212.50155z"/><path d="m957.049 1737.74c-209.204 0-409.503-82.9-564.023-233.46-155.184-151.19-249.166-356.36-264.646-577.686-8.354-115.542 5.606-231.612 41.117-341.878 33.694-105.057 87.065-202.746 157.268-287.857 68.673-83.768 153.229-153.134 248.805-204.1075 97.723-52.1222 205.367-82.98167 315.862-90.55202 18.456-1.288458 37.138-1.894792 55.556-1.894792 209.202 0 409.522 82.916112 564.022 233.457312 155.19 151.186 249.19 356.354 264.65 577.723 8.36 115.536-5.6 231.605-41.12 341.855-33.69 105.06-87.06 202.75-157.27 287.86-68.67 83.76-153.23 153.12-248.8 204.09-97.73 52.12-205.38 82.99-315.88 90.57-18.441 1.23-37.123 1.88-55.541 1.88zm-10.118-1731.59943c-18.284 0-36.835.66318-55.138 1.89479-109.673 7.52874-216.513 38.16154-313.513 89.88894-94.899 50.6397-178.85 119.5417-247.024 202.7427-69.701 84.54-122.687 181.566-156.131 285.906-35.263 109.535-49.114 224.833-40.795 339.604 15.366 219.793 108.723 423.713 262.864 573.873 153.479 149.48 352.262 231.79 559.912 231.79 18.266 0 36.816-.64 55.124-1.89 109.68-7.51 216.53-38.15 313.53-89.89 94.89-50.61 178.84-119.47 247.02-202.63 69.71-84.55 122.7-181.58 156.15-285.92 35.27-109.55 49.14-224.86 40.85-339.646-15.38-219.796-108.74-423.714-262.88-573.895-153.46-149.4997-352.32-231.82843-559.969-231.82843z"/><path d="m951.992 1737.98c-214.757-.32-421.738-80.4-580.795-224.69-159.056-144.3-258.849-342.53-280.02-556.24-21.1711-213.71 37.789-427.667 165.442-600.366 127.653-172.698 314.901-291.8288 525.419-334.2815 210.519-42.4528 429.302-5.2017 613.912 104.5275 184.6 109.729 321.88 284.114 385.18 489.327 63.31 205.213 48.14 426.623-42.56 621.283-90.7 194.67-250.47 348.7-448.32 432.23-107.01 45.26-222.06 68.46-338.258 68.21zm0-1731.93517c-213.243.27593-418.782 79.74417-576.749 222.98917-157.966 143.245-257.098 340.056-278.166 552.255-21.0685 212.2 37.429 424.661 164.144 596.171s312.616 289.84 521.641 332.04 426.278 5.27 609.608-103.65c183.33-108.91 319.67-282.03 382.58-485.79 62.91-203.747 47.91-423.602-42.11-616.914-90.02-193.311-248.63-346.299-445.06-429.2864-106.26-44.9668-220.5-68.03195-335.888-67.81477z"/></g></svg>