<svg fill="none" height="2810" viewBox="0 0 1680 2810" width="1680" xmlns="http://www.w3.org/2000/svg" xmlns:xlink="http://www.w3.org/1999/xlink"><clipPath id="a"><path d="m0 0h3435.04v1699.22h-3435.04z" transform="matrix(.93465141 -.35556539 .35556539 .93465141 -864 1221.38)"/></clipPath><g clip-path="url(#a)" opacity=".08" stroke="#111d40" stroke-miterlimit="10" stroke-width="3"><path d="m2353.3 32.0378c-260.74 251.6022-800.76 230.7202-923.17 335.6442-230.7 197.987-59.19 464.872-369.58 741.238-322.586 287.32-1135.3249 193.71-1431.982 255.38-137.622 28.53-267.243 82.93-370.939 161.01"/><path d="m2362.44 56.0543c-247.17 242.3367-754.38 231.5077-875.93 335.4897-222.84 190.772-75.99 441.013-363.89 703.686-104.96 95.71-227.156 163.81-393.683 215.59-145.482 45.24-305.084 43.38-455.669 57.01-123.603 11.26-219.9268 31.25-323.0774 47.46-101.0066 15.89-194.8056 25.13-266.9066 41.78-99.006 22.43-195.69 54.11-288.78 94.61-36.401 16.02-71.839 34.14-106.136 54.28"/><path d="m2371.55 80.0194c-233.63 233.1446-708.11 232.6446-828.68 335.4616-214.79 183.785-92.25 417.928-358.2 665.999-110.31 102.89-208.474 187.14-378.11 258.29-152.134 64-319.974 47.57-475.67 67.74-131.104 16.99-210.602 53.66-318.3258 82.83-97.3473 26.31-195.4502 39.69-274.5332 59.73-105.77 26.89-211.837 58-305.397 91.69-39.724 14.13-77.741 29.21-113.489 45.26"/><path d="m2380.69 104.036c-220.13 223.847-661.91 233.439-781.44 335.307-206.88 176.678-107.61 395.421-352.5 628.437-115.67 110.08-189.82 210.91-362.514 300.92-158.946 82.82-334.928 51.91-495.763 78.38-138.405 22.77-200.934 75.21-313.5761 118.19-93.5719 35.6-196.1279 54.34-282.1399 77.76-110.436 29.76-223.013 60.34-321.875 88.16-42.182 11.7-82.82 23.91-120.983 36.35"/><path d="m2389.83 128.058c-206.4 214.52-615.61 234.193-734.19 335.151-198.87 169.892-122.74 373.558-346.89 590.851-120.83 117.3-170.96 235.02-346.891 343.59-165.468 102.08-349.842 56.36-515.804 89.01-146.113 28.76-191.229 95.89-308.825 153.55-89.8133 44.02-196.833 68.75-289.713 95.7-114.878 33.23-234.141 62.99-338.82 85.18-44.639 9.26-87.51 18.34-128.176 27.26"/><path d="m2398.96 152.071c-193.09 205.356-569.56 235.048-687.06 334.856-190.77 162.958-137.32 352.286-341.03 553.233-126.25 124.63-152.03 259.35-331.08 386.13-171.994 121.65-364.82 60.96-535.856 99.76-153.619 34.8-181.795 115.7-303.992 189.13-86.34 51.7-197.45775 83.38-297.3205 113.72-116.4195 35.65-235.2095 63.04-355.4835 81.96-47.023 6.87-92.341 12.9-135.509 18.3"/><path d="m2408.1 176.09c-179.52 196.09-523.42 235.863-639.75 334.861-182.82 156.012-151.73 331.008-335.46 515.719-131.45 132.06-132.89 283.86-315.74 428.85-178.244 141.29-379.51 65.51-555.861 110.31-161.233 40.89-172.935 134.8-299.437 224.14-83.198 58.83-198.1432 97.85-304.8942 131.66-124.0868 39.31-256.4458 67.98-372.1818 78.82-49.46 4.49-97.203 7.53-142.842 9.34"/><path d="m2417.24 200.113c-166.03 186.791-477.28 236.678-592.5 334.706-174.79 149.098-165.75 310.256-329.79 478.101-136.79 139.79-113.64 308.56-300.12 471.54-184.44 161.09-394.532 70.48-575.897 121.11-168.699 47.03-164.553 153.29-294.645 259.6-80.392 65.73-198.808 112.37-312.5623 149.53-128.6577 42.27-267.3467 70.41-388.8457 75.61-51.864 2.03-102.088 2.09-150.175.36"/><path d="m2426.35 224.074c-152.48 177.599-431.07 237.473-545.28 334.625-166.57 142.049-179.44 289.744-324.05 440.527-141.43 147.374-94.25 333.264-284.59 514.124-190.34 180.85-409.417 75.17-595.977 131.63-176.125 53.28-156.824 171.35-289.895 294.96-77.881 72.5-199.555 126.68-320.1283 167.65-133.2828 45.26-278.6227 72.99-405.4697 72.51-54.321-.4-106.831-3.29-157.528-8.66"/><path d="m2435.49 248.087c-138.97 168.354-384.93 238.287-497.8 334.441-158.77 135.164-193.01 269.372-318.58 402.871-146.05 155.371-74.71 358.041-268.97 556.801-196.3 200.94-424.189 79.99-615.937 142.47-183.53 59.59-149.759 189.11-284.929 330.24-75.761 79.03-200.261 141.09-327.6 185.86-137.9284 48.19-289.919 75.51-422.188 69.31-55.251-2.66-110.299-8.54-164.862-17.62"/><path d="m2444.63 272.113c-125.4 159.089-338.78 239.103-450.77 334.368-150.81 128.218-206.27 249.495-312.77 365.326-150.38 163.633-55.12 382.803-253.36 599.423-202.13 220.92-439.048 84.91-636.113 152.9-190.935 65.9-143.212 206.65-280.392 365.69-73.854 85.65-200.987 155.45-335.309 203.61-142.52 51.09-301.277 77.87-438.832 66.15-57.896-4.96-115.394-13.77-172.113-26.37"/><path d="m2453.77 296.129c-111.9 149.789-292.59 239.897-403.58 334.232-142.8 121.251-219.08 229.509-307.04 327.695-154.15 172.414-35.46 407.594-237.8 642.124-207.82 240.9-453.78 89.84-656.152 163.52-198.319 72.26-137.248 224.09-275.641 401.05-72.182 92.3-201.734 169.76-342.883 221.56-147.2185 54.04-312.1496 80.54-455.508 63.06-60.666-7.52-120.697-19.47-179.61-35.77"/><path d="m2462.9 320.144c-98.38 140.544-246.43 240.713-356.33 334.078-134.76 114.337-232.15 209.804-301.35 290.138-156.88 182.15-15.68 432.34-222.23 684.63-213.28 260.86-468.44 95.12-676.231 174.23-205.508 78.97-131.761 241.42-270.91 436.35-70.704 99.1-202.595 183.93-350.49 239.58-151.892 56.74-323.2651 83.05-472.119 59.83-63.392-9.9-125.899-24.8-186.936-44.55"/><path d="m-342.925 2575.31c63.145 23.23 128.129 41.13 194.269 53.52 307.102 57.44 707.356-101.26 846.88-314.22s53.165-386.64 266.159-471.71c212.997-85.07 477.257 96.07 696.267-184.85 210.83-270.03 49.03-534.12 206.54-727.652 94.58-116.073 421.11-302.325 604.75-586.504"/></g></svg>