<svg fill="none" height="1251" viewBox="0 0 1537 1251" width="1537" xmlns="http://www.w3.org/2000/svg" xmlns:xlink="http://www.w3.org/1999/xlink"><filter id="a" color-interpolation-filters="sRGB" filterUnits="userSpaceOnUse" height="901.742" width="477.472" x="890.084" y="372.896"><feFlood flood-opacity="0" result="BackgroundImageFix"/><feColorMatrix in="SourceAlpha" result="hardAlpha" type="matrix" values="0 0 0 0 0 0 0 0 0 0 0 0 0 0 0 0 0 0 127 0"/><feOffset dy="2.6991"/><feGaussianBlur stdDeviation="10.7964"/><feComposite in2="hardAlpha" operator="out"/><feColorMatrix type="matrix" values="0 0 0 0 0.490839 0 0 0 0 0.883333 0 0 0 0 0.250278 0 0 0 0.5 0"/><feBlend in2="BackgroundImageFix" mode="normal" result="effect1_dropShadow_0_820"/><feBlend in="SourceGraphic" in2="effect1_dropShadow_0_820" mode="normal" result="shape"/></filter><clipPath id="b"><path d="m.5.637817h1535.79v1249.68h-1535.79z"/></clipPath><g clip-path="url(#b)"><path d="m932.899 866.093c4.225 3.352.236 5.708.073 10.71-.036 1.505 2.557 2.791 1.36 3.389-1.106.58-2.249 3.19-1.143 4.549 2.34 2.9.544 1.813-.272 4.875 1.143 8.681 5.731 6.38 3.881 10.512 0 .018-.018.054-.036.072-2.593 5.8-2.485 9.225-1.433 11.509.327 2.138 1.233 3.697 3.155 3.697 1.56 1.323 2.757 2.428 1.632 4.657-3.898 7.83-9.61 2.538-19.729 16.927-6.383 9.08 14.09-6.524 21.253 1.269 3.989 4.35-2.866 3.425-.599 6.307 3.264 4.15-6.673 6.053-4.805 8.427 5.113 6.561-2.086 7.141-.998 12.759 2.811.091 1.542-.29 4.516.362 1.468 3.263.562 6.525.689 9.968 1.976-1.214 4.261-1.341 6.963 1.341.145.145 2.43 8.391 4.134-1.413 1.016-5.908 5.549-8.808 8.795-2.954 6.456 11.635 11.406-11.11 19.62-7.938 4.135 1.595 13.056-4.259 16.284 1.141 1.777 2.973-5.277 16.003 3.446 11.944 4.895-2.266-1.506 7.666-1.415 13.538.055 4.204-16.501 17.539-9.012 19.829 2.158.65 11.022-13.595 14.542-1.38.91 3.14-2.97 15.3 4.59 11.67 5.8-2.79-1.13-6 11.48-2.84 7.43 1.86 3.95-13.85 7.92-14.68 17.97-3.77 16.32 12.57 23.56 6.9 2.3-1.81 3.13-10.42-.55-10.91-4.39-.561 4.08-4.657 5.79-6.632 5.87-6.76 12.87 9.692 23.82.707 1.06-.87 2.27-1.051 3.54-1.378zm151.051 126.934c.87 2.991 2 5.365 3.28 5.329 14.65-.435 10.68-9.261 20.28-.435l-.06 1.866c.73 7.033-5.8 3.023-9.07 12.863-.74 2.25-6.67 7.65-6.61 7.89 1.19 5.4 12.51 2.1 15.41 1.87 9.21-.73 8.27-5.01 11.53-5.15 6.77-.31 9.4-3.61 12.62-3.61 1.25 1.32 8.58 8.47 10.05 8.56 4.6.23.78-5.22.56-6.2-1.12-5.04.56-7.09 3.32-7.74.51-17.87.94-9.189 3.61-23.144 4.35-22.763 16.83-15.568 12.4-22.02-6.49-9.478 6.53-5.763 3.83-11.78-7.64-17.018 1.32-15.803 8.14-19.718 8.54-4.893 5.17-12.596 5.17-12.596-1.24-9.369-4.68-8.735.23-10.366 2.8-.925 8.91-14.716 12.73-10.167 6.66 7.901 4.45-1.378 12.17-2.846 6.47-1.232 3.81-3.552 6.51-3.751 9.38-.707-2.12-2.392 8.07-8.282-.91-.852-1.63-2.665-2.01-6.235-1.42-13.411-17.47-18.467-14.69-25.771.02-.054 3.77-3.607 3.48-6.524l1.2-.127 1.14-.381 1.14-.652 1.31-.707.98-.653 1.41-.761 1.31-1.087.92-1.087 1.09-.979 1.09-1.432.98-.924.6-1.196 1.08-1.088.71-1.232.47-.652.42-.925.52-.58.55-.706.52-.653.28-1.341.59-.906.91-1.069.69-.635.25-1.667.13-1.45-.22-.489-.7-1.178-.69-1.196-.75-2.085.08-.471-.06-2.138.22-1.432.92-1.45 1.36-1.124 1.56-.435 1.26.309 1.55 1.014 1.47.599 1.96-.055 1.63-.979.87-1.087 1.26-1.323.59-1.486-.16-1.196-.92-1.432-1.36-1.432-.77-.815-1.75-1.196 1.52-.979 1.2-1.033 1.57-.652 1.58-.544 1.03-1.033.33-1.812.6-1.033.43-.979.33-1.758v-1.033l.76-1.595.33-1.486.98-1.975-.22-1.432-.11-1.214.11-1.197c-4.04.2-5.78-.181-9.12-2.464-2.76-1.885-23.41 5.672-16.77-2.411 10.08-12.287-14.75-7.321-13.82-25.354.09-1.794 15.9-5.274 7.11-11.889-8.38-6.307 3.84-5.292 8.14-3.28 8.12 3.788 8.41-3.679 6.29-8.047-7.65-15.731-12.89.671-15.52 2.03-13.17 6.814-11.19-9.243-12.68-14.064-.47-.29-.85-.543-1.19-.761-2.56 1.233-11.74 5.473-7.51-4.349 10.64-24.775-6.55-9.026-8.2-13.973-5.38-16.202-13.74-3.607-20.23-12.759-8.98-12.65-7.11-4.748-20.68-14.752-2.3 1.83-.59 1.413-4.46 3.624-36.05 1.178-12.65-4.386-27.22-9.859-4.85-1.83 3.67-2.791-10.28-2.791-8.47 0 1.85-9.369 3.29-12.867 1.59-3.915 8.55-1.359 8.9-8.609.16-3.461 16.32-11.037 17.97-17.416.02-.109.05-.199.07-.308.07-.272.15-.508.22-.671.02-.054.05-.127.07-.163-.54.798-2.39 2.809-7.07 3.933-4.79 1.142.11 2.537-7.05 3.661-.35.054-9.89 7.738-6.01-.598.64-1.396 5.9-4.06 3.29-8.609-3.21 1.958-3.49 4.549-6.1 1.359-6.31-7.666-4.97 5.129-10.13 2.066 0 0-30.36-6.977-32.75-7.194-15.94-17.906-2.34-10.095-1.91-19.592.31-6.56 10.7-24.846 10.68-25.59 0-.108-9.59-17.398-12.96-18.63-8.02-2.918-3.43-13.81-.51-15.84 7.42-5.147.02-8.192.98-10.566 3.39-8.409 16.72-.996 18.21-9.315 4.51-25.427 2.77-2.32-1.96-20.425-.95-3.588-21.51-7.104-8.47-12.976 20.4-9.189 6.69-3.824 5.13-8.445-3.43-10.131-2.14-4.839-7.16-14.553 1.9 15.894-4.1 8.59-10.7 16.365-4.71 5.546-14.05-1.939-18.5 4.223-5.93 8.191-14.1-5.601-19.62 5.871-1.63 3.39-4.38 13.357-5.44 17.018-1.81 6.271-7.3-4.023-14.648 3.842-6.129 6.561-3.21 1.595-8.741 3.77-.054 7.847 6.728.381-1.922 15.785-2.557 4.567.163 15.659-10.662 22.654-4.098 2.646-2.43 11.744-.109 14.698 11.007 14.046-.635 10.077 1.958 19.283 1.233 4.404-11.079 7.703-5.004 28.309 2.03 6.905-3.409 15.622 1.74 22.001 7.616 9.424-15.975 36.319-6.455 44.293.653.562 1.233 1.16 1.741 1.794 3.536 4.459 3.59 10.476 5.403 11.998 1.27 1.069 5.477 8.518 3.5 10.566-.598.634 1.759 1.577 4.316 5.691 5.585 8.971 4.624-3.698 5.023 14.407 0 .454.09.834.217 1.16v.037c-4.007 1.812-7.652 7.466-11.387 3.352-6.945-7.629 3.354 1.867-12.422-1.196-2.285-.435-22.54-3.316-20.49 1.305.453 1.015 9.248-.525 10.245 6.543.888 6.361 9.919.416 10.681 9.804.598 7.485-14.108 1.269-17.118 4.676-8.469 9.66 2.883 13.012.217 17.108-4.751 7.286 1.197 1.903.417 11.925 1.233.055 2.194.399 2.865 1.577 2.521 4.495-1.487 3.806 2.285 3.77 1.995 0 10.028 4.947 10.953 11.236-.435 1.106-.073 2.374-.327 3.607-.054.181-.09.344-.163.525-2.067 5.129.073 10.838-7.416 8.844-7.689-2.048-13.365 17.634-24.952 9.914-.073-.055-.145-.109-.236-.145-.29-.2-.562-.363-.834-.526-.199-.109-.381-.217-.562-.29-.29-.127-.562-.235-.834-.272-.725-.09-1.433.254-2.231 1.36-1.65 2.229-2.774 2.537-4.098 2.428h-.09c-.327-.036-.689-.091-1.052-.145-.055 0-.127 0-.181-.018-.399-.054-.816-.109-1.27-.145-.29 0-.58-.018-.888 0-1.161.036-2.575.29-4.37 1.033-5.332 2.229-2.775 4.041.09 6.887 1.759 1.758 1.052 10.493-.834 12.523-2.23 2.41-2.375 4.458-1.65 5.401.725.942 2.357.797 3.663-1.178.653-.979 1.142-1.287 1.541-1.215 1.215.254 1.614 4.151 2.775 5.039 3.082 2.374 3.862 6.923 6.147 9.442h.018c.762.852 1.686 1.45 2.901 1.685 3.319.616 1.796 6.18 4.697 8.047.363.236.961.689.961.689z" fill="#2a3567"/><path d="m1146.6 646.004c-6 4.839-2.17 5.437 3.48 11.708 1.73 1.395 2.76 2.066 3.43 2.338 2.27.924 0-2.918 6.08 2.283l-4.46-5.147c-7.98-8.01-5.81-13.375-8.53-11.182zm8.04 14.571c.18.091 6.42 9.261 6.72 10.512.84 3.425 6.11 2.628 3.47-4.005-2.22-2.084-3.92-3.625-5.23-4.749-6.09-5.201-3.8-1.359-6.07-2.283l1.12.525z" fill="#fff" stroke="#fff" stroke-width=".656782"/><path d="m1306.59 113.491c12.81-31.2988 14.33-30.9364.33-43.8944-21.81-20.1893-9.92-2.3379-21.47 2.2835-14.65 5.8538-17.88 2.5735-24.63 6.1075-14.99 7.8292-17.68-9.4059-22.34-19.2831-5.74-12.1425 4.79-7.4667-2.93-10.892-3.18-1.4136-8.16-11.5626-11.66-5.7632-5.48 9.0435-5.17 4.5308-12.64 1.1961-19.53-8.7172 19.46-17.5432-5.73-32.2411-2.21.5074-3.94 1.033-4.59 1.7036-7.22 7.3942-1.56-7.75677-21.09 18.0869-2.08 2.7728-7.18 5.7994-3.01 10.2396 3.01 3.1897 14.11-11.1458 13.82 6.035-.13 7.9924 11.8 7.358-6.51 23.0165-7.53 6.4337-4.79 20.4429-11.26 27.656l-8.07 22.7441c.25 2.338 13.89.562-1.42 13.72-5.09 4.386-6.42-1.07-17.42 11.544-13.93 15.967-34.4-3.624-35.2.544-3.19 16.601-16.46 31.86-17.12 49.44-.38 10.675-13.74 4.531.55 22.98 4.68 6.035 7.18-6.144 25.27-6.415 10.85-.182 8.13 15.114 19.08-1.74 5.31-8.174 22.12-3.371 27.69 2.175 2.65 2.646 7.56 2.392 8.07 6.107.51 3.788 35.43 26.315 17.77 31.698-13.58 4.132-18.89-6.67-25.17-1.088-4.51 4.023-6.22-3.751-12.85 1.849-13.71 11.58-17.63-1.958-17.87 9.152-.18 8.373-17.53-.508-22.45 11.762-3.73 9.333-4.56-.163-4.56 14.807 0 4.621-14.66 14.806-28.76 14.806-14.11 0-3.11-1.178-19.95 12.523-10.99 8.935-16.19 13.321-31.37 10.24-8.69-1.758-9.63-14.336-24.54-8.772-.05.018-13.705 21.168-10.224 27.439 11.284 20.316 21.394 13.973-3.282 30.429-9.629 6.415-1.305-7.993-19.729 20.37-6.183 9.533-12.911 2.066-21.143 9.805-8.396 7.901-41.127 1.033-60.367 4.132-37.155 5.981-49.903 26.804-68.87 23.415-9.049-1.613 7.235-9.442-14.489-6.651-16.447 2.12-26.783-15.024-42.178-15.024-12.222 0-8.432-11.001-17.009-13.937-38.243-13.121-43.702-2.864-60.91-9.152-8.704-3.172-34.98-7.431-54.364-9.805-7.616-.942-14.18-1.577-18.206-1.758-2.14-.09-3.155-.181-3.754-.707-1.559-1.359-.399-5.636-8.885-20.316-3.119-5.4-2.829-25.535-7.308-27.982-4.225-2.338-6.492-1.74-.435-6.869 3.554-3.008-8.976-.924-13.509-6.307-36.739-43.622-45.388-25.155-63.322-36.917-4.08-2.682-8.958-.869-12.422-4.023-4.206-3.842-25.604-4.331-15.141-25.807 4.189-8.609 7.743-.381 9.157-16.547 1.125-12.922 10.3-6.651-1.269-27.62-3.59-6.488-1.614-31.588-12.893-31.769-5.929-.091-3.826-7.558-14.815-8.319-8.794-.616-11.442-16.184-17.988-21.204-11.37-8.717 2.557-6.833-6.564-11.889-5.549-3.081 14.597-16.655-8.251-14.027-3.989.453-12.077-11.672-14.815 2.029-3.772 18.957-25.06 8.899-32.078 17.689-9.629 12.07-1.632 45.616-19.82 38.258-5.911-2.392-8.504 6.995-12.312-.218-4.588-8.681-9.122 4.295-30.519-15.894-6.111-5.763-9.284.544-21.035 15.459-3.064 3.897-18.459 23.669-18.532 26.895-.272 12.505 8.087 15.514 2.72 17.09-9.248 2.737-15.994-10.765-17.336-10.674-5.603.398-12.076 3.769-29.194.543-1.868-.344-19.766-2.283-20.165-.108-1.541 8.463 12.784 4.531 6.22 20.696-2.901 7.141 2.104 16.982-1.741 23.633-2.103 3.643 7.87 23.27-5.548 20.588-5.658-1.124-6.837 3.987-4.026 6.651 3.119 2.954-11.043-1.395-11.551 12.088-.49 12.886-5.458 9.678-16.139 13.828-2.611 1.015-25.604 4.839-32.912 6.869-11.37 3.135-11.134-5.6-13.183 0-2.702 7.394-7.38 1.269-10.898 4.676-9.72 9.424-19.947-15.097-31.824 0-16.8461 21.421-13.4007 5.237-25.1693 9.587-5.6395 2.084-4.7872-6.887-3.4816-9.261 5.3675-9.732-11.6054 3.607-17.6619-4.458-4.4064-5.872-2.2848 2.338-17.4262 6.415-3.0102.816-12.2945-10.565-21.2524 9.914-3.7717 8.626-12.91093-1.958-12.09493 10.674.36267 5.709 4.49708 7.268-1.088 11.98-5.14989 4.349.34453 15.169 6.43735 12.849 5.00478-1.903 19.33018 5.945 16.66458 12.197-7.0539 16.565-1.1424 17.906-6.3285 24.285-5.0955 6.289 10.2272 16.728-6.4374 15.024-2.9013-.29-16.08432-10.022-12.85658 1.414.88854 3.171 6.16536.435 7.96056 3.697 3.19152 5.781 9.24802 3.117 15.35902 14.698 2.321 4.404 8.8309 1.758 9.1573 13.719.1814 6.978-8.7403 10.91-3.808 17.743 5.5488 7.702-7.4165 5.491 10.8982 7.63 5.8752.688-6.8363 1.631 5.6576 11.109 8.3051 6.307 14.9238 12.831 25.9308 14.807 9.9915 1.794-4.1526 5.872-.8704 10.022 7.489 9.46-6.2379 18.304 5.0773 23.071 2.9558 1.25 9.9552 8.536 8.5952 13.973-.3082 1.196-.9973 2.301-2.2485 3.226-7.5254 5.654-6.3286-2.139-7.2171 10.511-.1813 2.646-6.4917 4.767-3.6629 14.009 1.777 5.8 9.4656 9.352 5.313 27.838-2.0309 9.043-16.9547 14.136-16.1205-1.088.3264-5.926-10.3542-2.99-9.7921 2.954.8886 9.442-8.2144-.616.544 16.655 2.0491 4.042-6.2741 3.77-1.0336 9.261 4.352 4.586-4.1888 4.731-2.2304 8.645 2.7926 5.582-3.6448-.743 2.6112 9.587 1.7046 2.809 2.0128 18.124 8.6134 10.349 1.8677-2.211 5.3675 3.189 7.9606 4.675 8.6677 5.039 4.7328 13.23 21.9051 25.047 4.5877 3.153 10.9161 10.837 11.1161 16.546.417 11.563 13.618-11.272 19.511-6.089.671.598 1.106 1.432 1.741 2.066 4.787 4.784 9.919 3.951 9.919 11.871 0 .018 10.173 11.743 14.452 19.355 5.132 9.152 10.228 1.377 14.326 17.036 4.66 17.869 8.649-.87 19.838 9.786 4.732 4.513-3.337 12.505 1.958 14.155 5.73 1.794 10.354 18.032 19.729 12.849 8.487-4.676-.344 10.131.435 11.436 2.14 3.606 4.516.417 12.313 5.328 3.445 2.175 4.805-7.05 9.157 12.414 2.358 10.566 8.16-8.119 9.049-.217 1.523 13.647 9.701.235 14.706 4.458 26.384 22.31 12.548 5.6 24.299 13.719 5.077 3.516 6.002-4.422 10.028-1.087 6.836 5.654 22.576-3.697 25.604-.109 11.261 13.321-12.839 18.25 2.067 30.175 4.388 3.516 8.414-.416 5.114-5.455-1.959-2.99 21.597-25.789 31.497-20.261 4.86 2.7 10.554 2.138 14.38 6.868 2.956 3.643 4.588-.29 12.313 7.195 9.901 9.569 13.128-8.083 20.273 7.63 2.666 5.854-6.292 13.466 6.546 14.589 11.551 1.015-.49 11.146 2.067 16.112 5.694 11.019-4.442 2.918 31.498 10.457 30.863 6.47 19.856-12.777 47.836-16.782 39.259-5.6 24.208-22.709 48.162-14.263 5.894 2.084 9.411-1.088 21.47 12.849 2.394 2.773 6.891 3.081 8.94 6.216 2.285 3.48 3.681.381 7.852-1.196 11.768-4.44-5.005-3.806 6.219-13.61 4.643-4.06 7.943-16.927 10.899-1.523.417 2.211 3.064-1.395 6.092 3.48 3.591 5.763 4.044 4.676 4.08 5.691v.181c.037.689-.09 2.193.291 7.177.272 3.534 3.118 15.731 6.437 13.936 13.799-7.484 5.893 12.995 6.764 16.438 1.178 4.712-.998 8.5 0 12.306 1.251 4.784-5.839 15.676-3.808 17.525 5.186 4.748-7.888 4.023-2.938 7.847 7.961 6.144-5.24 3.969-6.111 6.978-3.917 13.52-5.766-1.033-12.059 10.928-6.419 12.179-7.797-.797-13.944 10.729-2.865 5.401 3.735 5.944-5.295 9.642-2.031.833-4.135 10.22-1.705 11.02 12.512 4.02-3.336 16.62-3.282 16.98 1.56 9.95 6.71-4.15 34.327-1.65 17.063 1.54-.091 2.32 1.196 10.19.744 4.49 7.199 4.56 3.065 9.91-1.414 1.83 4.932 3.79 1.958 8.05-8.16 11.72 30.954 6.85 15.468 17.41-6.292 4.3-1.197 11.29-6.51 15.55-19.076 15.35 24.335 9.35 20.491 18.74-3.881 9.5 6.691 9.21 4.044 11.67-6.909 6.47 9.139 4.66 11.261 6.07 6.636 4.44 19.983-13.59 22.195-4.6 1.432 5.87-6.329 21.37 8.359 15.71 1.324-.5 15.523 10.21 9.847-.59-4.08-7.76 7.199-12.4-1.088-22.51-5.422-6.62-.526-23.22 6.564-17.47 2.285 1.86 12.784 3.08 14.978-.33 16.719-25.86 14.525 17.23 30.827-3.28 8.323-10.49 6.728 8.28 11.751-2.25 3.681-7.72 8.921 17.44 13.219 3.68 4.297-13.75 10.626 2.19 13.709-.71 6.056-5.67 11.841-2.93 12.62-9.58.798-6.85 9.103-6.98 13.619-10.91 2.285-2 4.624.29 7.87 4.06l1.088 1.23c2.466 2.88 4.823 5.93 6.455 6.83 11.406 6.29 1.378 2.99 11.859 2.14 9.484-.78.889 7.09 13.727 1.94 2.303-.93 15.631 3.8 3.482 13.28-7.344 5.73 1.215 9.01 2.176 17.42.508 4.35 6.872 3.57 9.048 6.09.454.52 3.138 10 18.968 10.46 5.186.14 6.818-2.36 11.225.97 9.266 7.04 14.343-4.22 16.011.66 1.886 5.47 6.474-1.4 3.482-5.33-3.59-4.71 4.153-5.53 4.026-3.37-.291 4.86-.291 1.45 3.155 6.32 3.626 5.13 4.152-8.12 5.24-1.08.78 5.12 14.017 1.5 8.287 7.73-3.753 4.08 12.766 1.65 14.598-1.19 1.831-2.83-3.355-4.42.217-7.63 2.521-2.27-1.922 3.08 1.741 4.78 3.318 1.54.49 4.7 6.002 5.02-1.741-8.12 3.935-2.41 5.186-11.92.726-5.53 17.118 2.43 13.709-7.99-3.336-10.26 3.065.23 11.043-7.34 5.93-5.64-1.994-1.02.599-9.59.907-2.99 8.595-2.74 11.043-4.6.925-.71 1.687-1.29 2.321-1.8 1.088-.85 1.795-1.43 2.212-1.81l1.651-1c11.066-6.76-2.303-21.75 10.646-30.84 3.61-2.54-.87-1.78 3.81-5.46 14.56-11.42-.38-11.76 6.43-15.24 9.12-4.68-1.45-11.8 1.29-17.92-12.6-3.16-5.68.05-11.48 2.84-7.56 3.63-3.68-8.53-4.59-11.67-3.51-12.233-12.362 2.03-14.538 1.38-7.49-2.3 9.084-15.625 9.012-19.83-.091-5.853 6.306-15.803 1.414-13.538-8.722 4.042-1.668-8.971-3.445-11.943-3.228-5.419-12.149.453-16.284-1.142-8.214-3.171-13.147 19.573-19.62 7.938-3.246-5.853-7.779-2.936-8.795 2.954-1.704 9.805-3.971 1.577-4.116 1.414-2.702-2.7-4.987-2.573-6.963-1.341-3.409 2.102-5.839 7.449-7.762 7.159-2.556-.381-14.978.253-8.74 2.501-6.274-2.248 6.166-2.882 8.722-2.501 1.922.29 4.371-5.057 7.761-7.159-.145-3.444.78-6.706-.689-9.968-2.973-.634-1.704-.254-4.515-.362-1.088-5.637 6.093-6.198.979-12.759-1.849-2.392 8.07-4.295 4.806-8.445-2.267-2.882 4.587-1.958.598-6.307-7.163-7.793-27.653 7.829-21.27-1.269 10.118-14.39 15.83-9.098 19.729-16.927 2.974-5.981-10.59-3.752-3.337-19.936 1.85-4.132-2.738-1.848-3.88-10.511.816-3.081 2.611-1.994.272-4.893-1.106-1.36.036-3.969 1.142-4.549 1.179-.616-1.414-1.903-1.36-3.389.145-5.002 4.153-7.376-.072-10.711-.291-.218-.599-.453-.962-.689-2.901-1.885-1.396-7.43-4.696-8.046-4.951-.925-4.969-7.957-9.067-11.11-1.523-1.178-1.741-7.72-4.315-3.842-2.63 3.951-6.474.616-2.013-4.223 1.886-2.03 2.593-10.765.834-12.523-2.847-2.863-5.422-4.658-.091-6.887 7.181-3.008 8.178 1.976 11.968-3.135 1.632-2.193 2.775-1.377 4.679-.109 11.587 7.721 17.281-11.961 24.951-9.913 7.471 1.993 5.35-3.734 7.417-8.826 3.282-8.101-8.051-15.405-10.463-15.387-3.772.018.254.725-2.285-3.769-.671-1.197-1.614-1.523-2.847-1.577.78-10.022-5.168-4.64-.417-11.925 2.666-4.096-8.686-7.431-.218-17.09 2.992-3.426 17.717 2.791 17.118-4.676-.743-9.388-9.792-3.443-10.68-9.805-.98-7.068-9.792-5.509-10.246-6.524-2.049-4.621 18.206-1.758 20.491-1.305 15.776 3.063 5.476-6.434 12.421 1.196 3.754 4.114 7.381-1.54 11.406-3.353v-.036c-.145-.326-.235-.707-.235-1.16-.399-18.105.562-5.437-5.023-14.408-2.575-4.114-4.933-5.056-4.316-5.709 1.958-2.066-2.23-9.514-3.5-10.565-1.813-1.523-1.868-7.54-5.422-11.998-.507-.634-1.088-1.232-1.759-1.794-9.52-7.974 14.054-34.869 6.456-44.293-5.15-6.379.29-15.097-1.741-22.002-6.075-20.624 6.256-23.922 5.023-28.308-2.593-9.207 9.048-5.238-1.958-19.283-2.322-2.972-3.99-12.052.108-14.698 10.826-6.996 8.106-18.087 10.663-22.654 8.631-15.387 1.868-7.938 1.922-15.767 5.531-2.175 2.611 2.791 8.74-3.77 7.348-7.865 12.818 2.447 14.648-3.842 1.06-3.661 3.81-13.629 5.44-17.018 5.52-11.472 13.69 2.32 19.62-5.872 4.45-6.162 13.8 1.323 18.5-4.222 6.6-7.775 12.6-.472 10.7-16.366l-.87-2.174-1.09-1.523-1.2-1.631-1.08-1.413.1-1.632.77-1.304.32-1.631-.87-2.066-1.19-1.849 1.19-1.849.17-3.497 1.08-2.846h3.29l1.3-2.41.65-2.628.87-2.193.66-2.628 1.09-1.957 2.17-2.41 1.96-2.411 1.96-2.845 2.41-2.193 2.19.652 1.96 1.523 2.18 2.41 1.74 1.957-1.09 3.498-1.09 3.28v3.498l1.31 3.498h5.89l1.96-1.305 1.09-2.41 1.52-2.175 1.96-1.74 2.18-1.522 2.39-2.193 2.19-1.522 2.2-2.193 3.3-.798 1.03 1.595.98 1.649 2.41 1.269.98-.707 1.14-.761.82-1.196 1.63-1.595 1.58-1.595.6-1.214.98-.435 1.23.054 1.74 1.414h2.07l2.61.326 2.72-.326 2.28-.87.77-1.631 1.3-1.957-.65-1.088-.87-.978-.65-1.197 1.19-1.304.76-1.414v-1.414l-.76-.978-.32-1.196.21-1.632 1.09-1.957 1.53-1.848h5.65l2.61-.87 1.2-1.088 1.52-1.522 1.31-1.414 2.39-.543h2.61l2.29.761 1.74 1.74 1.41 1.739 1.64 1.523 1.19 1.957.11 2.392.55 2.936 1.95 2.066.77 2.719 1.85 1.957 1.52 2.501 2.83 1.849-.33 1.74-2.07.978-1.95 1.523-.22 2.501 1.09 2.174 2.93.979 1.74 2.066.33 2.175v2.501l.76 2.392h2.29l1.09-1.305 3.15-.326h1.96l1.96-.326 1.3-.87 1.42 1.305h2.94l3.04-.109h1.85l2.18-.326c6.87-3.933 3.91-5.111 3.26-6.978-4.62-13.429.07-16.238-3.92-20.914-5.58-6.524 4.63-8.101 6.55-6.524 7.33 5.98 3.81-2.429 13.51 16.999 2.9 5.8 6.91-13.737 19.62-18.304 10.1-3.625 12.08-11.526 16.12-10.946 12.64 1.794 3.65-7.576 11.32-8.718 14.68-2.175 8.72-1.848 7.76-3.787-2.25-4.531 16.23 4.712 19.29-4.169 6.33-18.34 11.1 7.123 11.1-19.827-3.99-.634-2.76.961-4.64-.543-3.03-2.429-8.89-.743-1.96-6.525 1.65-1.377-1.94-9.877-2.01-9.967-6.39-7.558-2.74-9.642-6.35-11.78-8.85-5.274 1.56-11.454-6.78-5.746-9.18 6.271-15.34 13.955-16.12 8.446-1.06-7.394-11.07-16.003-8.47-19.664 3.32-4.694-3.45-4.712-.49-9.206 4.79-7.25-4.95-10.258-5.8-14.3-1.4-6.615-10.03-1.123-6.95-4.983 4.23-5.274.18-12.433 7.82-6.96 12.15 8.699 4.75-3.171 10.5 1.704 10.62 9.007 9.12-2.9 7.81-4.767-5.11-7.285 6.38-.181 6.38-11.671-.27-.544-.43-1.178-.81-1.667-11.03-13.955 8.43-9.642 9.77-16.42 1.13-5.582-4.73-1.975-5.29-3.335-4.17-9.931-5.66 15.405-12.95.109-3.36-7.032-15.23-10.439-12.51-17.253 2.63-6.579 26.49-25.898 32.96-38.566 6.89-13.484 5.64 11.019 11.23 8.065 4.95-2.628-3.12-12.252-1.2-14.372 3.92-4.332-1.81-18.631 4.14-20.914 15.86-6.072.2-23.633 5.24-35.939zm-310.549 975.969c-10.554 6.36 3.21-2.9 0 0z" fill="#2a3567"/><path d="m1299.92 497.721c-.4.018-.8-.073-1.18 0-2.43.471-2.05 3.407 0 3.57 1.24-1.377 7.8-3.915 1.18-3.57zm-.54-5.51c-6.93-.38-6.26-2.555-8.56-1.703-.82.308 1.92 1.54 2.16 1.866 3.44 4.622 8.57-.036 6.4-.163zm-11.5 2.03c-4.77 4.005 1.52 6.035 1.52.852 0-1.051-1.28-1.051-1.52-.852zm-19.47 9.442s-7.2.761-8.74 2.248c-6.26 5.998-3.02.362-3.36 7.72-.18 3.824 3.14-.852 5.77-1.486 2.03-.489 8.59-4.35 8.61-4.44.18-1.033-1.94-3.86-2.27-4.06zm-25.68-47.609c-.09 0-.24-.073-.27 0 0 0-.84 4.983 1.88 2.192.04-.036 4.84-2.192-1.61-2.192zm288.59-310.36c-4.51-3.715 2.88-15.677-3.15-16.891-9.47-1.885-19.93 13.774-28.55 16.891-11.47 4.132-13.45 17.108-15.79 17.869-20.93 6.797-22.07 4.205-27.02 5.437-11.68 2.918-.29 8.536-14.81-6.415-6.26-6.452-.35-2.248-1.09-11.001-.84-9.678-7.31-.961-6.82-13.901.38-10.275-5.55 5.365-23.39-11.671-11.99-11.436-9.39 3.788-16.78-2.084-12.34-9.805-15.28-.616-28.74-2.084-11.18-1.215-7.5-18.595-11.17-21.096-6.51-4.458-1.79-4.6574-9.23-16.6005-5.4-8.6992-7.67-3.0447-8.85-13.5381-.34-3.1353-3.93-4.7483-4.64-8.1554-1.56-7.6118-9.68-15.2054-9.84-15.7853-.75-2.7366.7-5.9263-.49-8.4817-.67-1.4498-4.25 1.8486-5.24-4.3314-.24-1.4861-9.31-15.6947-9.56-15.8216-8.41-4.5126-15.83-15.11471-25.91-8.44538-6.8 4.51268-19.99-17.0358-44-5.58194-4.49 2.13854-11.51-.52558-13.32 1.86669-2.02 2.64598-11.43 3.7515-17.34 5.09263 25.19 14.6979-13.8 23.5239 5.73 32.2412 7.47 3.3346 7.16 7.8473 12.64-1.1962 3.5-5.7994 8.49 4.3677 11.66 5.7632 7.73 3.4253-2.79-1.2686 2.94 10.892 4.66 9.8772 7.34 27.1123 22.34 19.2831 6.76-3.534 9.97-.2356 24.62-6.0894 11.55-4.6214-.34-22.4909 21.47-2.2835 14 12.9581 12.48 12.5956-.32 43.8946-5.04 12.305 10.64 29.867-5.24 35.938-5.97 2.284-.22 16.583-4.14 20.914-1.92 2.121 6.17 11.744 1.2 14.372-5.59 2.954-4.34-21.53-11.23-8.065-6.47 12.668-30.35 31.988-32.98 38.566-2.72 6.815 9.16 10.222 12.51 17.254 7.29 15.296 8.8-10.041 12.95-.109.56 1.359 6.42-2.247 5.29 3.335-1.36 6.778-20.8 2.446-9.77 16.419.38.489.51 1.033.78 1.595l.04.072c0 11.491-11.5 4.368-6.41 11.672 1.31 1.866 2.82 13.773-7.81 4.766-5.75-4.875 1.65 6.996-10.5-1.703-7.63-5.474-3.59 1.667-7.82 6.959-3.08 3.86 5.55-1.631 6.95 4.984.85 4.041 10.57 7.05 5.78 14.299-2.95 4.495 3.81 4.513.49 9.207-2.59 3.66 7.42 12.269 8.47 19.663.78 5.528 6.95-2.175 16.12-8.427 8.34-5.691-2.08.471 6.78 5.745 3.6 2.139-.03 4.223 6.35 11.78.07.091 3.66 8.591 2.01 9.968-6.9 5.763-1.05 4.096 1.96 6.524 1.89 1.504.66-.09 4.64.544.53-1.649 1.02-2.537 1.46-2.972-.44.417-.93 1.305-1.46 2.972 0 26.949-4.76 1.504-11.09 19.827-3.07 8.862-21.55-.363-19.3 4.168.96 1.939 6.93 1.613-7.76 3.788-7.67 1.123 1.33 10.511-11.31 8.717-4.05-.58-6.01 7.34-16.12 10.946-12.72 4.549-16.72 24.086-19.62 18.305-9.71-19.41-6.19-11.001-13.51-17-1.91-1.558-12.13.018-6.53 6.525 4.01 4.675-.71 7.466 3.92 20.914.63 1.867 3.59 3.045-3.27 6.977 0 3.081-.87 4.422-2.94 7.63-10.82 16.728-.9 10.403 4.9 16.438 5.64 5.872 7.87-2.9 10.79 5.654 4.97 14.535 5.09 4.549 7.07 13.683 2.88-2.301 6.42-4.784 10.81-7.466 8.25-5.075 16.43-33.275 28.05-29.704 9.34 2.881 6.31-7.123 11.48-3.281 2.5 1.867-.22 3.462 6.07 9.044 7.35 6.524 2.2 13.23-1.46 20.479-3.21 6.343-14.53 11.255-10.16 16.057 1.98 2.193-13 7.902-2.74 11.345 3.25 1.088 11.7-1.957 7.22 2.954-1.11 1.215 4.24 11.346 8.74 6.144l7.05-8.536c3.79-5.074 15.34-14.788 21.42-16.492 4.01-1.124 3.72-4.386 7.81-4.658 4.43-.29 9.22-3.334 14.06-3.896 9.08-1.051 4.75-4.803 12.56-13.538 5.32-5.945 3.74-6.506 11.1-11.508 3.45-2.338.24-2.61 8.2-7.286 3.03-1.776 5.49-6.416 8.25-8.627.71-.561 1.43-.96 2.18-1.123 5.98-1.233 9.01-11.762 12.67-17.634 2.85-4.549 5.77-23.56 13.95-13.592 8.77 10.71 15.92 2.138 25.69 4.548 4.88 1.197 8.56-3.334.76-12.758-1.63-1.976-5.17-8.573.33-9.424 29.74-4.64 21.05-19.936 26.73-20.316 5.55-.381.49 2.863 6.56-1.269 4.55-3.099-2.43-7.793-.49-12.759.53-1.341 2.85-7.14 4.15-7.177 1.24-.036 17.68 14.155 18.05 14.843.32.635 1.23-4.132-3.12-6.741-9.96-5.981 12.78-3.897 12.46-17.145-.13-5.111 1.28-8.645.23-13.52-.09-.435-.2-.87-.34-1.323-3.99-13.502 3.99-13.629-14.53-43.931-1.07-1.758 11.99-7.05 12.42-11.109 1.76-15.912 35.94 1.885 34.98-10.783-1.58-20.625 3.01-9.823 2.83-21.458-.09-6.072 8.22-16.746 5.24-25.373-1.18-3.389-.02-6.542-1.41-14.48-1.02-5.745 2.7-8.409.65-13.502-3.7-9.243 19.35-13.466 4.57-25.59zm-223.53 350.358c-.63 1.449.76 3.443 2.85 1.377.13-.145.6-.308.6-.308-.04-1.287-3.16-1.722-3.45-1.069zm-1.85-9.751c0-.417.22-3.588-1.18-3.044-.92.362-.94 4.875 1.18 3.044zm-1.78 2.501c-1.01.979 2.38-1.25-1.5 1.776-2.34 1.831 5.57 2.737 2.81-1.54-.27-.399-1.31-.254-1.31-.254zm-.32-6.035c.45-.344.23-1.123.09-1.196-4.99-2.447-3.63 3.951-.09 1.196z" fill="#2a3567"/><g filter="url(#a)"><path d="m1088.25 1102.65c-1.98.66-8.65 3.56-2.19 3.56 3.39 0 5.02-1.67 2.19-3.56zm-21.31 9.54c-4.39 1.21 2.54 1.92 3.1 1.61.64-.34 1.07-2.75-3.1-1.61zm5.75-2.59c-4.33 0-1.99 1.05-.22.09 1.91 1.34 2.51-.09.22-.09zm-9.25 4.65c-.45-.14-.25.96-.58 1.33-1.03 1.14-6.07 3.87.53 3.38 2.41-3.09.52-4.56.05-4.71zm-12.09 9.43c-.49-.06-2.96.87-2.96.87-2.28 2.86-4.98-.82-6.13 3.33 2.71 3.32 4.48-1.58 6.89 1.81-.76 4.44 4.65-5.74 2.2-6.03zm142.13-61.93c-2.45 4.89 4.24.98 0 0zm-103 54.21c-.78 1.28-.27 2.08.44 3.17 2.61-2.39.29-4.37-.44-3.17zm7.11-5.48c-.58.29-1.02.8-1.52 1.2 1.92.49 5.18 1.81 4.96-1.09-1.3-.4-2.14-.78-3.44-.11zm-123.345 64.43c1.614.91 6.945 1.38 5.513-1.38l-.707-1.26c-1.197 2.08-4.298.34-4.806 2.62zm211.945-118.6-2.29.44c-2.7 2.03 2.29 2.35 3.38 2.72 1.52-1.11 7.7-4.77-1.09-3.16zm-88.47 48.75c.72-1.63 1.54-1.95 2.19-3.57-.31-.68.11-1.46-.65-2.24-12.44 5.92-2.83 8.75-1.53 5.8zm-4.32 7.34c-1.34 7.34 4.81.31 3.66.06zm155.22-564.497c2.78 4.567 3.41-5.437-4.59-3.226-.27.073-.25.544-.21.816.3 2.628 3.01-.544 4.8 2.41zm41.36 209.359c1.73.58-.38-1.214 4.1 1.541 2.05 1.25 8.94 4.712 12.35 4.549 1.43-.073 4.46-.943 4.1-2.737-.96-4.676-3.36-.634-11.75-5.147-13.57-7.286-14.47-.127-8.8 1.812zm19.73 10.04c2.27-1.721-4.73-2.482-5.96-2.591-7.36-.598 3.39 4.549 5.96 2.591zm-54.54-224.383c.98-2.954-1.82-1.867-2.2-1.486-.67.671 1.25 4.277 2.2 1.486zm61.2 260.92c.34.344.54-2.61.54-2.682l-1.58-.544c-.58.761-.58 4.059 1.04 3.226zm-339.949 341.911c-1.668.78-2.738 2.56-4.352 3.26-1.469.64-1.741-.4-2.937 1.09 1.142 2.57 4.243 1.65 4.243 2.94 0 1.28 1.741 3.77 2.176 4.56 3.681-2.44-1.179-3.8-.435-7.52.453-2.28 4.17-1.21 2.393-4.46-.181-.32-.761-.03-1.088.11zm277.589-615.535c1.81-2.175-2.54-1.686-2.58-1.649-.07.072-1.3 6.288 2.58 1.649zm76.39 272.971c-.29-.326-2.57-3.697-2.08-1.866-1.4 2.084-2.21-.218-3.67-.979-.67-.362-1.45-.471-2.17-.707-5.26-.235-2.3 7.956 7.92 3.552zm.93-7.068s-3.52-.453-3.88-2.954c-.98-.181-2.45.055-3.34.598 0 0-.27 2.465.16 2.954.77.87 6.59.254 7.06-.598zm-80.5-263.656c-.61-.145-2.41-.507-2.84.054-.49.635 6.02 5.963 2.84-.054zm-265.106 654.628c-3.845-.27-7.671-7.19-10.88-1.76-2.176 3.68-7.888-2.39-13.328.49-5.785 3.06-7.598 1.9-7.707 1.98-4.135 2.81-8.414-2.69-12.893 2.57-2.72 3.19-9.393-2.14-11.152 4.28-1.632 5.98 4.715-.27-8.849 9.86-12.603 9.42-7.997 3.91-9.176 17.41-.489 5.6 2.068 7.09 1.578 10.97-1.523 12.5 20.255 10.35 25.858 15.17 9.865 8.51 6.873-9.75 16.393-5.97 4.805 1.91 3.717-7.48 14.488-9.69.98-.2 6.764-22.46 11.606-26.52 4.424-3.69-.726-4.85 5.549-5.45 4.696-.44 1.831-10.77-.327-13.29-.254-.29-.761-.01-1.16-.05zm-56.595-32.73v1.09c3.119 1.36 3.355-1.91 0-1.09zm-.87-4.57c.363-.58-.798-2.08-2.539-1.39-2.176 2.17-.036 5.51 2.539 1.39zm319.911-610.024c1.32-.725 4.57-.888 2.9-1.813-5.57-3.062-10.81 6.108-2.9 1.813zm-50.87 518.434c-6.69 3.24 4.08 4.22 1.31.65-.31-.38-.87-.87-1.31-.65zm143.11-254.017.33 3.009c1.49-.091 2.07-3.335-.33-3.009zm-18.58 59.644-1.58.706c.13 2.664 3.12 11.382 4.04 4.006.31-2.393-.27-3.879-2.46-4.712zm7.76-45.236c.05-1.178-1.82-1.975-2.72-1.522-.91.453-.89 3.661-2.72 3.914-3.83.544-1.94.87-.11 2.936 1.39 1.577.25.598 1.85-.108 1.83-.816 5.78-1.197 1.85-2.393-.18-2.12 1.76-.543 1.85-2.827zm-3.81 11.001c-.44.326-.06 1.105-.22 1.631-.34 1.124-.32 1.522-.32 1.522 5.24.943 1.66-3.987.54-3.153zm-1.92 12.179c0-.689-1.25-3.081-2.14-2.356-1.89 1.54 2.14 5.02 2.14 2.356zm-7.02 15.694c-2.19 1.849 3.1 3.861 2.27 1.704-.69-1.794-.91-1.396-2.27-1.704zm1.89-13.411c-.55.163-.39.127-.39.127-.83.254-1.9 1.269-2.08 1.54 5.91 4.35 5.97-2.718 2.47-1.667zm-120.25 202.126c-.14-1.19-.07-2.39-1.72-1.16-4.42 3.32 2.65 8.88 1.72 1.16zm-122.69 53.94c-.09.72-4.31 11.27 4.7 4.09.34-.27.58-.45.76-.6-.94.62-3.37 1.98-3.61 0-.03-.32-1.45-2.41-.52.1-1.78.47-.48-3.45-1.33-3.59zm260.74-297.949c-.92 2.066 2.54 1.65 3.5 1.487-.51-1.269-3.21-2.139-3.5-1.487zm-15.96 3.897c-2.86-.671-8.05 6.561-1.46 6.198 4.64-.272 5.76 2.41 10.11 2.628 9.8.471-6.52-8.319-8.63-8.826zm24.7-13.864c-.6-.544-1.03.725-1.25 1.033-2.39 3.371 3.97 1.377 1.25-1.033zm-9.77-12.922c-.53 0-.98 1.069-1.91 1.178-1.84.199-.87 2.302 3.01 1.595 0-.689-.1-2.791-1.1-2.773zm-6.46 4.658c-.78.434-1.32.579-1.45 1.504-.4 2.791 1.47 1.885 3.5 2.301-.18.453-.52 0-.43.363.6 2.646 4.64-1.16-1.62-4.168zm10.03-.218c-4.37 1.359.09 2.592 2.49 2.084.5-1.087-2.22-2.175-2.49-2.084zm-72.86 163.852c3.01-1.287.84-2.084-1.03-3.226-1.63 1.468-2.4 1.794-2.2 4.168.29 3.172 1.96-.398 3.23-.924zm-.38 20.878c-.73-.036-1.38.435-2.09.652-.54 3.027 1.62 4.06 1.58 6.035-.03 2.103-1.14 2.03.44 4.06 2.39 3.063 5.02-4.404 4.04-6.525-.43-.924-2.95-4.168-3.99-4.222zm30.83-79.652c-.4 1.414.65 2.447 1.57 3.353.89-1.975 1.24-3.588-1.57-3.353zm-215.37 214.83c.41-.29.52-.4 0 0zm175.85-117.073c.51 1.975 4.56 5.89 5.01 1.631.02-.145-5.68-4.205-5.01-1.631zm-54.27 53.323c-.54.56.11 2.91-.69 4.15-.02.03-2.84 1.32-1.48 2.41 3.6 2.9 4.62-9.01 2.17-6.56zm69.91-108.69c-1.64 1.215-6.61 6.525-7.39 8.373 2.14 5.021 10.32-6.723 9.13-7.72-.33-.272-1.74-.653-1.74-.653zm-191.86 178.08c.2.42.19-.09 0 0zm238.84-273.081c-3.17-16.166-.4-8.355-9.38-4.495-.38.163-8.88 6.833-7.07 1.214 0-.054 4.75-1.105 12.19-9.206 5.96-6.506 8.77-4.005-5.13-8.264-10.29-3.154-10.18-17.471-22.91-5.8-11.11 10.185-7.16-8.083-20.52.417-7.67 4.875.85-5.274 9.1-5.02 13.04.417 5.51-3.57 13.2-8.953 2.43-1.704 4.33-3.679 6.29-5.509 2.58-2.393 5.21-4.531 9.21-5.456 11.54-2.646.11-16.292-5.07-18.25-4.35-1.631-5.64-2.7-6.46-3.805l-.13-.182c-1.61-2.211-.72-3.878-15.59-6.977-5.84-1.214-4.01-15.695-15.2-4.875-1.16 1.123-7.92 1.83-7.76 1.54.76-1.323 4.88-1.667 6.46-3.063 12.42-11.127 15.87 7.014 23.01 3.118 10.77-5.854 26.38 11.49 22.79-1.16-3.44-12.07-17.17-5.401-18.26-15.333-.9-8.318-13.27-2.138-14.43-16.709-.47-5.926-14.2-24.901-16.28-34.996-.04-.163-7.08-14.897-11.39-15.387-10.66-1.214-22.34-10.692-25.24-10.837-4.3-.236-4.83-8.011-2.2-10.53.31-.29.65-.507 1.05-.634 5.48-1.794 5.21-18.54 11.75-19.881 3.74-.761 11.99-11.98 8.64-15.332-5.34-5.329 5.63-9.08 4.75-1.867-.48 3.751 8.95-1.124 9.23-3.28.38-3.045-3.07-7.594.81-10.131.91-.598 8.04 3.044 3.99-4.495-1.18-2.211-8.67-.018-1.85-1.921 9.41-2.61 18.32-6.289 25.82-12.36 3.23-2.61 8.13-3.172 10.58-.109 2.75 3.444 10.33-2.791 5.24-5.564-2.34-1.268 2.23-5.745 2.28-8.608.07-3.516 4.97-7.956-3.59-4.911-6.36 2.265-9.27-5.329-12.75-1.958-4.2 4.06-6.56 2.628-11.33 3.589-3.65.743-2.74-4.241-8.4-3.806-5.93.453-9.35-11.074-17.01-5.455-4.2 3.099-8.7 2.555-10.13 7.956-1.63 6.144-7.78 5.527-9.7 13.393-2.83 11.617-33.82 4.639-26.04-4.458 1.61-1.885 3.12-9.533 1.52-10.675-5.24-3.752 2.87-3.28-3.92-9.37-6.62-5.944-4.67 4.803-12.09 1.523-6.69-2.954-7.27 6.977-11.88.435-1.01-1.45-2.1-2.701-3.59-3.698-1-.67-1.78-1.178-2.34-1.576-4.48-3.063 2.14.634-6.58-11.726-.29-.417-.51-.906-.69-1.486-1.92-6.543 3.41-22.708 8.58-24.086.72-.199 1.45-.109 2.15.363 14.37 9.532 3.72 7.195 15.09.598 2-1.16 8.27 3.679 14.54-5.419 4.1-5.945-1.34-13.085 15.26-26.315-1.98-9.134-2.11.87-7.08-13.683-2.92-8.554-5.13.217-10.79-5.654-5.82-6.054-15.72.271-4.89-16.438 2.06-3.208 2.94-4.531 2.94-7.63l-2.18.326h-1.85l-3.05.109h-2.93l-1.42-1.305-1.3.87-1.96.326h-1.96l-3.16.326-1.08 1.305h-2.29l-.76-2.392v-2.501l-.33-2.175-1.74-2.066-2.94-.978-1.08-2.175.21-2.501 1.96-1.523 2.07-.978.33-1.74-2.83-1.849-1.53-2.501-1.85-1.957-.76-2.718-1.96-2.067-.54-2.935-.11-2.393-1.2-1.957-1.63-1.522-1.41-1.74-1.74-1.74-2.29-.761h-2.61l-2.39.543-1.31 1.414-1.52 1.522-1.2 1.088-2.61.87h-5.66l-1.52 1.848-1.09 1.958-.22 1.631.33 1.196.76.978v1.414l-.76 1.414-1.2 1.305.66 1.196.87.978.65 1.088-1.31 1.957-.76 1.631-2.28.87-2.72.326-2.61-.326h-2.07l-1.74-1.414-1.23-.054-.98.435-.6 1.196-1.58 1.595-1.63 1.595-.82 1.196-1.14.761-.98.707-2.41-1.269-.98-1.649-1.03-1.595-3.3.798-2.18 2.193-2.19 1.522-2.4 2.193-2.19 1.522-1.96 1.74-1.52 2.193-1.09 2.41-1.96 1.305h-5.89l-1.31-3.498v-3.497l1.09-3.281 1.09-3.497-1.74-1.958-2.18-2.41-1.96-1.522-2.17-.653-2.4 2.193-1.96 2.845-1.95 2.411-2.2 2.41-1.09 1.957-.65 2.628-.87 2.193-.65 2.628-1.31 2.392h-3.28l-1.09 2.846-.16 3.497-1.2 1.849 1.2 1.849.87 2.066-.33 1.631-.76 1.305-.11 1.631 1.09 1.413 1.2 1.631 1.09 1.523.87 2.175c5.02 9.732 3.75 4.422 7.16 14.552 1.56 4.604 15.25-.761-5.13 8.446-13.04 5.872 7.52 9.388 8.46 12.976 4.74 18.105 6.48-5.002 1.98 20.425-1.47 8.318-14.81.906-18.2 9.315-.97 2.392 6.43 5.419-.98 10.566-2.92 2.03-7.51 12.94.5 15.84 3.38 1.232 12.97 18.522 12.97 18.63.02.743-10.37 19.03-10.68 25.59-.44 9.497-14.04 1.686 1.9 19.591 2.4.218 32.75 7.195 32.75 7.195 5.17 3.063 3.83-9.732 10.14-2.066 2.61 3.19 2.9.598 6.09-1.359.11-.435.07-.888-.07-1.395.14.507.2.96.07 1.395 2.59 4.549-2.65 7.231-3.28 8.609-3.88 8.336 5.66.652 6 .598 7.16-1.142 2.27-2.519 7.05-3.679 4.7-1.124 6.55-3.136 7.08-3.933-.09.236-.22.616-.37 1.142-1.65 6.379-17.8 13.955-17.97 17.416-.36 7.249-7.3 4.676-8.9 8.59-1.43 3.498-11.77 12.868-3.28 12.868 13.92 0 5.4.96 10.28 2.791 14.56 5.473-8.83 11.055 27.22 9.859 3.88-2.229 2.16-1.794 4.46-3.643 13.56 10.004 11.68 2.103 20.67 14.752 6.49 9.153 14.85-3.443 20.24 12.759 1.65 4.948 18.84-10.801 8.19 13.973-4.22 9.805 4.95 5.582 7.51 4.35l1.2.761c1.49 4.821-.51 20.878 12.67 14.064 2.63-1.36 7.87-17.761 15.53-2.03 2.14 4.386 1.85 11.834-6.3 8.046-4.29-1.993-16.52-3.008-8.14 3.281 8.8 6.615-7.02 10.076-7.11 11.889-.92 18.032 23.9 13.084 13.82 25.354-6.62 8.083 14.02.525 16.77 2.41 3.34 2.284 5.08 2.664 9.13 2.465l-.11 1.214.11 1.196.21 1.432-.98 1.976-.32 1.486-.76 1.595v1.033l-.33 1.757-.44.979-.59 1.033-.33 1.812-1.03 1.034-1.58.543-1.58.653-1.2 1.033-1.52.978 1.74 1.196.76.816 1.36 1.414.93 1.431.16 1.215-.6 1.486-1.25 1.323-.87 1.087-1.63.979-1.96.054-1.47-.598-1.56-1.015-1.25-.308-1.56.435-1.36 1.124-.92 1.449-.22 1.414.05 2.139-.07.471.74 2.084.69 1.196.71 1.178.22.489-.13 1.45-.25 1.668-.69.634-.91 1.069-.6.906-.27 1.342-.52.652-.55.707-.52.58-.42.924-.47.652-.71 1.233-1.09 1.087-.6 1.196-.98.925-1.08 1.413-1.09.979-.93 1.105-1.3 1.088-1.42.761-.98.652-1.3.707-1.14.653-1.15.38-1.19.127c.29 2.936-3.47 6.47-3.48 6.524-2.78 7.322 13.27 12.36 14.68 25.772.38 3.588 1.09 5.418 2 6.252-10.19 5.872 1.32 7.557-8.05 8.264-2.69.2-.02 2.519-6.51 3.752-7.73 1.468-5.52 10.747-12.17 2.845-3.83-4.549-9.94 9.243-12.73 10.167-4.91 1.631-1.47.979-.24 10.367 0 0 3.38 7.702-5.16 12.595-6.82 3.915-15.78 2.701-8.15 19.718 2.71 6.017-10.31 2.302-3.82 11.78 4.42 6.452-8.05-.743-12.4 22.02-2.67 13.955-3.11 5.274-3.61 23.14-2.76.66-4.45 2.72-3.32 7.76.22.98 4.04 6.42-.56 6.2-1.47-.07-8.8-7.21-10.07-8.56-3.23 0-5.86 3.32-12.62 3.63-3.26.14-2.32 4.42-11.53 5.15-2.9.23-14.22 3.55-15.42-1.87-.05-.24 5.86-5.64 6.62-7.88 3.29-9.85 9.8-5.84 9.07-12.872l.05-1.867c-9.61-8.826-5.62 0-20.27.435-1.3.037-2.41-2.319-3.28-5.328-1.27.326-2.5.526-3.55 1.377-10.96 8.985-17.96-7.466-23.83-.706-1.71 1.975-10.17 6.053-5.79 6.631 3.68.47 2.85 9.1.55 10.91-7.24 5.67-5.59-10.67-23.56-6.9-3.97.83-.49 16.54-7.92 14.68-2.74 6.12 7.83 13.24-1.29 17.92-6.8 3.48 8.12 3.84-6.42 15.24-4.7 3.68-.22 2.92-3.81 5.46-12.944 9.1.4 24.08-10.641 30.84-.599.37-1.143.71-1.65 1-.671.6-2.049 1.72-4.534 3.61-2.448 1.86-10.136 1.61-11.043 4.6-2.611 8.57 5.331 3.95-.598 9.59-7.979 7.57-14.38-2.92-11.044 7.34 3.391 10.42-12.983 2.46-13.708 7.99-1.252 9.51-6.909 3.8-5.187 11.92 8.033.46.055 4.37-.544 6.87-.779 3.28-2.919 4.75-2.393 7.85 1.124 6.74-4.026 2.48 1.632 12.52 7.144 12.65 6.365 5.82 8.069 10.13 2.14 5.42 2.847 8.41 10.572 5.88 12.077-3.95 1.65-11 .761-16.66-1.142-7.34-11.133-5.36-.217-12.52 3.373-2.21 4.37-17.76 6.655-7.96 1.614 6.94 4.823-1.79 8.505-2.5 5.621-1.07 9.483-4.53 15.576-2.83 3.629 1 2.069-2.28 11.549-2.28 8.94 0-.07-13.36 5.44-7.2 2.76 3.09 8.2 2.89 6.09-2.39-1.79-4.56 1.47.56 3.92.11 5.64-1.05 1.92 1.74 6.31 2.07 4.68.34 6.87-13.54 6.87-6.65 0 13.26 9.25-3.27 11.88-1.74 13.78 7.97 4.46-10.08 6.22-16.12.94-3.22.33 17.53 7.42 10.46 3.86-3.84 6.38-4.09 8-4.42 2.41 3.97 2.73 1.2 4.26 3.1 3.17 3.99-.49 9.3 5.78 5.53.42-.26-1.94-3.34-4.51-6.13.96.69 2.53.8 2.9-.09.07-.2.14-.27.2-.31-.11-.22-.28-.7-.53-1.68-.22-.49 1.67-2.29 1.14-2.83-4.28 1.67-4.89 3.28-4.28 4.31-1.1-1.18-2.23-2.28-3.13-3.02.67-1.25.81-4.01.7-10.7-.11-7.34-10.24-14.51 4.36-7.74 6.43 3 .81 7.22 6.32 4.25 2-1.07 2.52.43 5.21.85-.15 1.05-6.46 16 7.02 5.82 5.38-4.08-.4-.48-.98-4.99-.06-.45-.24-.9-.35-1.36.49-.12 1-.27 1.54-.43 5.88-1.83 12.17 12.92 7.86.76-2.31-6.45 6.63-9.35 7.52-4.03.33 1.98 4.64 4.41 5.01 4.14 2.21-1.56 4.49-16.55 14.05-6.44 7.05 7.45 6.29-12.16 12.53-5.22 4.22 4.72 11.93-3.04 22.01-4.24 6.93-.83 1-7.77 7.42-10.13 12.84-4.73-7-3.77-4.68-6.09 3.03-3.02 10.68 3.05 11.66-4.02.65-4.71 3.48-5.26 6.37-6.27l.12-.06c2.07-.72 4.08-1.64 5.17-4.45.91-2.38 3.75-2.14 5.22-4.46.87-1.36 25.41-16.15 19.95-20.16-2.83-2.08-7.11-1.74-2.28-6.43 2.26-2.21 6.12-2.19 8.94-3.8 5.4-3.14 7.07 8.19 11.22-3.27 1.56-4.31-3.5-4.55 2.07-6.76 9.7-3.839-4.25-8.968 9.05-12.629 8.52-2.356-5.86-6.977 3.69-10.457 2.67-.961 20.69 2.718 8.62-2.936-9.25-4.331 2.5-3.353 1.52-7.847-1.81-8.283 4.75-.943-2.61-10.24-3.08-3.896 8.12-4.186.98-11.327-5.57-5.582 13.44-1.45-.76-7.195-7.07-2.863-1.38-9.533 4.02-6.307 8.78 5.238 10.94-9.116 15.91-12.523 5.67-3.878-.19-1.359-3.52-4.639l1.61.471c2.61.707 4.55.761 5.97.362 6.38-1.83 2.41-12.849 2.92-14.154 1.99-5.002 8.56-9.66 1.41-12.849-12.96-5.8 7.6.779 8.94-4.024 1.62-5.781 4.23-3.081 1.2-8.173-2-3.353 3.5-4.803 7.09.979 2.94 4.73 3.32-5.582 8.83-5.437 1.6.036 4.91 2.066-1.41-6.543-5.86-7.938-13.73-4.639-.88-6.76 3.83-.634 4.76-4.404.88-5.455-11.12-2.954 14.12 2.32-4.47-7.63-2.55-1.377 1.65-4.404 2.62-6.216 1.65-3.117 3.28 8.482 5.87 2.501.25-.598.42-1.178.53-1.686.05.381.12.798.21 1.287.26 1.378 5.39 4.549 3.47-5.201zm-192.22-216.083c.2-.508.28-.417 0 0zm188.54 220.034c-.51-3.571.45-2.393 0 0zm-13.75 43.078-3.39 3.118c.85 1.341 8.49 3.117 4.7-3.607-.44.163-.93.236-1.31.489zm.22 6.47c-1.16.526-.51 1.251-2.18 1.323-3.91.163 4.14 6.271 3.61.218-.07-.743-.31-2.048-1.41-1.541zm10.34-16.111c-.95 4.712 4.53 2.628 2.08.163-.4-.399-1.72-.199-2.08-.163z" fill="#979dbd"/></g></g></svg>