<svg width="1680" height="3793" viewBox="0 0 1680 3793" fill="none" xmlns="http://www.w3.org/2000/svg">
<g opacity="0.08" clip-path="url(#clip0_3_1263)">
<path d="M2211.56 37.6554C1935.23 381.455 1279.88 438.988 1148.13 584.456C899.868 858.904 1147.89 1154.92 815.398 1536.24C469.86 1932.65 -525.978 1944.14 -874.784 2064.07C-1036.61 2119.62 -1184.81 2205.17 -1298.07 2315.36" stroke="#111D40" stroke-width="3" stroke-miterlimit="10"/>
<path d="M2226.27 65.2605C1964.92 395.791 1350.73 460.437 1219.89 604.633C980 869.166 1195.69 1148.86 888.264 1510.19C776.181 1641.86 639.043 1742.83 445.873 1830.88C277.116 1907.81 84.0884 1930.01 -95.6754 1969.54C-243.218 2002.08 -356.479 2040.98 -478.562 2076.37C-598.107 2111.04 -709.967 2136.56 -794.487 2167.72C-910.612 2209.99 -1022.52 2263.06 -1128.73 2326.23C-1170.23 2351.16 -1210.25 2378.47 -1248.59 2408.04" stroke="#111D40" stroke-width="3" stroke-miterlimit="10"/>
<path d="M2240.95 92.8038C1994.54 410.159 1421.46 482.262 1291.61 624.905C1060.39 879.764 1244.24 1143.75 961.096 1484.08C843.644 1625.24 738.006 1742.03 544.05 1853.94C370.134 1954.54 164.927 1960.42 -20.0078 2008.63C-175.731 2049.24 -266.115 2105.71 -391.738 2157.44C-505.265 2204.14 -621.688 2235.33 -714.121 2271.65C-837.733 2320.33 -961.056 2374.15 -1068.88 2429.17C-1114.69 2452.33 -1158.29 2476.36 -1199 2501.22" stroke="#111D40" stroke-width="3" stroke-miterlimit="10"/>
<path d="M2255.67 120.408C2024.13 424.465 1492.09 503.747 1363.35 645.083C1140.59 890.148 1293.99 1139.1 1033.96 1458.03C911.138 1608.68 837.045 1741.81 642.285 1876.97C463.026 2001.34 245.769 1990.99 55.593 2047.6C-108.06 2096.31 -175.537 2169.22 -304.982 2238.38C-412.528 2295.71 -533.506 2334.06 -633.79 2375.52C-762.595 2428.39 -893.861 2482.57 -1008.99 2531.3C-1058.14 2551.9 -1105.34 2572.87 -1149.52 2593.74" stroke="#111D40" stroke-width="3" stroke-miterlimit="10"/>
<path d="M2270.38 148.013C2054 438.703 1562.84 525.166 1435.1 665.259C1220.98 900.901 1344.13 1135.19 1106.73 1431.95C978.789 1592.12 936.282 1741.97 740.46 1900.04C556.276 2048.67 326.615 2021.71 131.194 2086.56C-40.8494 2143.69 -85.0459 2231.67 -218.224 2319.32C-319.94 2386.25 -445.391 2432.52 -553.428 2479.29C-687.066 2537.03 -826.534 2591.24 -949.548 2634.07C-1002.04 2652.1 -1052.42 2669.64 -1100.16 2686.64" stroke="#111D40" stroke-width="3" stroke-miterlimit="10"/>
<path d="M2285.1 175.618C2083.38 453.202 1633.29 546.749 1506.69 685.285C1301.27 911.314 1394.84 1131.76 1179.62 1405.65C1046.25 1575.51 1035.77 1742.15 838.968 1922.69C649.9 2095.95 407.736 2052.21 207.133 2125.27C26.9492 2190.84 5.319 2292.85 -130.998 2400.25C-227.343 2475.93 -356.679 2531.21 -472.628 2583.15C-607.757 2644.04 -747.016 2695.32 -889.364 2736.6C-945.098 2752.1 -998.901 2766.33 -1050.21 2779.47" stroke="#111D40" stroke-width="3" stroke-miterlimit="10"/>
<path d="M2299.81 203.223C2113.06 467.538 1703.85 568.268 1578.54 705.648C1381.66 922.068 1446.03 1128.63 1252.46 1379.85C1113.95 1559.47 1135.46 1743.01 936.873 1946.14C743.265 2144.08 488.595 2083.4 282.493 2164.53C94.0464 2238.61 94.3058 2353.82 -44.7732 2481.08C-136.23 2564.89 -269.065 2629.62 -392.8 2686.81C-536.628 2753.29 -692.075 2808.21 -830.181 2839.03C-889.224 2852.03 -946.415 2863.01 -1001.25 2872.19" stroke="#111D40" stroke-width="3" stroke-miterlimit="10"/>
<path d="M2314.53 230.829C2142.65 481.846 1774.42 589.786 1650.29 725.825C1462.05 932.666 1497.66 1125.9 1325.29 1353.74C1181.52 1543.51 1235.34 1743.78 1035.11 1969.17C837.059 2191.98 569.457 2114.75 358.192 2203.68C161.671 2286.33 182.96 2414.01 42.1483 2562.33C-44.864 2654.03 -180.721 2728.5 -312.401 2790.8C-461.296 2861.56 -624.469 2916.8 -770.4 2941.7C-832.721 2952.1 -893.364 2959.87 -951.701 2965.15" stroke="#111D40" stroke-width="3" stroke-miterlimit="10"/>
<path d="M2329.21 258.372C2172.27 496.214 1845.02 611.209 1721.97 746.035C1542.6 943.103 1549.68 1123.44 1398.15 1327.69C1249.93 1527.33 1335.4 1744.6 1133.25 1992.17C931.101 2239.75 650.341 2145.69 433.696 2242.46C229.166 2333.8 270.566 2473.42 128.808 2643.09C45.8636 2742.57 -92.7706 2826.65 -232.102 2894.61C-386.124 2969.68 -557.392 3025.45 -710.651 3044.3C-776.313 3052.14 -840.168 3056.7 -902.215 3057.99" stroke="#111D40" stroke-width="3" stroke-miterlimit="10"/>
<path d="M2343.92 285.977C2201.9 510.582 1915.58 632.726 1794 766.142C1622.99 953.7 1602.2 1121.02 1471.01 1301.48C1318.44 1511.5 1435.65 1745.32 1231.52 2015.11C1025.24 2287.86 731.507 2176.71 509.519 2281.54C297.013 2381.63 357.643 2532.88 216.034 2724.02C136.653 2831.07 -4.18837 2925.1 -151.108 2998.68C-310.292 3078 -489.654 3134.29 -650.337 3147.07C-717.469 3152.32 -784.848 3153.65 -852.131 3151.06" stroke="#111D40" stroke-width="3" stroke-miterlimit="10"/>
<path d="M2358.64 313.582C2231.58 524.918 1986.15 654.245 1865.5 786.451C1703.03 964.401 1654.64 1119.36 1543.78 1275.56C1387.25 1496.22 1535.88 1746.29 1329.66 2038.27C1119.42 2336.03 812.464 2208.09 584.9 2320.39C364.418 2429.23 443.617 2591.89 302.324 2804.98C226.26 2919.73 83.4255 3023.51 -71.407 3102.25C-235.69 3185.79 -423.307 3242.46 -591.22 3249.38C-661.897 3252.27 -732.684 3250.44 -803.112 3243.91" stroke="#111D40" stroke-width="3" stroke-miterlimit="10"/>
<path d="M2373.35 341.187C2261.17 539.225 2056.78 675.73 1937.19 806.662C1783.33 974.97 1707.79 1117.4 1616.61 1249.45C1456.88 1481.29 1636.25 1747.1 1427.84 2061.33C1213.78 2384.1 893.606 2239.37 660.501 2359.36C432.077 2477.01 529.095 2651.02 389.082 2885.92C316.057 3008.45 171.474 3121.84 8.95438 3206.02C-160.551 3293.85 -355.668 3351.12 -531.471 3351.98C-605.886 3352.2 -680.213 3346.96 -753.855 3336.31" stroke="#111D40" stroke-width="3" stroke-miterlimit="10"/>
<path d="M2388.07 368.791C2290.8 553.593 2127.35 697.247 2008.94 826.839C1863.72 985.567 1760.74 1115.78 1689.48 1223.4C1527.93 1467.41 1736.79 1747.91 1526.01 2084.24C1308.42 2431.95 974.879 2270.89 736.071 2398.26C499.994 2525.13 613.945 2710 475.775 2966.74C405.575 3097.24 259.298 3219.9 89.2221 3309.77C-85.5131 3401.57 -288.438 3459.6 -471.759 3454.37C-549.83 3452.12 -627.599 3443.71 -704.336 3429.21" stroke="#111D40" stroke-width="3" stroke-miterlimit="10"/>
<path d="M-654.785 3522.17C-574.969 3540.55 -493.749 3552.21 -411.977 3557.03C-32.307 3579.34 426.737 3326.36 562.598 3047.8C698.459 2769.24 567.554 2572.73 811.738 2437.35C1055.92 2301.98 1402.82 2480.24 1624.25 2107.43C1837.48 1749.02 1601.61 1454.9 1762.18 1197.04C1858.61 1042.37 2224.4 767.413 2402.62 396.089" stroke="#111D40" stroke-width="3" stroke-miterlimit="10"/>
</g>
<defs>
<clipPath id="clip0_3_1263">
<rect width="4181.55" height="2068.5" fill="white" transform="translate(-1491.52 1966.97) rotate(-28.0597)"/>
</clipPath>
</defs>
</svg>
