<svg width="1680" height="1183" viewBox="0 0 1680 1183" fill="none" xmlns="http://www.w3.org/2000/svg">
<g opacity="0.1" clip-path="url(#clip0_0_2647)">
<path d="M968.268 566.775C933.343 566.755 898.578 562.045 864.907 552.772C773.956 527.761 700.647 472.262 663.623 400.469C635.58 346.088 631.146 285.966 651.155 231.169C688.255 129.513 802.625 61.2246 935.734 61.2246C970.66 61.235 1005.43 65.9448 1039.1 75.2272C1130.05 100.22 1203.35 155.737 1240.38 227.531C1268.42 281.911 1272.86 342.033 1252.85 396.831C1215.73 498.467 1101.36 566.775 968.268 566.775ZM935.829 63.1763C803.553 63.1763 689.922 130.953 653.088 231.813C633.268 286.099 637.664 345.652 665.461 399.54C702.239 470.86 775.15 526.018 865.513 550.859C899.017 560.088 933.61 564.772 968.362 564.785C1100.64 564.785 1214.27 497.008 1251.1 396.148C1270.92 341.882 1266.53 282.309 1238.73 228.44C1201.95 157.12 1129.04 101.963 1038.68 77.103C1005.17 67.884 970.58 63.2 935.829 63.1763Z" fill="#979DBD"/>
<path d="M978.537 568.253C932.474 568.242 886.716 560.775 843.04 546.141C747.239 514.138 673.569 452.007 640.903 375.609C617.067 319.959 617.522 262.793 642.192 210.27C685.185 118.77 796.39 59.6523 925.463 59.6523C971.527 59.6547 1017.29 67.1221 1060.96 81.7644C1156.76 113.768 1230.43 175.879 1263.1 252.296C1286.93 307.946 1286.48 365.112 1261.81 417.636C1218.8 509.135 1107.61 568.253 978.537 568.253ZM925.482 61.7555C797.186 61.7555 686.738 120.494 644.03 211.217C619.606 263.191 619.17 319.808 642.76 374.908C675.199 450.7 748.452 512.413 843.608 544.246C887.078 558.805 932.618 566.234 978.461 566.245C1106.76 566.245 1217.2 507.506 1259.89 416.783C1284.34 364.79 1284.77 308.192 1261.18 253.092C1228.73 177.3 1155.49 115.587 1060.24 83.7541C1016.79 69.2043 971.281 61.7756 925.463 61.7555H925.482Z" fill="#979DBD"/>
<path d="M991.649 570.526C933.1 570.38 875.089 559.355 820.568 538.012C720.428 498.657 647.119 430.122 619.436 350.01C600.128 294.095 605.282 238.426 634.329 188.953C681.983 107.837 788.508 57.4541 912.352 57.4541C970.898 57.5732 1028.91 68.5796 1083.43 89.9119C1183.57 129.267 1256.88 197.801 1284.57 277.913C1303.87 333.829 1298.72 389.498 1269.67 438.971C1221.94 520.125 1115.47 570.526 991.649 570.526ZM912.352 59.5952C789.19 59.5952 683.404 109.599 636.11 190.071C607.366 238.975 602.288 294.076 621.388 349.385C648.862 428.966 721.811 497.008 821.326 536.155C875.605 557.4 933.36 568.374 991.649 568.518C1114.81 568.518 1220.6 518.514 1267.89 438.023C1296.62 389.119 1301.71 334.037 1282.61 278.728C1255.14 199.147 1182.19 131.105 1082.68 91.9582C1028.4 70.7127 970.641 59.7388 912.352 59.5952Z" fill="#979DBD"/>
<path d="M1007.6 573.786C935.167 573.604 863.589 558.107 797.565 528.311C745.326 504.683 701.177 474.176 666.351 437.645C633.078 402.743 609.905 363.293 599.313 323.559C584.382 267.549 594.178 213.434 627.64 167.068C678.648 96.3923 779.11 54.1953 896.398 54.1953C968.834 54.3692 1040.41 69.8669 1106.44 99.6704C1158.68 123.298 1202.82 153.805 1237.65 190.336C1270.92 225.238 1294.1 264.688 1304.69 304.422C1319.62 360.432 1309.82 414.547 1276.27 460.894C1225.33 531.589 1124.87 573.786 1007.6 573.786ZM896.398 56.3364C779.792 56.3364 679.974 98.1924 629.364 168.319C596.281 214.154 586.599 267.663 601.359 323.048C611.856 362.44 634.859 401.568 667.866 436.205C702.522 472.547 746.444 502.883 798.437 526.397C864.186 556.07 935.468 571.496 1007.6 571.664C1124.19 571.664 1224.03 529.789 1274.64 459.662C1307.72 413.827 1317.4 360.337 1302.64 304.952C1292.14 265.56 1269.14 226.432 1236.13 191.795C1201.48 155.453 1157.56 125.099 1105.56 101.584C1039.81 71.9283 968.529 56.5086 896.398 56.3364Z" fill="#979DBD"/>
<path d="M1026.21 578.219C940.641 578.219 851.112 556.505 774.202 517.074C721.299 489.979 675.673 455.172 642.116 416.385C609.639 378.811 588.36 337.41 580.573 296.634C569.867 240.586 584.362 188.062 622.258 144.785C675.313 84.3982 768.404 49.7803 877.828 49.7803C963.397 49.7803 1052.91 71.4947 1129.84 110.925C1182.72 138.002 1228.37 172.828 1261.92 211.615C1294.4 249.188 1315.68 290.59 1323.47 331.366C1334.15 387.414 1319.68 439.918 1281.78 483.214C1228.78 543.583 1135.63 578.219 1026.21 578.219ZM877.79 52.0162C768.991 52.0162 676.431 86.3878 623.888 146.282C586.371 189.048 572.122 241.022 582.676 296.312C598.611 379.816 670.576 461.652 775.168 515.218C851.851 554.497 941.02 576.135 1026.25 576.135C1135.05 576.135 1227.59 541.764 1280.15 481.85C1317.69 439.085 1331.93 387.224 1321.36 331.84C1305.43 248.336 1233.48 166.5 1128.89 112.934C1052.19 73.579 963.018 52.0162 877.79 52.0162Z" fill="#979DBD"/>
<path d="M1047.09 583.999C945.453 583.999 840.083 555.577 750.365 504.209C643.138 442.723 573.107 354.899 563.046 269.255C556.433 213.15 575.494 162.256 618.184 122.105C671.731 71.6845 756.504 43.9258 856.928 43.9258C958.546 43.9258 1063.93 72.3477 1153.65 123.734C1260.88 185.221 1330.89 273.044 1340.97 358.689C1347.59 414.794 1328.5 465.669 1285.83 505.839C1232.25 556.24 1147.48 583.999 1047.09 583.999ZM856.909 46.2184C757.091 46.2184 672.849 73.7499 619.7 123.772C577.56 163.449 558.725 213.68 565.244 269.046C575.248 353.952 644.825 441.132 751.464 502.276C840.841 553.55 945.832 581.858 1047.05 581.858C1146.87 581.858 1231.11 554.307 1284.26 504.285C1326.4 464.627 1345.22 414.396 1338.7 359.03C1328.71 274.124 1259.12 186.945 1152.5 125.781C1063.14 74.4511 958.148 46.2184 856.909 46.2184Z" fill="#979DBD"/>
<path d="M1069.71 591.275C952.843 591.275 827.673 554.27 726.339 489.733C617.976 420.706 550.881 327.994 546.845 241.724C544.23 185.505 567.991 136.259 615.588 99.2919C667.563 58.9517 745.23 36.7637 834.286 36.7637C951.156 36.7637 1076.31 73.7881 1177.66 138.325C1286.02 207.333 1353.12 300.064 1357.15 386.334C1359.77 442.553 1335.99 491.799 1288.41 528.747C1236.44 569.049 1158.77 591.275 1069.71 591.275ZM834.286 38.9996C745.723 38.9996 668.567 61.0551 616.99 101.111C570.018 137.586 546.542 186.168 549.138 241.61C553.117 327.16 619.833 419.19 727.571 487.801C828.544 552.11 953.259 589.002 1069.71 589.002C1158.26 589.002 1235.43 566.927 1287.01 526.89C1333.98 490.396 1357.46 441.814 1354.86 386.391C1350.88 300.841 1284.17 208.811 1176.43 140.201C1075.44 75.8913 950.74 38.9996 834.286 38.9996Z" fill="#979DBD"/>
<path d="M1093.44 600.123C961.199 600.123 814.902 552.753 702.18 473.608C647.648 435.276 603.31 390.919 573.941 345.349C545.519 301.144 530.948 255.687 531.895 213.907C533.183 157.518 561.757 109.94 614.546 76.3262C664.341 44.6263 732.023 27.8574 810.544 27.8574C942.8 27.8574 1089.08 75.2273 1201.82 154.392C1310.41 230.714 1374.07 327.784 1372.1 414.092C1370.82 470.481 1342.24 518.06 1289.45 551.673C1239.66 583.373 1171.88 600.123 1093.44 600.123ZM810.544 30.2069C732.554 30.2069 665.213 46.8433 615.816 78.2968C563.709 111.475 535.495 158.39 534.339 213.964C532.445 299.476 595.674 395.864 703.62 471.656C816.001 550.631 961.748 597.774 1093.53 597.774C1171.52 597.774 1238.86 581.137 1288.28 549.665C1340.39 516.506 1368.58 469.591 1369.85 414.017C1371.74 328.505 1308.51 232.116 1200.57 156.325C1088.09 77.3495 942.327 30.2069 810.544 30.2069Z" fill="#979DBD"/>
<path d="M1117.73 610.621C970.238 610.621 801.79 551.313 678.136 455.835C623.926 413.979 580.725 366.779 553.25 319.542C526.59 273.669 514.502 227.474 518.272 185.94C523.426 129.248 556.964 83.3941 615.267 53.3048C660.893 29.7904 720.106 17.3037 786.499 17.3037C933.971 17.3037 1102.44 76.6107 1226.09 172.089C1280.3 213.945 1323.48 261.145 1350.98 308.382C1377.64 354.255 1389.73 400.45 1385.96 441.984C1380.8 498.676 1347.26 544.53 1288.96 574.62C1243.24 598.191 1184.05 610.621 1117.73 610.621ZM786.367 19.8047C720.352 19.8047 661.519 32.1398 616.233 55.4836C558.707 85.1561 525.605 130.347 520.527 186.224C516.737 227.247 528.788 272.949 555.183 318.386C582.525 365.434 625.499 412.33 679.462 453.978C802.757 549.153 970.654 608.271 1117.63 608.271C1183.65 608.271 1242.48 595.936 1287.77 572.573C1345.29 542.919 1378.4 497.729 1383.47 441.832C1387.26 400.81 1375.21 355.108 1348.8 309.67C1321.48 262.623 1278.5 215.727 1224.54 174.06C1101.24 78.9034 933.346 19.8047 786.367 19.8047Z" fill="#979DBD"/>
<path d="M1141.68 622.747C979.275 622.747 787.806 549.608 653.92 436.413C599.691 390.577 559.18 342.26 533.316 292.806C508.684 245.436 499.059 198.843 505.539 157.802C514.577 100.693 553.269 56.6578 617.445 30.4338C658.335 13.7218 707.088 5.25195 762.321 5.25195C924.724 5.25195 1116.17 78.3912 1250.08 191.567C1304.31 237.402 1344.82 285.738 1370.66 335.193C1395.3 382.562 1404.94 429.155 1398.44 470.197C1389.4 527.306 1350.71 571.341 1286.55 597.565C1245.65 614.277 1196.91 622.747 1141.68 622.747ZM762.321 7.71528C707.372 7.71528 658.979 16.1283 618.317 32.7077C554.993 58.5906 516.813 101.981 507.926 158.2C501.522 198.692 511.034 244.849 535.457 291.669C560.734 340.138 602.23 389.554 655.455 434.537C788.924 547.372 979.768 620.227 1141.62 620.227C1196.57 620.227 1244.96 611.814 1285.63 595.215C1348.95 569.351 1387.11 525.96 1396.02 469.742C1402.42 429.25 1392.91 383.093 1368.49 336.273C1343.21 287.785 1301.71 238.388 1248.49 193.405C1115.02 80.627 924.175 7.71528 762.321 7.71528Z" fill="#979DBD"/>
<path d="M1165.1 636.503C988.2 636.503 773.179 547.637 630.065 415.38C577.01 366.381 538.224 315.847 514.672 265.199C492.162 216.768 485.056 169.853 494.132 129.513C507.112 71.8732 551.166 29.7709 621.557 7.75335C656.042 -3.02803 695.454 -8.50391 738.94 -8.50391C915.838 -8.50391 1130.84 80.3618 1273.97 212.618C1327.03 261.618 1365.81 312.152 1389.37 362.8C1411.88 411.231 1418.98 458.146 1409.91 498.486C1396.93 556.126 1352.87 598.228 1282.48 620.246C1247.98 631.027 1208.49 636.503 1165.1 636.503ZM738.921 -5.96495C695.776 -5.96495 656.535 -0.545797 622.296 10.1787C552.814 31.912 509.347 73.3699 496.595 130.062C487.633 169.853 494.701 216.218 516.946 264.138C540.346 314.483 578.981 364.733 631.77 413.524C774.448 545.382 988.768 633.964 1165.08 633.964C1208.22 633.964 1247.46 628.526 1281.7 617.82C1351.19 596.087 1394.65 554.629 1407.4 497.937C1416.37 458.146 1409.3 411.78 1387.05 363.861C1363.65 313.516 1325.02 263.247 1272.23 214.475C1129.55 82.6166 915.212 -5.96495 738.921 -5.96495Z" fill="#979DBD"/>
<path d="M1187.46 651.814C1096.51 651.814 989.071 626.424 884.743 580.323C777.29 532.953 681.091 467.981 606.531 392.739C555.106 340.821 518.309 288.355 497.144 236.778C476.927 187.514 472.323 140.523 483.881 101.035C500.934 42.7892 550.559 2.82801 627.525 -14.5472C656.78 -20.893 686.646 -23.9877 716.581 -23.7749C807.531 -23.7749 914.947 1.6153 1019.29 47.6967C1126.75 95.1802 1222.95 160.058 1297.51 235.281C1348.93 287.18 1385.73 339.666 1406.87 391.242C1427.11 440.507 1431.71 487.479 1420.14 526.985C1403.08 585.231 1353.46 625.192 1276.49 642.567C1247.24 648.921 1217.38 652.022 1187.46 651.814ZM716.543 -21.217C686.805 -21.431 657.136 -18.3554 628.075 -12.0462C552.074 5.12061 503.018 44.4566 486.344 101.755C474.975 140.674 479.561 187.021 499.608 235.774C520.64 286.933 557.247 339.23 608.445 390.901C682.758 465.935 778.692 530.604 885.842 577.955C989.867 623.904 1097 649.218 1187.51 649.218C1217.25 649.432 1246.92 646.356 1275.98 640.047C1351.98 622.88 1401.04 583.526 1417.71 526.246C1429.08 487.327 1424.49 440.98 1404.45 392.227C1383.42 340.954 1346.81 288.771 1295.61 237.1C1221.3 162.067 1125.36 97.3782 1018.19 50.0462C914.188 4.09746 806.981 -21.217 716.543 -21.217Z" fill="#979DBD"/>
<path d="M1208.53 668.601C1111.15 668.601 994.643 638.606 880.462 584.131C765.145 529.182 659.681 452.537 583.51 368.484C485.606 260.481 445.986 152.478 474.787 72.3469C495.952 13.3999 551.488 -24.2875 635.39 -36.452C655.292 -39.2731 675.372 -40.66 695.474 -40.6018C792.847 -40.6018 909.358 -10.6072 1023.54 43.8681C1138.86 98.8171 1244.32 175.462 1320.49 259.515C1418.39 367.518 1458.01 475.521 1429.21 555.652C1408.03 614.599 1352.51 652.287 1268.61 664.451C1248.71 667.272 1228.63 668.659 1208.53 668.601ZM695.474 -37.93C675.499 -37.9906 655.546 -36.6167 635.769 -33.8185C552.909 -21.7297 498.112 15.2946 477.288 73.2564C448.866 152.478 488.259 259.439 585.481 366.703C661.424 450.491 766.585 526.851 881.599 581.725C995.438 636.029 1111.53 665.929 1208.53 665.929C1228.5 665.99 1248.45 664.616 1268.23 661.817C1351.09 649.729 1405.89 612.704 1426.69 554.742C1455.12 475.521 1415.72 368.56 1318.52 261.296C1242.58 177.508 1137.42 101.148 1022.38 46.2745C908.562 -8.03028 792.468 -37.93 695.474 -37.93Z" fill="#979DBD"/>
<path d="M1228.14 686.772C1124.36 686.772 998.98 651.7 875.08 587.978C750.573 523.972 639.064 436.868 561.113 342.697C468.04 230.297 433.726 121.233 466.96 43.4706C479.333 14.4992 500.631 -8.8825 530.246 -26.0683C560.79 -43.8036 599.501 -54.4903 645.279 -57.7115C655.17 -58.4126 665.459 -58.7725 675.861 -58.7725C779.639 -58.7725 905.018 -23.6998 1028.92 40.0032C1153.42 104.028 1264.93 191.132 1342.89 285.303C1435.96 397.702 1470.27 506.767 1437.04 584.529C1424.65 613.482 1403.37 636.882 1373.75 654.068C1343.21 671.803 1304.5 682.49 1258.72 685.711C1248.83 686.412 1238.54 686.772 1228.14 686.772ZM675.861 -55.9872C665.516 -55.9872 655.303 -55.627 645.545 -54.926C600.183 -51.6859 561.889 -41.17 531.686 -23.6431C502.601 -6.77945 481.702 16.1476 469.537 44.5695C436.719 121.347 470.883 229.388 563.292 340.972C640.978 434.859 752.222 521.717 876.406 585.571C999.928 649.085 1124.87 684.101 1228.21 684.101C1238.56 684.101 1248.77 683.741 1258.53 683.04C1303.89 679.8 1342.18 669.283 1372.39 651.757C1401.47 634.874 1422.37 611.966 1434.52 583.544C1467.34 506.767 1433.17 398.726 1340.78 287.141C1263.1 193.254 1151.85 106.378 1027.67 42.5422C904.146 -21.0661 779.204 -55.9872 675.861 -55.9872Z" fill="#979DBD"/>
<path d="M1246.18 706.232C1019.05 706.232 702.029 530.907 539.418 315.412C451.803 199.261 423.002 89.5526 460.386 14.4051C490.021 -45.2052 559.901 -78.0988 657.142 -78.2314H657.767C884.896 -78.2314 1201.91 97.0939 1364.53 312.589C1452.14 428.74 1480.94 538.448 1443.56 613.596C1413.92 673.187 1344.04 706.1 1246.8 706.232H1246.18ZM657.824 -75.4272H657.293C561.17 -75.2946 492.181 -42.9503 463.039 15.6557C426.147 89.818 454.872 198.465 541.806 313.726C703.886 528.614 1019.92 703.428 1246.27 703.428H1246.9C1343 703.295 1411.99 670.951 1441.15 612.345C1478.02 538.183 1449.32 429.536 1362.38 314.275C1200.21 99.3866 884.176 -75.4272 657.824 -75.4272Z" fill="#979DBD"/>
<path d="M1262.15 726.847C1252.68 726.847 1242.77 726.525 1232.76 725.881C994.15 710.344 673.798 513.323 518.765 286.686C478.103 227.247 451.898 170.725 440.908 118.694C430.26 68.2735 434.352 24.6743 453.092 -10.8531C467.871 -38.8771 491.329 -60.6861 522.801 -75.674C555.127 -91.0597 595.182 -98.8662 641.832 -98.8662C651.306 -98.8662 661.216 -98.5251 671.239 -97.8809C909.851 -82.3436 1230.2 114.677 1385.24 341.313C1425.9 400.734 1452.1 457.256 1463.09 509.287C1473.74 559.726 1469.63 603.306 1450.89 638.853C1436.11 666.877 1412.65 688.686 1381.18 703.674C1348.89 718.984 1308.82 726.847 1262.15 726.847ZM641.832 -95.9861C595.599 -95.9861 555.979 -88.2743 524.052 -73.0781C493.148 -58.3555 470.126 -36.9632 455.65 -9.50766C418 61.8692 441.875 169.228 521.153 285.076C675.787 511.068 995.117 707.615 1232.95 723.001C1242.9 723.645 1252.73 723.986 1262.15 723.986C1308.38 723.986 1348.02 716.274 1379.95 701.059C1410.85 686.355 1433.86 665.058 1448.35 637.508C1486 566.131 1462.13 458.772 1382.85 342.924C1228.21 116.932 908.885 -79.615 671.05 -95.0008C661.083 -95.645 651.268 -95.9861 641.832 -95.9861Z" fill="#979DBD"/>
<path d="M1275.62 748.486C1255.88 748.41 1236.17 747.074 1216.6 744.488C967.205 712.276 645.336 493.484 499.134 256.597C462.337 196.968 439.296 140.844 430.675 89.8551C422.319 40.382 427.795 -2.11803 446.951 -36.4517C477.59 -91.4007 540.327 -120.41 628.359 -120.41C648.104 -120.335 667.825 -119 687.401 -116.412C936.793 -84.2007 1258.66 134.591 1404.86 371.478C1441.66 431.108 1464.68 487.231 1473.3 538.22C1481.68 587.693 1476.2 630.194 1457.05 664.508C1426.39 719.439 1363.67 748.486 1275.62 748.486ZM628.359 -117.435C541.463 -117.435 479.617 -89.0135 449.528 -34.9929C430.713 -1.26556 425.35 40.5905 433.593 89.3814C442.157 140.067 465.046 195.831 501.654 255.138C647.439 491.362 968.341 709.623 1216.98 741.664C1236.42 744.229 1256.01 745.552 1275.62 745.625C1362.53 745.625 1424.36 717.203 1454.47 663.182C1473.29 629.455 1478.65 587.599 1470.41 538.789C1461.84 488.103 1438.95 432.339 1402.34 373.051C1256.54 136.827 935.656 -81.4342 687.021 -113.475C667.573 -116.072 647.979 -117.427 628.359 -117.53V-117.435Z" fill="#979DBD"/>
<path d="M1286.65 770.939C1256.97 770.698 1227.39 767.685 1198.28 761.939C938.689 712.484 616.858 471.713 480.717 225.2C415.745 107.533 402.045 5.40404 442.12 -62.6001C473.138 -115.162 533.734 -142.939 617.351 -142.939C647.025 -142.708 676.612 -139.695 705.724 -133.939C965.311 -84.504 1287.14 156.286 1423.28 402.799C1488.25 520.466 1501.95 622.595 1461.86 690.6C1430.84 743.161 1370.27 770.939 1286.65 770.939ZM617.351 -139.927C534.87 -139.927 475.241 -112.642 444.735 -61.0655C405.209 5.9155 418.947 107.041 483.37 223.722C619.132 469.553 940.015 709.661 1198.84 758.964C1227.77 764.672 1257.17 767.666 1286.65 767.907C1369.13 767.907 1428.76 740.641 1459.26 689.046C1498.77 622.084 1485.05 520.94 1420.63 404.277C1284.87 158.447 963.984 -81.6617 705.155 -130.964C676.231 -136.688 646.835 -139.689 617.351 -139.927Z" fill="#979DBD"/>
<path d="M1295.25 794.074C1259.63 794.074 1220.1 788.693 1177.77 778.063C908.903 710.647 588.493 447.99 463.74 192.572C406.896 76.2695 398.009 -23.738 438.748 -88.9947C470.239 -139.434 529.034 -166.094 608.786 -166.094C644.409 -166.094 683.934 -160.713 726.264 -150.083C995.116 -82.666 1315.43 179.99 1440.3 435.409C1497.14 551.711 1506.03 651.699 1465.27 716.975C1433.8 767.414 1375 794.074 1295.25 794.074ZM608.748 -162.967C530.114 -162.967 472.323 -136.819 441.362 -87.3462C401.193 -22.9232 410.117 75.9282 466.487 191.189C590.994 445.868 910.4 707.785 1178.49 775.013C1220.62 785.567 1259.97 790.929 1295.25 790.929C1373.87 790.929 1431.68 764.781 1462.64 715.289C1502.79 650.866 1493.86 552.033 1437.51 436.754C1313.01 182.056 993.6 -79.8426 725.506 -147.07C683.384 -157.605 644.03 -162.967 608.748 -162.967Z" fill="#979DBD"/>
<path d="M1301.52 817.702C1257.81 817.702 1208.53 809.308 1155.07 792.729C877.695 706.724 560.621 422.372 448.316 158.863C399.563 44.5313 395.508 -52.9369 436.947 -115.579C468.988 -164.086 526.306 -189.703 602.685 -189.703C646.417 -189.703 695.701 -181.309 749.153 -164.73C1026.53 -78.7252 1343.59 205.627 1455.91 469.136C1504.66 583.468 1508.74 680.936 1467.28 743.578C1435.18 792.065 1377.86 817.702 1301.52 817.702ZM602.571 -186.539C527.31 -186.539 470.921 -161.395 439.487 -113.836C398.711 -52.1223 402.879 44.2659 451.196 157.594C563.235 420.345 879.42 703.901 1156.06 789.659C1209.21 806.144 1258.17 814.5 1301.56 814.5C1376.84 814.5 1433.23 789.356 1464.65 741.797C1505.42 680.083 1501.27 583.695 1452.95 470.367C1340.9 207.616 1024.73 -75.9398 748.092 -161.698C694.886 -178.164 645.924 -186.52 602.515 -186.52L602.571 -186.539Z" fill="#979DBD"/>
<path d="M1305.31 841.69C1253.6 841.69 1194.64 829.602 1130.04 805.689C845.104 700.547 533.032 394.784 434.389 124.075C413.546 67.0798 403.428 14.9351 404.072 -30.8621C404.735 -75.2761 415.573 -112.793 436.283 -142.371C468.969 -189.077 525.092 -213.767 598.554 -213.767C650.263 -213.767 709.228 -201.678 773.822 -177.766C1058.76 -72.6234 1370.83 233.139 1469.48 503.849C1490.32 560.844 1500.42 612.97 1499.79 658.786C1499.11 703.2 1488.27 740.717 1467.58 770.294C1434.92 817.001 1378.81 841.69 1305.31 841.69ZM598.554 -210.413C526.21 -210.413 471.015 -186.216 438.955 -140.419C418.643 -111.391 408.013 -74.4804 407.35 -30.7485C406.649 14.7265 416.824 66.3976 437.401 123.033C535.76 392.946 846.961 697.857 1131.1 802.696C1195.34 826.4 1253.92 838.412 1305.25 838.412C1377.6 838.412 1432.77 814.216 1464.83 768.419C1485.15 739.39 1495.8 702.48 1496.46 658.729C1497.14 613.254 1486.98 561.602 1466.41 504.967C1368.05 235.053 1056.85 -69.857 772.704 -174.696C708.565 -198.4 649.959 -210.413 598.648 -210.413H598.554Z" fill="#979DBD"/>
<path d="M1306.89 865.849C1247.24 865.849 1178.61 849.422 1102.93 817.04C811.453 692.286 506.202 365.491 422.49 88.5481C389.16 -21.729 394.39 -110.784 437.648 -168.992C471.091 -214.051 526.249 -237.868 597.152 -237.868C656.8 -237.868 725.429 -221.44 801.108 -189.039C1092.58 -64.286 1397.82 262.509 1481.53 539.452C1514.88 649.729 1509.65 738.785 1466.37 796.993C1432.95 842.146 1377.79 865.849 1306.89 865.849ZM597.114 -234.495C527.31 -234.495 473.081 -211.152 440.301 -167.003C397.744 -109.666 392.685 -21.6342 425.711 87.5817C509.082 363.691 813.556 689.539 1104.26 813.951C1179.52 846.162 1247.69 862.496 1306.89 862.496C1376.69 862.496 1430.9 839.152 1463.7 795.003C1506.26 737.667 1511.3 649.635 1478.29 540.419C1394.82 264.309 1090.42 -61.5386 799.743 -185.951C724.482 -218.162 656.307 -234.495 597.114 -234.495Z" fill="#979DBD"/>
<path d="M1306.13 890.046C1238.46 890.046 1160.23 868.634 1073.62 826.4C776.704 681.618 480.168 334.321 412.581 52.1866C387.039 -54.4145 396.703 -140.097 440.491 -195.633C474.768 -239.081 529.187 -261.951 597.854 -261.951C665.536 -261.951 743.753 -240.54 830.383 -198.305C1127.3 -53.5239 1423.83 293.773 1491.4 575.908C1516.94 682.509 1507.3 768.192 1463.51 823.709C1429.21 867.081 1374.81 890.046 1306.13 890.046ZM597.854 -258.616C530.286 -258.616 476.796 -236.087 443.201 -193.492C400.075 -138.827 390.658 -54.1491 415.935 51.3909C483.295 332.635 779.015 678.928 1075.11 823.311C1161.27 865.3 1239 886.597 1306.13 886.597C1373.72 886.597 1427.19 864.087 1460.8 821.492C1503.91 766.827 1513.34 682.149 1488.07 576.609C1420.69 295.365 1124.99 -50.9281 828.886 -195.311C742.73 -237.319 665.006 -258.616 597.854 -258.616Z" fill="#979DBD"/>
<path d="M1303.11 914.148C1228.35 914.148 1138.1 886.333 1042.14 833.714C740.986 668.583 455.099 301.428 404.849 15.2575C386.849 -87.175 400.794 -169.22 445.132 -222.028C480.338 -263.94 534.188 -286.109 600.884 -286.109C675.653 -286.109 765.902 -258.294 861.854 -205.675C1163.01 -40.5441 1448.9 326.61 1499.15 612.876C1517.13 715.308 1503.2 797.353 1458.87 850.161C1423.66 891.96 1369.74 914.148 1303.11 914.148ZM600.884 -282.566C535.268 -282.566 482.346 -260.852 447.842 -219.754C404.262 -167.78 390.524 -86.7202 408.317 14.6513C458.339 299.875 743.506 665.93 1043.83 830.588C1139.25 882.922 1228.91 910.586 1303.1 910.586C1368.71 910.586 1421.63 888.871 1456.14 847.773C1499.72 795.78 1513.46 714.74 1495.64 613.368C1445.56 328.126 1160.47 -37.9103 860.13 -202.587C764.709 -254.94 675.066 -282.585 600.884 -282.585V-282.566Z" fill="#979DBD"/>
<path d="M1297.85 937.909C1214.78 937.909 1114.75 903.632 1008.57 838.773C861.249 748.789 716.771 609.73 601.738 447.157C486.705 284.584 414.816 117.879 399.431 -22.1837C388.687 -119.974 406.707 -198.134 451.556 -248.176C487.747 -288.573 541.199 -309.908 606.153 -309.908C689.201 -309.908 789.247 -275.631 895.431 -210.772C1042.75 -120.808 1187.23 18.2702 1302.26 180.825C1417.29 343.379 1489.16 510.121 1504.57 650.184C1515.31 747.974 1497.29 826.135 1452.44 876.176C1416.25 916.554 1362.78 937.909 1297.85 937.909ZM606.134 -306.289C542.241 -306.289 489.717 -285.446 454.228 -245.75C410.098 -196.486 392.382 -119.33 403.068 -22.5816C434.73 265.427 707.221 650.449 1010.48 835.76C1116.12 900.183 1215.5 934.29 1297.89 934.29C1361.76 934.29 1414.3 913.352 1449.77 873.656C1493.92 824.391 1511.64 747.235 1500.93 650.487C1469.29 362.479 1196.8 -22.5437 893.536 -207.855C787.92 -272.183 688.538 -306.289 606.134 -306.289Z" fill="#979DBD"/>
<path d="M1290.38 961.272C1198.69 961.272 1088.93 919.852 972.928 841.502C824.85 741.476 683.347 592.659 574.491 422.468C465.635 252.278 402.368 80.9125 396.494 -59.8897C392.704 -152.735 414.513 -226.632 459.818 -274.001C497.07 -312.845 550.237 -333.365 613.618 -333.365C705.288 -333.365 815.073 -291.945 931.072 -213.595C1079.15 -113.569 1220.65 35.248 1329.51 205.419C1438.37 375.591 1501.61 546.994 1507.51 687.796C1511.3 780.641 1489.49 854.538 1444.18 901.908C1406.93 940.676 1353.74 961.272 1290.38 961.272ZM613.713 -329.557C551.374 -329.557 499.116 -309.415 462.603 -271.33C418 -224.85 396.475 -151.787 400.302 -60.0601C412.391 229.445 670.254 632.506 975.107 838.413C1090.48 916.365 1199.55 957.558 1290.48 957.558C1352.8 957.558 1405.05 937.417 1441.59 899.331C1486.17 852.852 1507.72 779.789 1503.89 688.062C1491.78 398.556 1233.94 -4.50473 929.083 -210.412C813.595 -288.364 704.55 -329.557 613.713 -329.557Z" fill="#979DBD"/>
<path d="M1280.78 984.046C1180.03 984.046 1060.58 934.782 935.317 841.747C787.163 731.622 649.506 573.312 547.68 395.94C445.854 218.568 392.022 43.1672 396.096 -97.7297C398.541 -180.551 420.501 -245.353 461.372 -290.354C500.405 -333.328 556.339 -356.047 623.149 -356.047C723.877 -356.047 843.343 -306.782 968.608 -213.748C1116.76 -103.641 1254.42 54.6877 1356.23 232.059C1458.03 409.431 1511.9 584.832 1507.81 725.729C1505.37 808.551 1483.4 873.352 1442.55 918.354C1403.52 961.328 1347.57 984.046 1280.78 984.046ZM623.282 -352.238C557.59 -352.238 502.622 -329.956 464.328 -287.815C424.101 -243.515 402.463 -179.547 400.056 -97.6538C391.492 191.947 632.661 611.966 937.666 838.64C1062.25 931.238 1180.92 980.2 1280.83 980.2C1346.53 980.2 1401.49 957.898 1439.79 915.777C1480.01 871.476 1501.63 807.508 1504.06 725.615C1512.6 436.015 1271.43 15.9959 966.448 -210.678C841.789 -303.296 723.138 -352.238 623.187 -352.238H623.282Z" fill="#979DBD"/>
<path d="M1269.07 1006.1C1160.34 1006.1 1027.78 946.89 895.791 839.36C748.3 719.192 615.361 551.636 521.474 367.556C427.587 183.477 383.893 4.74118 398.616 -135.549C414.779 -289.729 500.935 -378.083 634.897 -378.083C743.639 -378.083 876.199 -318.871 1008.17 -211.341C1155.66 -91.1733 1288.6 76.3644 1382.49 260.463C1476.38 444.561 1520.05 623.297 1505.35 763.587C1489.11 917.691 1403.07 1006.1 1269.07 1006.1ZM634.916 -374.199C503.171 -374.199 418.455 -287.038 402.519 -135.095C372.203 153.16 594.689 588.944 898.292 836.328C1029.54 943.29 1161.23 1002.18 1269.07 1002.18C1400.83 1002.18 1485.53 915.019 1501.46 763.095C1531.78 474.84 1309.31 39.0558 1005.71 -208.328C874.437 -315.29 742.767 -374.199 634.916 -374.199Z" fill="#979DBD"/>
<path d="M1255.38 1027.3C1136.56 1027.3 994.188 958.732 854.503 834.244C708.453 704.072 581.142 527.647 496.065 337.505C410.989 147.362 378.209 -34.0834 403.978 -173.029C417.583 -246.433 446.498 -303.428 489.907 -342.442C531.915 -380.168 585.31 -399.286 648.615 -399.286C767.438 -399.286 909.812 -330.713 1049.5 -206.226C1195.55 -76.0531 1322.84 100.371 1407.93 290.514C1493.03 480.656 1525.77 662.102 1500.02 801.047C1486.42 874.452 1457.5 931.447 1414.07 970.442C1372.07 1008.17 1318.69 1027.3 1255.38 1027.3ZM648.615 -395.288C586.333 -395.288 533.847 -376.492 492.598 -339.448C449.851 -301.041 421.373 -244.803 407.92 -172.309C355.017 113.123 556.547 563.307 857.175 831.25C996.12 955.075 1137.6 1023.29 1255.38 1023.29C1317.67 1023.29 1370.15 1004.49 1411.38 967.448C1454.13 929.041 1482.63 872.708 1496.06 800.308C1548.96 514.877 1347.43 64.6923 1046.83 -203.251C907.861 -327.075 766.453 -395.288 648.615 -395.288Z" fill="#979DBD"/>
<path d="M1239.77 1047.5C1176.77 1047.5 1108.08 1028.84 1035.68 992.042C960.839 953.995 885.407 898.212 811.51 826.247C667.695 686.203 546.959 501.328 471.565 305.691C396.171 110.053 375.101 -73.2681 412.353 -210.11C449.112 -345.133 538.565 -419.504 664.209 -419.504C727.23 -419.504 795.897 -400.84 868.316 -364.043C943.16 -325.996 1018.57 -270.213 1092.49 -198.249C1236.3 -58.2045 1357.02 126.671 1432.42 322.308C1507.81 517.946 1528.9 701.267 1491.65 838.109C1454.87 973.132 1365.43 1047.5 1239.77 1047.5ZM664.209 -415.373C540.592 -415.373 452.56 -342.102 416.332 -209.03C339.82 71.9677 518.385 535.056 814.39 823.292C887.984 894.972 963.074 950.508 1037.56 988.366C1109.37 1024.86 1177.41 1043.31 1239.77 1043.31C1363.41 1043.31 1451.44 970.043 1487.67 836.972C1564.16 555.974 1385.59 92.8672 1089.61 -195.35C1016 -267.03 940.924 -322.566 866.44 -360.424C794.608 -396.88 726.566 -415.373 664.209 -415.373Z" fill="#979DBD"/>
<path d="M1222.4 1066.58C1154.03 1066.58 1080.12 1045.27 1002.71 1003.26C922.716 959.85 843.381 896.602 766.945 815.277C626.2 665.589 513.043 472.68 448.184 272.248C383.325 71.8169 374.685 -112.566 423.874 -246.509C469.349 -370.371 560.867 -438.584 681.566 -438.584C749.93 -438.584 823.846 -417.286 901.362 -375.26C981.36 -331.85 1060.7 -268.602 1137.13 -187.277C1277.88 -37.5886 1391.03 155.321 1455.87 355.733C1520.71 556.145 1529.37 740.566 1480.18 874.528C1434.65 998.371 1343.21 1066.58 1222.4 1066.58ZM681.585 -434.358C562.781 -434.358 472.665 -367.131 427.834 -245.069C326.898 29.8661 480.395 504.228 770.034 812.379C846.167 893.381 925.123 956.383 1004.72 999.546C1081.52 1041.23 1154.75 1062.36 1222.4 1062.36C1341.22 1062.36 1431.34 995.131 1476.15 873.069C1577.08 598.134 1423.59 123.772 1133.97 -184.378C1057.83 -265.381 978.878 -328.383 899.278 -371.546C822.482 -413.232 749.248 -434.358 681.585 -434.358Z" fill="#979DBD"/>
<path d="M1203.39 1084.41C1051.45 1084.41 875.591 981.205 720.957 801.237C584.153 642.074 479.428 441.738 426.089 237.252C372.751 32.7653 377.166 -151.826 438.652 -282.036C465.71 -339.372 502.601 -383.483 548.266 -413.175C592.433 -441.881 643.688 -456.433 700.607 -456.433C852.551 -456.433 1028.41 -353.204 1183.04 -173.237C1319.84 -14.074 1424.55 186.263 1477.91 390.749C1531.27 595.235 1526.83 779.826 1465.35 910.055C1438.27 967.372 1401.4 1011.48 1355.71 1041.17C1311.56 1069.86 1260.31 1084.41 1203.39 1084.41ZM700.607 -451.999C644.54 -451.999 594.082 -437.674 550.634 -409.442C505.652 -380.205 469.291 -336.682 442.631 -280.103C316.457 -12.9372 442.82 470.936 724.311 798.49C878.13 977.51 1052.77 1080.17 1203.45 1080.17C1259.51 1080.17 1309.97 1065.86 1353.42 1037.63C1398.4 1008.39 1434.76 964.871 1461.42 908.293C1587.58 641.127 1461.22 157.253 1179.74 -170.3C1025.92 -349.415 851.281 -451.999 700.607 -451.999Z" fill="#979DBD"/>
<path d="M1182.91 1100.92C1103.65 1100.92 1016.17 1072.99 929.708 1020.12C839.288 964.815 753.151 885.366 673.702 784.014C541.73 615.642 446.459 408.522 405.456 200.796C364.453 -6.93024 382.719 -190.82 456.786 -316.483C487.235 -368.097 525.908 -407.717 571.762 -434.263C616.1 -459.919 666.35 -472.955 721.091 -472.955C800.331 -472.955 887.833 -445.007 974.292 -392.161C1064.71 -336.833 1150.85 -257.384 1230.3 -156.032C1362.27 12.3397 1457.54 219.46 1498.54 427.186C1539.55 634.912 1521.28 818.802 1447.21 944.465C1416.75 996.079 1378.07 1035.7 1332.24 1062.23C1287.88 1087.9 1237.65 1100.92 1182.91 1100.92ZM721.091 -468.483C610.245 -468.483 520.243 -415.126 460.613 -314.209C308.537 -56.5171 405.664 434.898 677.207 781.266C756.334 882.202 842.054 961.272 932.038 1016.33C1017.72 1068.76 1104.46 1096.47 1182.91 1096.47C1293.75 1096.47 1383.76 1043.13 1443.37 942.21C1595.44 684.518 1498.32 193.103 1226.79 -153.265C1147.67 -254.201 1061.95 -333.271 971.962 -388.333C886.279 -440.762 799.516 -468.483 721.091 -468.483Z" fill="#979DBD"/>
<path d="M1161.16 1115.98C982.876 1115.98 782.578 984.236 625.348 763.549C499.117 586.367 414.268 373.089 386.452 162.899C358.637 -47.2901 391.246 -229.437 478.35 -349.623C543.985 -440.195 635.428 -488.076 742.825 -488.076C921.106 -488.076 1121.42 -356.312 1278.65 -135.644C1404.89 41.5378 1489.72 254.816 1517.53 465.005C1545.35 675.195 1512.74 857.341 1425.63 977.528C1360 1068.12 1268.55 1115.98 1161.16 1115.98ZM742.825 -483.434C636.963 -483.434 546.79 -436.216 482.045 -346.876C395.642 -227.637 363.298 -46.7785 390.981 162.369C418.664 371.516 503.247 584.302 629.062 760.877C785.439 980.37 984.354 1111.41 1161.16 1111.41C1267.02 1111.41 1357.19 1064.2 1421.94 974.876C1508.36 855.617 1540.69 674.778 1513 465.612C1485.32 256.445 1400.74 43.698 1274.94 -132.878C1118.54 -352.371 919.628 -483.434 742.825 -483.434Z" fill="#979DBD"/>
<path d="M1138.42 1129.53C1045.06 1129.53 944.544 1094.68 847.72 1028.73C748.073 960.816 654.129 860.884 576.064 739.731C456.502 554.155 383.079 335.458 369.285 123.923C355.491 -87.6116 403.126 -267.181 503.436 -381.039C572.881 -459.863 663.528 -501.529 765.581 -501.529C858.938 -501.529 959.456 -466.665 1056.26 -400.707C1155.93 -332.817 1249.87 -232.866 1327.94 -111.713C1447.48 73.8628 1520.92 292.56 1534.7 504.095C1548.47 715.63 1500.86 895.218 1400.55 1009.08C1331.1 1087.88 1240.45 1129.53 1138.42 1129.53ZM765.581 -496.868C664.911 -496.868 575.476 -455.751 506.942 -377.951C456.711 -320.937 419.781 -247.343 397.044 -159.197C375.083 -73.931 367.333 21.1876 374.003 123.601C387.74 334.378 460.917 552.279 580.043 737.192C657.729 857.834 751.257 957.31 850.411 1024.84C946.439 1090.27 1046.05 1124.85 1138.42 1124.85C1239.07 1124.85 1328.51 1083.73 1397.04 1005.95C1447.27 948.936 1484.2 875.323 1506.94 787.196C1528.9 701.93 1536.67 606.812 1529.98 504.379C1516.26 293.621 1443.08 75.7198 1323.96 -109.193C1246.27 -229.835 1152.74 -329.311 1053.59 -396.861C957.599 -462.288 857.99 -496.868 765.581 -496.868Z" fill="#979DBD"/>
<path d="M1114.94 1141.52C904.792 1141.52 679.14 977.149 526.079 712.541C414.135 519.083 353.084 295.686 354.126 83.7347C354.638 -19.418 369.853 -114.309 399.355 -198.286C429.937 -285.447 474.579 -356.824 532.086 -410.731C603.822 -477.977 692.688 -513.523 789.039 -513.523C999.209 -513.523 1224.84 -349.15 1377.92 -84.5419C1489.85 108.917 1550.92 332.313 1549.86 544.265C1549.34 647.417 1534.13 742.308 1504.63 826.286C1474.06 913.351 1429.4 984.823 1371.9 1038.73C1300.16 1105.98 1211.31 1141.52 1114.94 1141.52ZM789.039 -508.73C693.92 -508.73 606.21 -473.619 535.382 -407.226C478.444 -353.849 434.2 -283.022 403.884 -196.695C374.571 -113.324 359.451 -18.8685 358.939 83.7347C357.878 294.928 418.72 517.377 530.228 710.116C682.456 973.246 906.497 1136.69 1114.94 1136.69C1210.06 1136.69 1297.77 1101.6 1368.6 1035.21C1425.44 981.829 1469.78 911.002 1500.1 824.675C1529.41 741.191 1544.53 646.849 1545.04 544.246C1546.1 333.052 1485.28 110.603 1373.77 -82.1357C1221.54 -345.266 997.485 -508.73 789.039 -508.73Z" fill="#979DBD"/>
<path d="M1091.09 1151.89C980.62 1151.89 865.246 1109.12 757.47 1028.23C646.909 945.241 549.422 825.49 475.563 681.941C372.221 481.093 324.491 254.04 341.165 42.5806C349.275 -60.3067 372.221 -153.928 409.378 -235.651C447.88 -320.386 500.025 -388.561 564.353 -438.394C637.757 -495.238 721.375 -523.963 812.893 -523.963C923.379 -523.963 1038.73 -481.197 1146.51 -400.29C1257.07 -317.298 1354.56 -197.547 1428.44 -53.997C1531.78 146.851 1579.51 373.885 1562.81 585.363C1554.7 688.251 1531.76 781.853 1494.6 863.595C1456.1 948.311 1403.96 1016.5 1339.61 1066.34C1266.22 1123.11 1182.61 1151.89 1091.09 1151.89ZM812.893 -518.961C722.492 -518.961 639.898 -490.539 567.366 -434.434C503.682 -385.169 452.03 -317.601 413.887 -233.586C376.977 -152.375 354.164 -59.2646 346.111 43.0543C329.493 253.604 377.034 479.729 479.959 679.705C553.496 822.592 650.49 941.755 760.388 1024.31C867.293 1104.56 981.643 1146.98 1091.03 1146.98C1181.43 1146.98 1264.04 1118.56 1336.56 1062.45C1400.24 1013.19 1451.89 945.621 1490.04 861.605C1526.93 780.395 1549.74 687.284 1557.81 584.965C1574.41 374.397 1526.87 148.291 1423.95 -51.6854C1350.43 -194.591 1253.41 -313.754 1143.52 -396.292C1036.63 -476.631 922.299 -518.961 812.893 -518.961Z" fill="#979DBD"/>
<path d="M1067.25 1160.64C946.8 1160.64 823.108 1113.52 709.552 1024.39C593.307 933.133 494.835 802.942 424.784 647.891C330.992 440.316 297.529 210.44 330.575 0.610352C346.662 -101.481 377.623 -193.284 422.643 -272.24C469.293 -354.076 529.055 -418.461 600.261 -463.614C672.49 -509.43 752.053 -532.642 836.731 -532.642C957.202 -532.642 1080.89 -485.537 1194.45 -396.387C1310.69 -305.134 1409.17 -174.942 1479.22 -19.8912C1573.01 187.683 1606.45 417.56 1573.41 627.37C1557.34 729.481 1526.36 821.265 1481.34 900.221C1434.69 982.057 1374.93 1046.44 1303.72 1091.59C1231.42 1137.41 1151.93 1160.64 1067.25 1160.64ZM836.731 -527.62C753.038 -527.62 674.385 -504.674 602.97 -459.408C532.465 -414.691 473.272 -350.912 427.039 -269.796C382.322 -191.37 351.55 -100.136 335.577 1.34937C302.683 210.194 335.994 439.047 429.388 645.75C499.098 800.062 597.059 929.59 712.66 1020.35C825.324 1108.78 947.937 1155.53 1067.25 1155.53C1150.96 1155.53 1229.6 1132.56 1301.01 1087.31C1371.52 1042.6 1430.71 978.798 1476.94 897.682C1521.66 819.256 1552.43 728.041 1568.41 626.556C1601.3 417.692 1567.99 188.858 1474.61 -17.8449C1404.89 -172.157 1306.92 -301.704 1191.32 -392.446C1078.68 -480.838 956.065 -527.582 836.731 -527.582V-527.62Z" fill="#979DBD"/>
<path d="M1043.83 1167.78C978.327 1167.78 911.877 1154.75 846.317 1129.05C781.458 1103.63 718.721 1066.28 659.869 1018.08C537.731 918.051 438.841 777.078 373.888 610.374C290.631 396.717 272.384 165.097 322.482 -42.0035C346.868 -142.75 386.147 -232.184 439.201 -307.824C494.15 -386.212 561.681 -446.277 639.765 -486.352C707.845 -521.558 783.391 -539.884 860.035 -539.785C925.557 -539.785 992.008 -526.768 1057.55 -501.055C1122.41 -475.627 1185.14 -438.281 1244.02 -390.077C1366.13 -290.07 1465.02 -149.078 1530 17.6256C1613.23 231.283 1631.5 462.902 1581.38 670.003C1557 770.73 1517.74 860.165 1464.66 935.805C1409.72 1014.19 1342.18 1074.26 1264.1 1114.35C1196.02 1149.56 1120.47 1167.88 1043.83 1167.78ZM860.035 -534.593C784.213 -534.698 709.478 -516.566 642.134 -481.728C564.807 -441.938 497.959 -382.517 443.465 -304.83C390.77 -229.74 351.757 -140.893 327.522 -40.7908C277.67 165.23 295.841 395.826 378.682 608.498C443.313 774.368 541.634 914.602 663.109 1013.98C721.564 1061.85 783.827 1098.91 848.174 1124.15C913.127 1149.61 978.915 1162.52 1043.79 1162.52C1119.61 1162.61 1194.35 1144.48 1261.69 1109.65C1339.02 1069.96 1405.87 1010.44 1460.38 932.754C1513.08 857.645 1552.07 768.817 1576.31 668.696C1626.16 462.675 1607.99 232.098 1525.15 19.4448C1460.51 -146.444 1362.19 -286.678 1240.72 -386.041C1182.28 -433.904 1120.02 -470.966 1055.65 -496.204C990.776 -521.689 924.951 -534.593 860.035 -534.593Z" fill="#979DBD"/>
<path d="M1021.57 1173.37C949.868 1173.37 877.563 1159.01 806.963 1130.69C737.215 1102.76 670.538 1061.9 608.786 1009.25C480.49 899.899 381.79 747.766 323.316 569.39C287.255 459.925 268.623 345.473 268.102 230.222C267.723 119.718 284.246 13.6281 317.234 -85.1286C350.223 -183.885 398.047 -270.44 459.344 -342.195C522.838 -416.547 598.1 -471.761 682.929 -506.285C746.233 -532.135 813.96 -545.424 882.338 -545.412C954.037 -545.412 1026.34 -531.05 1096.94 -502.741C1166.67 -474.793 1233.37 -433.941 1295.12 -381.285C1423.4 -271.936 1522.11 -119.803 1580.57 58.5725C1616.65 168.034 1635.28 282.488 1635.8 397.741C1636.18 508.226 1619.64 614.335 1586.65 713.091C1553.66 811.848 1505.84 898.383 1444.54 970.158C1381.05 1044.51 1305.79 1099.72 1220.86 1134.25C1157.59 1160.09 1089.91 1173.37 1021.57 1173.37ZM882.432 -540.05C814.74 -540.042 747.695 -526.869 685.033 -501.263C600.904 -467.157 526.325 -412.341 463.342 -338.652C402.5 -267.408 355.016 -181.517 322.236 -83.3474C289.457 14.8219 272.972 120.381 273.37 230.298C273.895 344.982 292.437 458.871 328.319 567.798C386.489 745.265 484.639 896.545 612.178 1005.25C673.512 1057.53 739.678 1098.09 808.876 1125.8C878.984 1153.88 950.474 1168.11 1021.51 1168.11C1089.19 1168.12 1156.23 1154.96 1218.89 1129.38C1303.02 1095.16 1377.6 1040.45 1440.58 966.747C1501.4 895.503 1548.89 809.612 1581.67 711.462C1614.45 613.312 1630.93 507.734 1630.55 397.817C1630.04 283.138 1611.5 169.253 1575.6 60.3348C1517.45 -117.151 1419.3 -268.431 1291.76 -377.135C1230.43 -429.413 1164.25 -469.98 1095.07 -497.701C1025 -525.896 953.449 -540.05 882.432 -540.05Z" fill="#979DBD"/>
<path d="M1000.9 1177.52C922.223 1177.52 843.627 1161.74 767.172 1130.57C692.081 1099.95 621.121 1055.35 556.3 997.935C490.854 940.03 433.499 870.738 385.769 791.99C335.702 708.805 297.783 618.891 273.161 524.976C243.353 413.505 232.175 297.873 240.078 182.757C247.79 72.4988 272.953 -32.2075 314.847 -128.444C356.741 -224.681 413.376 -307.673 482.953 -374.995C555.069 -444.742 638.137 -494.556 729.845 -523.073C785.93 -540.56 844.337 -549.465 903.086 -549.486C981.776 -549.486 1060.35 -533.684 1136.83 -502.534C1211.92 -471.914 1282.86 -427.291 1347.7 -369.898C1413.13 -311.993 1470.5 -242.7 1518.23 -163.953C1568.3 -80.7686 1606.23 9.14532 1630.86 103.062C1660.67 214.531 1671.86 330.163 1663.96 445.281C1656.23 555.558 1631.07 660.264 1589.17 756.501C1547.28 852.737 1490.64 935.729 1421.07 1003.05C1348.95 1072.78 1265.88 1122.61 1174.17 1151.13C1118.07 1168.6 1059.65 1177.5 1000.9 1177.52ZM903.086 -544.011C844.882 -543.987 787.018 -535.158 731.455 -517.824C640.505 -489.573 558.252 -440.138 486.743 -371.054C417.639 -304.243 361.478 -221.876 319.849 -126.246C278.221 -30.6158 253.19 73.5219 245.517 183.174C237.665 297.692 248.792 412.721 278.448 523.611C302.956 616.987 340.678 706.383 390.468 789.091C437.838 867.365 494.89 936.222 559.92 993.729C624.343 1050.69 694.715 1094.99 769.237 1125.36C845.029 1156.25 922.924 1171.92 1000.9 1171.92C1059.1 1171.89 1116.96 1163.07 1172.53 1145.75C1263.38 1117.5 1345.73 1068.06 1417.24 998.977C1486.34 932.148 1542.5 849.781 1584.13 754.17C1625.76 658.559 1650.79 554.402 1658.46 444.75C1666.31 330.269 1655.19 215.278 1625.53 104.426C1601.03 11.011 1563.31 -78.4241 1513.51 -161.167C1466.14 -239.441 1409.09 -308.298 1344.08 -365.805C1279.66 -422.763 1209.28 -467.063 1134.76 -497.455C1058.99 -528.378 981.057 -544.048 903.086 -544.048V-544.011Z" fill="#979DBD"/>
<path d="M982.648 1180.29C811.188 1180.29 640.751 1110.62 502.697 984.122C434.067 921.253 375.367 846.465 328.186 761.863C278.86 672.94 243.639 576.899 223.783 477.17C200.657 363.999 197.393 247.667 214.138 133.378C230.339 23.8969 264.445 -78.8388 315.529 -171.911C366.613 -264.983 432.097 -343.845 510.143 -406.146C590.994 -470.682 681.849 -514.585 780.208 -536.621C826.538 -547.011 873.871 -552.266 921.352 -552.291C1092.79 -552.291 1263.25 -482.638 1401.3 -356.123C1471.01 -291.873 1529.93 -216.828 1575.79 -133.863C1625.13 -44.937 1660.36 51.1113 1680.22 150.848C1703.35 264.013 1706.6 380.339 1689.84 494.621C1673.64 604.102 1639.54 706.838 1588.47 799.91C1537.41 892.982 1471.9 971.844 1393.84 1034.14C1312.99 1098.68 1222.11 1142.56 1123.75 1164.62C1077.44 1175.01 1030.12 1180.27 982.648 1180.29ZM921.352 -546.739C874.284 -546.715 827.363 -541.498 781.44 -531.183C683.915 -509.336 593.855 -465.813 513.648 -401.806C436.17 -339.979 371.16 -261.724 320.379 -169.258C269.599 -76.7924 235.739 25.337 219.633 134.174C202.964 247.813 206.208 363.487 229.221 476.014C248.961 575.178 283.977 670.676 333.018 759.096C378.614 841.526 437.158 916.095 506.41 979.953C643.499 1105.52 812.666 1174.68 982.648 1174.68C1029.71 1174.65 1076.62 1169.44 1122.54 1159.14C1220.05 1137.28 1310.13 1093.75 1390.33 1029.77C1467.81 967.921 1532.82 889.685 1583.6 797.219C1634.38 704.753 1668.26 602.624 1684.37 493.787C1701.02 380.147 1697.77 264.476 1674.78 151.947C1655.03 52.7823 1620.01 -42.7158 1570.96 -131.135C1525.38 -213.573 1466.83 -288.144 1397.57 -351.992C1260.5 -477.541 1091.39 -546.739 921.352 -546.739Z" fill="#979DBD"/>
<path d="M967.679 1181.96C778.56 1181.96 594.064 1105.92 448.165 967.846C301.072 828.654 204.21 636.257 175.314 425.935C159.353 311.404 164.49 194.919 190.473 82.2382C215.541 -25.8787 258.894 -125.981 319.319 -215.244C379.744 -304.508 454.342 -378.632 540.877 -435.325C658.221 -512.657 795.654 -553.907 936.188 -553.977C1125.31 -553.977 1309.8 -477.957 1455.7 -339.865C1602.8 -200.673 1699.66 -8.27588 1728.55 202.046C1744.52 316.57 1739.39 433.051 1713.39 545.724C1688.35 653.727 1644.97 753.924 1584.55 843.207C1524.12 932.489 1449.51 1006.59 1362.97 1063.31C1245.61 1140.61 1108.19 1181.86 967.66 1181.96H967.679ZM936.301 -548.217C796.867 -548.155 660.508 -507.234 544.079 -430.512C458.188 -374.218 384.178 -300.699 324.132 -211.985C264.085 -123.271 220.979 -23.8132 196.081 83.6027C170.257 195.595 165.165 311.369 181.056 425.196C209.667 634.154 305.923 825.396 452.011 963.678C596.83 1100.71 779.924 1176.18 967.566 1176.18C1107 1176.12 1243.36 1135.2 1359.79 1058.47C1445.68 1002.2 1519.69 928.681 1579.74 839.966C1639.78 751.252 1682.89 651.775 1707.8 544.379C1733.61 432.384 1738.7 316.613 1722.83 202.785C1694.2 -6.17285 1597.94 -197.414 1451.88 -335.715C1307.04 -472.747 1123.94 -548.217 936.301 -548.217Z" fill="#979DBD"/>
<path d="M957.049 1182.73C747.845 1182.73 547.546 1099.84 393.026 949.276C237.842 798.091 143.86 592.923 128.38 371.592C120.026 256.05 133.986 139.98 169.497 29.7139C203.191 -75.3433 256.562 -173.032 326.765 -258.143C395.438 -341.911 479.994 -411.277 575.57 -462.25C673.293 -514.373 780.937 -545.232 891.432 -552.802C909.888 -554.091 928.57 -554.697 946.988 -554.697C1156.19 -554.697 1356.51 -471.781 1511.01 -321.24C1666.2 -170.054 1760.2 35.1142 1775.66 256.483C1784.02 372.019 1770.06 488.084 1734.54 598.342C1700.85 703.401 1647.48 801.09 1577.27 886.199C1508.6 969.961 1424.04 1039.32 1328.47 1090.29C1230.74 1142.41 1123.09 1173.27 1012.59 1180.86C994.149 1182.09 975.467 1182.73 957.049 1182.73ZM946.931 -548.861C928.647 -548.861 910.096 -548.198 891.793 -546.967C782.12 -539.438 675.28 -508.805 578.28 -457.078C483.381 -406.438 399.43 -337.536 331.256 -254.335C261.555 -169.795 208.569 -72.7686 175.125 31.5708C139.862 141.106 126.011 256.404 134.33 371.175C149.696 590.971 243.053 794.889 397.194 945.051C550.673 1094.53 749.456 1176.84 957.106 1176.84C975.372 1176.84 993.922 1176.2 1012.23 1174.95C1121.91 1167.43 1228.76 1136.8 1325.76 1085.06C1420.65 1034.45 1504.6 965.589 1572.78 882.428C1642.49 797.881 1695.48 700.849 1728.93 596.504C1764.2 486.957 1778.07 371.648 1769.78 256.862C1754.4 37.0657 1661.04 -166.852 1506.9 -317.033C1353.44 -466.533 1154.58 -548.861 946.931 -548.861Z" fill="#979DBD"/>
<path d="M951.992 1182.98C737.235 1182.66 530.254 1102.58 371.197 958.286C212.141 813.99 112.348 615.76 91.177 402.05C70.0059 188.34 128.966 -25.6166 256.619 -198.316C384.272 -371.014 571.52 -490.145 782.038 -532.598C992.557 -575.05 1211.34 -537.799 1395.95 -428.07C1580.55 -318.341 1717.83 -143.956 1781.13 61.2567C1844.44 266.47 1829.27 487.882 1738.57 682.544C1647.87 877.206 1488.1 1031.24 1290.25 1114.77C1183.24 1160.03 1068.19 1183.23 951.992 1182.98ZM951.992 -548.955C738.749 -548.679 533.21 -469.211 375.243 -325.966C217.277 -182.721 118.145 14.09 97.077 226.289C76.0085 438.489 134.506 650.95 261.221 822.459C387.936 993.969 573.837 1112.3 782.862 1154.5C991.887 1196.7 1209.14 1159.77 1392.47 1050.85C1575.8 941.94 1712.14 768.817 1775.05 565.065C1837.96 361.313 1822.96 141.458 1732.94 -51.8536C1642.92 -245.165 1484.31 -398.153 1287.88 -481.14C1181.62 -526.107 1067.38 -549.172 951.992 -548.955Z" fill="#979DBD"/>
</g>
<defs>
<clipPath id="clip0_0_2647">
<rect width="1680" height="1183" fill="white"/>
</clipPath>
</defs>
</svg>
