<svg width="128" height="102" viewBox="0 0 128 102" fill="none" xmlns="http://www.w3.org/2000/svg">
<path d="M121.785 37.3481C118.334 32.3816 113.609 28.5351 108.079 26.1831C101.072 10.6431 85.6579 0.650635 68.5604 0.650635C52.9059 0.650635 38.6372 8.98668 30.9194 22.5197C29.9834 22.3351 29.0215 22.2386 28.0444 22.2386C27.9983 22.2386 27.9533 22.2427 27.9079 22.2455C19.7197 22.3176 13.0784 28.9997 13.0784 37.2046C13.0784 37.7436 13.1099 38.2861 13.1694 38.8321C5.34343 43.5571 0.544922 51.9886 0.544922 61.1901C0.544922 75.5996 12.2664 87.3211 26.6759 87.3211H33.9804C35.1634 87.3211 36.1364 86.3656 36.1364 85.1791C36.1364 83.9926 35.1739 83.0336 33.9909 83.0336H26.6864C14.6429 83.0336 4.84293 73.2336 4.84293 61.1901C4.84293 53.0631 9.32295 45.6571 16.5329 41.8596C17.3869 41.4116 17.8349 40.4456 17.6284 39.5041C17.4604 38.7306 17.373 37.9571 17.373 37.2046C17.373 31.3184 22.1598 26.5309 28.0458 26.5297C28.1538 26.5297 28.2602 26.5391 28.3677 26.5424C28.5395 26.5476 28.7116 26.5493 28.8828 26.5629C28.9005 26.5643 28.9178 26.5677 28.9356 26.5692C29.1953 26.5912 29.4545 26.6209 29.7122 26.662C29.7346 26.6656 29.7563 26.6715 29.7786 26.6752C30.0275 26.7165 30.2755 26.7649 30.5216 26.8238C30.7249 26.8726 30.9246 26.9318 31.1238 26.9923C31.1814 27.0096 31.2398 27.0229 31.2971 27.0412C34.3959 28.0396 36.9524 30.4308 38.0964 33.6031C38.4114 34.4781 39.2339 35.0206 40.1124 35.0206C40.3539 35.0206 40.6024 34.9786 40.8404 34.8876C41.9534 34.4851 42.5309 33.2566 42.1284 32.1436C40.8373 28.566 38.2614 25.6997 35.0402 23.9884C42.0807 12.1815 54.7208 4.93814 68.5674 4.93814C84.2439 4.93814 98.3454 14.2586 104.498 28.6821C104.512 28.7147 104.534 28.7426 104.549 28.7743C106.588 33.5904 107.624 38.7054 107.624 43.9946C107.624 44.0366 107.62 48.1036 106.21 53.0946C105.888 54.2356 106.549 55.4186 107.69 55.7406C107.886 55.7931 108.082 55.8211 108.275 55.8211C109.213 55.8211 110.07 55.2016 110.336 54.2601C111.908 48.6951 111.911 44.1697 111.911 43.9876C111.911 39.9373 111.362 35.9734 110.275 32.1454C118.242 37.1154 123.171 45.8165 123.171 55.4816C123.171 67.5391 115.114 78.3891 103.581 81.8646C102.447 82.2041 101.803 83.4011 102.146 84.5351C102.486 85.6691 103.683 86.3131 104.817 85.9701C111.229 84.0381 116.993 80.0131 121.046 74.6406C125.239 69.0861 127.455 62.4606 127.455 55.4816C127.455 48.9576 125.495 42.6856 121.785 37.3481Z" fill="#111D40"/>
<path d="M75.0252 101.349H64.2452C63.1077 101.349 62.1872 100.429 62.1872 99.2912V94.6432C60.6367 94.1707 59.1352 93.5477 57.7107 92.7917L54.4242 96.0782C53.6192 96.8832 52.3172 96.8832 51.5122 96.0782L43.8892 88.4552C43.0842 87.6502 43.0842 86.3482 43.8892 85.5432L47.1757 82.2567C46.4197 80.8322 45.7967 79.3307 45.3242 77.7802H40.6762C39.5387 77.7802 38.6182 76.8597 38.6182 75.7222V64.9422C38.6182 63.8047 39.5387 62.8842 40.6762 62.8842H45.3242C45.7967 61.3372 46.4197 59.8322 47.1792 58.4077L43.8927 55.1212C43.5077 54.7362 43.2907 54.2112 43.2907 53.6652C43.2907 53.1192 43.5077 52.5942 43.8927 52.2092L51.5157 44.5862C52.3207 43.7812 53.6227 43.7812 54.4242 44.5862L57.7107 47.8727C59.1352 47.1167 60.6367 46.4937 62.1872 46.0212V41.3732C62.1872 40.2357 63.1077 39.3152 64.2452 39.3152H75.0252C76.1627 39.3152 77.0832 40.2357 77.0832 41.3732V46.0212C78.6337 46.4937 80.1352 47.1167 81.5597 47.8727L84.8462 44.5862C85.6512 43.7812 86.9532 43.7812 87.7582 44.5862L95.3812 52.2092C95.7662 52.5942 95.9832 53.1192 95.9832 53.6652C95.9832 54.2112 95.7662 54.7362 95.3812 55.1212L92.0947 58.4077C92.8507 59.8322 93.4737 61.3337 93.9497 62.8842H98.5977C99.7352 62.8842 100.656 63.8047 100.656 64.9422V75.7222C100.656 76.8597 99.7352 77.7802 98.5977 77.7802H93.9497C93.4772 79.3307 92.8542 80.8322 92.0982 82.2567L95.3847 85.5432C96.1897 86.3482 96.1897 87.6502 95.3847 88.4552L87.7617 96.0782C87.3767 96.4632 86.8517 96.6802 86.3057 96.6802C85.7597 96.6802 85.2347 96.4632 84.8497 96.0782L81.5632 92.7917C80.1387 93.5477 78.6372 94.1707 77.0867 94.6467V99.2947C77.0832 100.429 76.1627 101.349 75.0252 101.349ZM66.3032 97.2332H72.9672V94.2617C72.9672 92.6692 74.0347 91.2447 75.5677 90.8037C77.0797 90.3662 78.5427 89.7607 79.9147 89.0047C81.3112 88.2347 83.0752 88.4832 84.2022 89.6137L86.3022 91.7137L91.0167 86.9992L88.9167 84.8992C87.7897 83.7722 87.5377 82.0082 88.3077 80.6117C89.0637 79.2397 89.6692 77.7767 90.1067 76.2647C90.5477 74.7352 91.9722 73.6642 93.5682 73.6642H96.5397V67.0002H93.5682C91.9722 67.0002 90.5512 65.9292 90.1067 64.3997C89.6692 62.8877 89.0637 61.4247 88.3077 60.0527C87.5377 58.6562 87.7862 56.8922 88.9167 55.7652L91.0167 53.6652L86.3022 48.9507L84.2022 51.0507C83.0752 52.1777 81.3112 52.4297 79.9147 51.6597C78.5427 50.9037 77.0797 50.2982 75.5677 49.8607C74.0382 49.4162 72.9672 47.9952 72.9672 46.3992V43.4277H66.3032V46.3992C66.3032 47.9952 65.2357 49.4162 63.7027 49.8607C62.1872 50.2982 60.7277 50.9037 59.3557 51.6597C57.9592 52.4297 56.1987 52.1777 55.0682 51.0507L52.9682 48.9507L48.2537 53.6652L50.3537 55.7652C51.4807 56.8922 51.7327 58.6562 50.9627 60.0527C50.2067 61.4247 49.6012 62.8877 49.1637 64.3997C48.7192 65.9327 47.2982 67.0002 45.7022 67.0002H42.7307V73.6642H45.7022C47.2982 73.6642 48.7192 74.7317 49.1637 76.2647C49.6012 77.7767 50.2067 79.2397 50.9627 80.6117C51.7327 82.0082 51.4842 83.7722 50.3537 84.8992L48.2537 86.9992L52.9682 91.7137L55.0682 89.6137C56.1952 88.4867 57.9557 88.2347 59.3522 89.0047C60.7242 89.7607 62.1872 90.3662 63.6992 90.8037C65.2287 91.2482 66.2997 92.6692 66.2997 94.2652V97.2332H66.3032Z" fill="#7DE140"/>
<path d="M69.6352 81.6652C66.6077 81.6652 63.7622 80.4857 61.6237 78.3472C59.4852 76.2087 58.3057 73.3597 58.3057 70.3357C58.3057 67.3082 59.4852 64.4627 61.6237 62.3242C66.0407 57.9072 73.2297 57.9072 77.6502 62.3242C79.7922 64.4662 80.9682 67.3117 80.9682 70.3357C80.9682 73.3632 79.7887 76.2087 77.6502 78.3472C75.5117 80.4857 72.6627 81.6652 69.6352 81.6652ZM69.6352 63.1187C67.7872 63.1187 65.9392 63.8222 64.5322 65.2292C63.1707 66.5907 62.4182 68.4037 62.4182 70.3322C62.4182 72.2607 63.1707 74.0702 64.5322 75.4352C65.8937 76.8002 67.7067 77.5492 69.6352 77.5492C71.5637 77.5492 73.3732 76.7967 74.7382 75.4352C76.1032 74.0737 76.8522 72.2607 76.8522 70.3322C76.8522 68.4037 76.0997 66.5942 74.7382 65.2292C73.3312 63.8222 71.4832 63.1187 69.6352 63.1187Z" fill="#7DE140"/>
</svg>
