<svg width="118" height="118" viewBox="0 0 118 118" fill="none" xmlns="http://www.w3.org/2000/svg">
<path d="M117.142 58.9999C117.142 48.3879 103.023 39.4874 82.3804 35.6199C78.5129 14.9769 69.6124 0.85791 59.0004 0.85791C48.3884 0.85791 39.4879 14.9769 35.6204 35.6199C14.9774 39.4874 0.858398 48.3879 0.858398 58.9999C0.858398 69.6119 14.9774 78.5124 35.6204 82.3799C39.4879 103.023 48.3884 117.142 59.0004 117.142C69.6124 117.142 78.5129 103.023 82.3804 82.3799C103.023 78.5124 117.142 69.6119 117.142 58.9999ZM44.4264 20.1814C48.4304 10.5704 53.7434 5.05791 59.0004 5.05791C64.2574 5.05791 69.5704 10.5704 73.5744 20.1814C75.3874 24.5319 76.8574 29.4984 77.9494 34.8849C72.0344 34.0204 65.6644 33.5514 59.0004 33.5514C52.3364 33.5514 45.9664 34.0204 40.0514 34.8849C41.1469 29.4949 42.6134 24.5319 44.4264 20.1814ZM80.2524 58.9999C80.2524 65.8669 79.7344 72.5344 78.7439 78.7434C72.5349 79.7339 65.8674 80.2519 59.0004 80.2519C52.1334 80.2519 45.4659 79.7339 39.2569 78.7434C38.2664 72.5344 37.7484 65.8669 37.7484 58.9999C37.7484 52.1329 38.2664 45.4654 39.2569 39.2564C45.4659 38.2659 52.1334 37.7479 59.0004 37.7479C65.8674 37.7479 72.5349 38.2659 78.7439 39.2564C79.7344 45.4654 80.2524 52.1329 80.2524 58.9999ZM20.1819 73.5739C10.5709 69.5699 5.05841 64.2569 5.05841 58.9999C5.05841 53.7429 10.5709 48.4299 20.1819 44.4259C24.5324 42.6129 29.4989 41.1429 34.8854 40.0509C34.0209 45.9659 33.5519 52.3359 33.5519 58.9999C33.5519 65.6639 34.0209 72.0339 34.8854 77.9489C29.4954 76.8534 24.5324 75.3869 20.1819 73.5739ZM73.5744 97.8184C69.5704 107.429 64.2574 112.942 59.0004 112.942C53.7434 112.942 48.4304 107.429 44.4264 97.8184C42.6134 93.4679 41.1434 88.5014 40.0514 83.1149C45.9664 83.9794 52.3364 84.4484 59.0004 84.4484C65.6644 84.4484 72.0344 83.9794 77.9494 83.1149C76.8539 88.5049 75.3874 93.4679 73.5744 97.8184ZM97.8189 73.5739C93.4684 75.3869 88.5019 76.8569 83.1154 77.9489C83.9799 72.0339 84.4489 65.6639 84.4489 58.9999C84.4489 52.3359 83.9799 45.9659 83.1154 40.0509C88.5019 41.1464 93.4649 42.6129 97.8189 44.4259C107.43 48.4299 112.942 53.7429 112.942 58.9999C112.942 64.2569 107.43 69.5699 97.8189 73.5739Z" fill="#7DE140"/>
<path d="M59.0004 117.142C26.9404 117.142 0.858398 91.0599 0.858398 58.9999C0.858398 26.9399 26.9404 0.85791 59.0004 0.85791C91.0604 0.85791 117.142 26.9399 117.142 58.9999C117.142 91.0599 91.0604 117.142 59.0004 117.142ZM59.0004 5.05791C29.2574 5.05791 5.05839 29.2569 5.05839 58.9999C5.05839 88.7429 29.2574 112.942 59.0004 112.942C88.7434 112.942 112.942 88.7429 112.942 58.9999C112.942 29.2569 88.7434 5.05791 59.0004 5.05791Z" fill="#111D40"/>
</svg>
