<svg width="120" height="120" viewBox="0 0 120 120" fill="none" xmlns="http://www.w3.org/2000/svg">
<path d="M41.28 112.422C21.321 112.422 5.08203 96.183 5.08203 76.224C5.08203 62.538 12.669 50.175 24.879 43.953C29.994 41.346 35.511 40.026 41.28 40.026C48.321 40.026 55.152 42.054 61.026 45.891C61.896 46.458 62.139 47.622 61.572 48.492C61.005 49.359 59.841 49.605 58.971 49.038C53.706 45.6 47.589 43.785 41.277 43.785C36.105 43.785 31.161 44.97 26.58 47.304C15.633 52.881 8.83504 63.963 8.83504 76.227C8.83504 94.116 23.388 108.669 41.277 108.669C47.589 108.669 53.706 106.851 58.971 103.416C68.205 97.392 73.719 87.228 73.719 76.227C73.719 75.66 73.704 75.072 73.671 74.478C73.614 73.443 74.409 72.558 75.447 72.501C76.485 72.447 77.367 73.239 77.424 74.277C77.46 74.94 77.478 75.594 77.478 76.23C77.478 88.503 71.328 99.843 61.026 106.563C55.152 110.394 48.321 112.422 41.28 112.422Z" fill="#979DBD"/>
<path d="M78.7205 112.422C71.6795 112.422 64.8485 110.394 58.9745 106.557C48.6725 99.837 42.5225 88.497 42.5225 76.224C42.5225 75.591 42.5405 74.934 42.5765 74.271C42.6335 73.236 43.5155 72.444 44.5535 72.495C45.5885 72.552 46.3835 73.437 46.3295 74.472C46.2965 75.066 46.2815 75.654 46.2815 76.221C46.2815 87.219 51.7955 97.383 61.0295 103.41C66.2945 106.848 72.4115 108.663 78.7235 108.663C96.6125 108.663 111.165 94.11 111.165 76.221C111.165 63.957 104.364 52.875 93.4205 47.298C88.8395 44.964 83.8955 43.779 78.7235 43.779C72.4115 43.779 66.2945 45.597 61.0295 49.032C60.1595 49.599 58.9955 49.356 58.4285 48.486C57.8615 47.616 58.1045 46.455 58.9745 45.885C64.8515 42.048 71.6795 40.02 78.7205 40.02C84.4895 40.02 90.0095 41.34 95.1215 43.947C107.331 50.166 114.918 62.532 114.918 76.218C114.918 96.183 98.6795 112.422 78.7205 112.422Z" fill="#979DBD"/>
<path d="M75.5488 76.251C74.8648 76.251 74.2047 75.876 73.8748 75.225C73.4038 74.301 73.7728 73.17 74.6968 72.699C85.0018 67.449 91.7818 57.039 92.3938 45.528C92.4267 44.931 92.4418 44.343 92.4418 43.776C92.4418 25.887 77.8888 11.334 59.9998 11.334C42.1108 11.334 27.5578 25.887 27.5578 43.776C27.5578 44.343 27.5728 44.931 27.6058 45.525C28.2148 57.039 34.9978 67.449 45.3028 72.699C46.2268 73.17 46.5958 74.301 46.1248 75.225C45.6538 76.149 44.5228 76.518 43.5988 76.047C32.1028 70.191 24.5368 58.572 23.8558 45.726C23.8198 45.066 23.8018 44.409 23.8018 43.776C23.8018 23.817 40.0408 7.578 59.9998 7.578C79.9588 7.578 96.1978 23.817 96.1978 43.776C96.1978 44.409 96.1798 45.066 96.1438 45.729C95.4628 58.575 87.8968 70.191 76.4008 76.047C76.1278 76.185 75.8368 76.251 75.5488 76.251Z" fill="#979DBD"/>
<path d="M60.1681 80.01C50.6971 80.01 43.9411 76.245 43.5181 76.005C42.9151 75.66 42.5521 75.012 42.5731 74.319C43.1131 56.097 58.3741 46.269 59.0251 45.858C59.6341 45.474 60.4081 45.471 61.0201 45.852C76.5841 55.548 77.4511 73.515 77.4781 74.277C77.5051 75.006 77.1091 75.687 76.4611 76.02C70.6411 79.011 65.0461 80.01 60.1681 80.01ZM46.3891 73.239C49.7671 74.784 61.1491 79.053 73.6141 73.233C73.1521 69.384 70.8541 57.09 60.0691 49.716C56.9551 52.041 47.3221 60.243 46.3891 73.239Z" fill="#7DE140"/>
</svg>
