<svg width="55" height="90" viewBox="0 0 55 90" fill="none" xmlns="http://www.w3.org/2000/svg">
<path d="M50.571 67.6392C45.6544 53.2679 39.0982 39.4949 20.4662 21.3276C19.6099 20.488 20.7629 19.359 21.7975 20.0273C36.9547 29.9644 41.7561 40.0368 46.2315 46.5541C46.9196 47.5676 48.4903 47.7606 49.3371 46.9495C53.373 43.098 60.6451 33.3989 45.5959 20.8805C32.2697 9.79632 14.842 3.91785 3.58334 0.714656C1.64472 0.165691 -0.122386 1.5681 0.316299 3.3054C1.96532 9.82607 1.79992 19.1178 5.08815 28.5364C11.8952 48.0356 25.5001 52.9832 39.3127 52.2229C40.2998 52.164 41.253 52.7247 41.5999 53.5704C42.7077 56.2685 46.8066 78.2093 46.6624 82.2004C46.4811 87.5629 61.9327 100.849 50.571 67.6392Z" fill="black"/>
</svg>
