<svg width="1680" height="967" viewBox="0 0 1680 967" fill="none" xmlns="http://www.w3.org/2000/svg">
<g opacity="0.1">
<path d="M968.268 1121.78C933.343 1121.76 898.578 1117.05 864.907 1107.77C773.956 1082.76 700.647 1027.26 663.623 955.471C635.58 901.09 631.146 840.968 651.155 786.171C688.255 684.515 802.625 616.227 935.734 616.227C970.66 616.237 1005.43 620.947 1039.1 630.229C1130.05 655.221 1203.35 710.739 1240.38 782.533C1268.42 836.913 1272.86 897.035 1252.85 951.833C1215.73 1053.47 1101.36 1121.78 968.268 1121.78ZM935.829 618.178C803.553 618.178 689.922 685.955 653.088 786.815C633.268 841.101 637.664 900.654 665.461 954.542C702.239 1025.86 775.15 1081.02 865.513 1105.86C899.017 1115.09 933.61 1119.77 968.362 1119.79C1100.64 1119.79 1214.27 1052.01 1251.1 951.15C1270.92 896.884 1266.53 837.311 1238.73 783.442C1201.95 712.122 1129.04 656.965 1038.68 632.105C1005.17 622.886 970.58 618.202 935.829 618.178Z" fill="#979DBD"/>
<path d="M978.537 1123.25C932.474 1123.24 886.716 1115.77 843.04 1101.14C747.239 1069.13 673.569 1007 640.903 930.605C617.067 874.955 617.522 817.789 642.192 765.266C685.185 673.766 796.39 614.648 925.463 614.648C971.527 614.651 1017.29 622.118 1060.96 636.761C1156.76 668.764 1230.43 730.875 1263.1 807.292C1286.93 862.942 1286.48 920.108 1261.81 972.632C1218.8 1064.13 1107.61 1123.25 978.537 1123.25ZM925.482 616.752C797.186 616.752 686.738 675.49 644.03 766.213C619.606 818.187 619.17 874.804 642.76 929.904C675.199 1005.7 748.452 1067.41 843.608 1099.24C887.078 1113.8 932.618 1121.23 978.461 1121.24C1106.76 1121.24 1217.2 1062.5 1259.89 971.779C1284.34 919.786 1284.77 863.189 1261.18 808.088C1228.73 732.296 1155.49 670.583 1060.24 638.75C1016.79 624.2 971.281 616.772 925.463 616.752H925.482Z" fill="#979DBD"/>
<path d="M991.649 1125.53C933.1 1125.38 875.089 1114.35 820.568 1093.01C720.428 1053.66 647.119 985.121 619.436 905.009C600.128 849.094 605.282 793.425 634.329 743.952C681.983 662.836 788.508 612.453 912.352 612.453C970.898 612.572 1028.91 623.579 1083.43 644.911C1183.57 684.266 1256.88 752.8 1284.57 832.912C1303.87 888.828 1298.72 944.497 1269.67 993.97C1221.94 1075.12 1115.47 1125.53 991.649 1125.53ZM912.352 614.594C789.19 614.594 683.404 664.598 636.11 745.07C607.366 793.974 602.288 849.075 621.388 904.384C648.862 983.965 721.811 1052.01 821.326 1091.15C875.605 1112.4 933.36 1123.37 991.649 1123.52C1114.81 1123.52 1220.6 1073.51 1267.89 993.022C1296.62 944.118 1301.71 889.036 1282.61 833.727C1255.14 754.146 1182.19 686.104 1082.68 646.957C1028.4 625.712 970.641 614.738 912.352 614.594Z" fill="#979DBD"/>
<path d="M1007.6 1128.79C935.167 1128.6 863.589 1113.11 797.565 1083.31C745.326 1059.68 701.177 1029.18 666.351 992.645C633.078 957.743 609.905 918.293 599.313 878.559C584.382 822.549 594.178 768.434 627.64 722.068C678.648 651.392 779.11 609.195 896.398 609.195C968.834 609.369 1040.41 624.867 1106.44 654.67C1158.68 678.298 1202.82 708.805 1237.65 745.336C1270.92 780.238 1294.1 819.688 1304.69 859.422C1319.62 915.432 1309.82 969.547 1276.27 1015.89C1225.33 1086.59 1124.87 1128.79 1007.6 1128.79ZM896.398 611.336C779.792 611.336 679.974 653.192 629.364 723.319C596.281 769.154 586.599 822.663 601.359 878.048C611.856 917.44 634.859 956.568 667.866 991.205C702.522 1027.55 746.444 1057.88 798.437 1081.4C864.186 1111.07 935.468 1126.5 1007.6 1126.66C1124.19 1126.66 1224.03 1084.79 1274.64 1014.66C1307.72 968.827 1317.4 915.337 1302.64 859.952C1292.14 820.56 1269.14 781.432 1236.13 746.795C1201.48 710.453 1157.56 680.099 1105.56 656.584C1039.81 626.928 968.529 611.509 896.398 611.336Z" fill="#979DBD"/>
<path d="M1026.21 1133.22C940.641 1133.22 851.112 1111.51 774.202 1072.08C721.299 1044.98 675.673 1010.17 642.116 971.386C609.639 933.812 588.36 892.411 580.573 851.635C569.867 795.587 584.362 743.063 622.258 699.786C675.313 639.399 768.404 604.781 877.828 604.781C963.397 604.781 1052.91 626.496 1129.84 665.926C1182.72 693.003 1228.37 727.829 1261.92 766.616C1294.4 804.189 1315.68 845.591 1323.47 886.367C1334.15 942.415 1319.68 994.919 1281.78 1038.22C1228.78 1098.58 1135.63 1133.22 1026.21 1133.22ZM877.79 607.017C768.991 607.017 676.431 641.389 623.888 701.283C586.371 744.049 572.122 796.023 582.676 851.313C598.611 934.817 670.576 1016.65 775.168 1070.22C851.851 1109.5 941.02 1131.14 1026.25 1131.14C1135.05 1131.14 1227.59 1096.76 1280.15 1036.85C1317.69 994.086 1331.93 942.225 1321.36 886.841C1305.43 803.337 1233.48 721.501 1128.89 667.935C1052.19 628.58 963.018 607.017 877.79 607.017Z" fill="#979DBD"/>
<path d="M1047.09 1139C945.453 1139 840.083 1110.57 750.365 1059.21C643.138 997.719 573.107 909.896 563.046 824.251C556.433 768.146 575.494 717.252 618.184 677.101C671.731 626.681 756.504 598.922 856.928 598.922C958.546 598.922 1063.93 627.344 1153.65 678.731C1260.88 740.217 1330.89 828.04 1340.97 913.685C1347.59 969.79 1328.5 1020.67 1285.83 1060.83C1232.25 1111.24 1147.48 1139 1047.09 1139ZM856.909 601.215C757.091 601.215 672.849 628.746 619.7 678.769C577.56 718.446 558.725 768.677 565.244 824.042C575.248 908.948 644.825 996.128 751.464 1057.27C840.841 1108.55 945.832 1136.85 1047.05 1136.85C1146.87 1136.85 1231.11 1109.3 1284.26 1059.28C1326.4 1019.62 1345.22 969.392 1338.7 914.026C1328.71 829.12 1259.12 741.941 1152.5 680.777C1063.14 629.447 958.148 601.215 856.909 601.215Z" fill="#979DBD"/>
<path d="M1069.71 1146.28C952.843 1146.28 827.673 1109.27 726.339 1044.74C617.976 975.708 550.881 882.996 546.845 796.726C544.23 740.507 567.991 691.261 615.588 654.294C667.563 613.954 745.23 591.766 834.286 591.766C951.156 591.766 1076.31 628.79 1177.66 693.327C1286.02 762.335 1353.12 855.066 1357.15 941.336C1359.77 997.555 1335.99 1046.8 1288.41 1083.75C1236.44 1124.05 1158.77 1146.28 1069.71 1146.28ZM834.286 594.002C745.723 594.002 668.567 616.057 616.99 656.113C570.018 692.588 546.542 741.17 549.138 796.612C553.117 882.162 619.833 974.192 727.571 1042.8C828.544 1107.11 953.259 1144 1069.71 1144C1158.26 1144 1235.43 1121.93 1287.01 1081.89C1333.98 1045.4 1357.46 996.816 1354.86 941.393C1350.88 855.843 1284.17 763.813 1176.43 695.203C1075.44 630.893 950.74 594.002 834.286 594.002Z" fill="#979DBD"/>
<path d="M1093.44 1155.13C961.199 1155.13 814.902 1107.76 702.18 1028.61C647.648 990.278 603.31 945.921 573.941 900.351C545.519 856.146 530.948 810.689 531.895 768.909C533.183 712.52 561.757 664.942 614.546 631.328C664.341 599.628 732.023 582.859 810.544 582.859C942.8 582.859 1089.08 630.229 1201.82 709.394C1310.41 785.716 1374.07 882.786 1372.1 969.094C1370.82 1025.48 1342.24 1073.06 1289.45 1106.68C1239.66 1138.38 1171.88 1155.13 1093.44 1155.13ZM810.544 585.209C732.554 585.209 665.213 601.845 615.816 633.299C563.709 666.477 535.495 713.392 534.339 768.966C532.445 854.478 595.674 950.866 703.62 1026.66C816.001 1105.63 961.748 1152.78 1093.53 1152.78C1171.52 1152.78 1238.86 1136.14 1288.28 1104.67C1340.39 1071.51 1368.58 1024.59 1369.85 969.019C1371.74 883.506 1308.51 787.118 1200.57 711.327C1088.09 632.351 942.327 585.209 810.544 585.209Z" fill="#979DBD"/>
<path d="M1117.73 1165.62C970.238 1165.62 801.79 1106.31 678.136 1010.84C623.926 968.98 580.725 921.78 553.25 874.543C526.59 828.67 514.502 782.475 518.272 740.941C523.426 684.249 556.964 638.395 615.267 608.306C660.893 584.791 720.106 572.305 786.499 572.305C933.971 572.305 1102.44 631.612 1226.09 727.09C1280.3 768.946 1323.48 816.146 1350.98 863.383C1377.64 909.256 1389.73 955.451 1385.96 996.985C1380.8 1053.68 1347.26 1099.53 1288.96 1129.62C1243.24 1153.19 1184.05 1165.62 1117.73 1165.62ZM786.367 574.806C720.352 574.806 661.519 587.141 616.233 610.485C558.707 640.157 525.605 685.348 520.527 741.225C516.737 782.248 528.788 827.95 555.183 873.387C582.525 920.435 625.499 967.331 679.462 1008.98C802.757 1104.15 970.654 1163.27 1117.63 1163.27C1183.65 1163.27 1242.48 1150.94 1287.77 1127.57C1345.29 1097.92 1378.4 1052.73 1383.47 996.833C1387.26 955.811 1375.21 910.108 1348.8 864.671C1321.48 817.624 1278.5 770.728 1224.54 729.061C1101.24 633.904 933.346 574.806 786.367 574.806Z" fill="#979DBD"/>
<path d="M1141.68 1177.74C979.275 1177.74 787.806 1104.61 653.92 991.411C599.691 945.575 559.18 897.258 533.316 847.804C508.684 800.434 499.059 753.841 505.539 712.8C514.577 655.691 553.269 611.656 617.445 585.432C658.335 568.72 707.088 560.25 762.321 560.25C924.724 560.25 1116.17 633.389 1250.08 746.565C1304.31 792.4 1344.82 840.736 1370.66 890.191C1395.3 937.56 1404.94 984.153 1398.44 1025.19C1389.4 1082.3 1350.71 1126.34 1286.55 1152.56C1245.65 1169.27 1196.91 1177.74 1141.68 1177.74ZM762.321 562.713C707.372 562.713 658.979 571.126 618.317 587.706C554.993 613.589 516.813 656.979 507.926 713.198C501.522 753.69 511.034 799.847 535.457 846.667C560.734 895.136 602.23 944.552 655.455 989.535C788.924 1102.37 979.768 1175.22 1141.62 1175.22C1196.57 1175.22 1244.96 1166.81 1285.63 1150.21C1348.95 1124.35 1387.11 1080.96 1396.02 1024.74C1402.42 984.248 1392.91 938.091 1368.49 891.271C1343.21 842.783 1301.71 793.386 1248.49 748.403C1115.02 635.625 924.175 562.713 762.321 562.713Z" fill="#979DBD"/>
<path d="M1165.1 1191.51C988.2 1191.51 773.179 1102.64 630.065 970.384C577.01 921.385 538.224 870.851 514.672 820.203C492.162 771.772 485.056 724.857 494.132 684.517C507.112 626.877 551.166 584.775 621.557 562.757C656.042 551.976 695.454 546.5 738.94 546.5C915.838 546.5 1130.84 635.366 1273.97 767.622C1327.03 816.622 1365.81 867.156 1389.37 917.804C1411.88 966.235 1418.98 1013.15 1409.91 1053.49C1396.93 1111.13 1352.87 1153.23 1282.48 1175.25C1247.98 1186.03 1208.49 1191.51 1165.1 1191.51ZM738.921 549.039C695.776 549.039 656.535 554.458 622.296 565.183C552.814 586.916 509.347 628.374 496.595 685.066C487.633 724.857 494.701 771.222 516.946 819.142C540.346 869.486 578.981 919.737 631.77 968.527C774.448 1100.39 988.768 1188.97 1165.08 1188.97C1208.22 1188.97 1247.46 1183.53 1281.7 1172.82C1351.19 1151.09 1394.65 1109.63 1407.4 1052.94C1416.37 1013.15 1409.3 966.784 1387.05 918.865C1363.65 868.52 1325.02 818.251 1272.23 769.479C1129.55 637.621 915.212 549.039 738.921 549.039Z" fill="#979DBD"/>
<path d="M1187.46 1206.82C1096.51 1206.82 989.071 1181.43 884.743 1135.33C777.29 1087.96 681.091 1022.98 606.531 947.743C555.106 895.825 518.309 843.358 497.144 791.782C476.927 742.518 472.323 695.527 483.881 656.039C500.934 597.793 550.559 557.832 627.525 540.457C656.78 534.111 686.646 531.016 716.581 531.229C807.531 531.229 914.947 556.619 1019.29 602.701C1126.75 650.184 1222.95 715.062 1297.51 790.285C1348.93 842.184 1385.73 894.669 1406.87 946.246C1427.11 995.51 1431.71 1042.48 1420.14 1081.99C1403.08 1140.23 1353.46 1180.2 1276.49 1197.57C1247.24 1203.92 1217.38 1207.03 1187.46 1206.82ZM716.543 533.787C686.805 533.573 657.136 536.648 628.075 542.958C552.074 560.125 503.018 599.461 486.344 656.759C474.975 695.678 479.561 742.025 499.608 790.778C520.64 841.937 557.247 894.234 608.445 945.905C682.758 1020.94 778.692 1085.61 885.842 1132.96C989.867 1178.91 1097 1204.22 1187.51 1204.22C1217.25 1204.44 1246.92 1201.36 1275.98 1195.05C1351.98 1177.88 1401.04 1138.53 1417.71 1081.25C1429.08 1042.33 1424.49 995.984 1404.45 947.231C1383.42 895.958 1346.81 843.775 1295.61 792.104C1221.3 717.071 1125.36 652.382 1018.19 605.05C914.188 559.101 806.981 533.787 716.543 533.787Z" fill="#979DBD"/>
<path d="M1208.53 1223.6C1111.15 1223.6 994.643 1193.61 880.462 1139.13C765.145 1084.18 659.681 1007.54 583.51 923.486C485.606 815.483 445.986 707.48 474.787 627.349C495.952 568.402 551.488 530.714 635.39 518.55C655.292 515.729 675.372 514.342 695.474 514.4C792.847 514.4 909.358 544.395 1023.54 598.87C1138.86 653.819 1244.32 730.464 1320.49 814.517C1418.39 922.52 1458.01 1030.52 1429.21 1110.65C1408.03 1169.6 1352.51 1207.29 1268.61 1219.45C1248.71 1222.27 1228.63 1223.66 1208.53 1223.6ZM695.474 517.072C675.499 517.011 655.546 518.385 635.769 521.183C552.909 533.272 498.112 570.297 477.288 628.258C448.866 707.48 488.259 814.441 585.481 921.705C661.424 1005.49 766.585 1081.85 881.599 1136.73C995.438 1191.03 1111.53 1220.93 1208.53 1220.93C1228.5 1220.99 1248.45 1219.62 1268.23 1216.82C1351.09 1204.73 1405.89 1167.71 1426.69 1109.74C1455.12 1030.52 1415.72 923.562 1318.52 816.298C1242.58 732.51 1137.42 656.15 1022.38 601.276C908.562 546.972 792.468 517.072 695.474 517.072Z" fill="#979DBD"/>
<path d="M1228.14 1241.77C1124.36 1241.77 998.98 1206.7 875.08 1142.98C750.573 1078.97 639.064 991.867 561.113 897.696C468.04 785.296 433.726 676.232 466.96 598.47C479.333 569.498 500.631 546.117 530.246 528.931C560.79 511.195 599.501 500.509 645.279 497.288C655.17 496.586 665.459 496.227 675.861 496.227C779.639 496.227 905.018 531.299 1028.92 595.002C1153.42 659.027 1264.93 746.131 1342.89 840.302C1435.96 952.701 1470.27 1061.77 1437.04 1139.53C1424.65 1168.48 1403.37 1191.88 1373.75 1209.07C1343.21 1226.8 1304.5 1237.49 1258.72 1240.71C1248.83 1241.41 1238.54 1241.77 1228.14 1241.77ZM675.861 499.012C665.516 499.012 655.303 499.372 645.545 500.073C600.183 503.313 561.889 513.829 531.686 531.356C502.601 548.22 481.702 571.147 469.537 599.569C436.719 676.346 470.883 784.387 563.292 895.971C640.978 989.858 752.222 1076.72 876.406 1140.57C999.928 1204.08 1124.87 1239.1 1228.21 1239.1C1238.56 1239.1 1248.77 1238.74 1258.53 1238.04C1303.89 1234.8 1342.18 1224.28 1372.39 1206.76C1401.47 1189.87 1422.37 1166.96 1434.52 1138.54C1467.34 1061.77 1433.17 953.725 1340.78 842.14C1263.1 748.253 1151.85 661.377 1027.67 597.541C904.146 533.933 779.204 499.012 675.861 499.012Z" fill="#979DBD"/>
<path d="M1246.18 1261.23C1019.05 1261.23 702.029 1085.9 539.418 870.409C451.803 754.258 423.002 644.55 460.386 569.402C490.021 509.792 559.901 476.898 657.142 476.766H657.767C884.896 476.766 1201.91 652.091 1364.53 867.586C1452.14 983.737 1480.94 1093.45 1443.56 1168.59C1413.92 1228.18 1344.04 1261.1 1246.8 1261.23H1246.18ZM657.824 479.57H657.293C561.17 479.703 492.181 512.047 463.039 570.653C426.147 644.815 454.872 753.462 541.806 868.723C703.886 1083.61 1019.92 1258.43 1246.27 1258.43H1246.9C1343 1258.29 1411.99 1225.95 1441.15 1167.34C1478.02 1093.18 1449.32 984.533 1362.38 869.272C1200.21 654.384 884.176 479.57 657.824 479.57Z" fill="#979DBD"/>
<path d="M1262.15 1281.85C1252.68 1281.85 1242.77 1281.52 1232.76 1280.88C994.15 1265.34 673.798 1068.32 518.765 841.685C478.103 782.246 451.898 725.724 440.908 673.693C430.26 623.272 434.352 579.673 453.092 544.146C467.871 516.122 491.329 494.313 522.801 479.325C555.127 463.939 595.182 456.133 641.832 456.133C651.306 456.133 661.216 456.474 671.239 457.118C909.851 472.655 1230.2 669.676 1385.24 896.312C1425.9 955.733 1452.1 1012.25 1463.09 1064.29C1473.74 1114.73 1469.63 1158.31 1450.89 1193.85C1436.11 1221.88 1412.65 1243.69 1381.18 1258.67C1348.89 1273.98 1308.82 1281.85 1262.15 1281.85ZM641.832 459.013C595.599 459.013 555.979 466.725 524.052 481.921C493.148 496.643 470.126 518.036 455.65 545.491C418 616.868 441.875 724.227 521.153 840.075C675.787 1066.07 995.117 1262.61 1232.95 1278C1242.9 1278.64 1252.73 1278.99 1262.15 1278.99C1308.38 1278.99 1348.02 1271.27 1379.95 1256.06C1410.85 1241.35 1433.86 1220.06 1448.35 1192.51C1486 1121.13 1462.13 1013.77 1382.85 897.923C1228.21 671.931 908.885 475.384 671.05 459.998C661.083 459.354 651.268 459.013 641.832 459.013Z" fill="#979DBD"/>
<path d="M1275.62 1303.49C1255.88 1303.41 1236.17 1302.08 1216.6 1299.49C967.205 1267.28 645.336 1048.49 499.134 811.601C462.337 751.972 439.296 695.848 430.675 644.859C422.319 595.386 427.795 552.886 446.951 518.552C477.59 463.603 540.327 434.594 628.359 434.594C648.104 434.669 667.825 436.004 687.401 438.592C936.793 470.803 1258.66 689.595 1404.86 926.482C1441.66 986.112 1464.68 1042.24 1473.3 1093.22C1481.68 1142.7 1476.2 1185.2 1457.05 1219.51C1426.39 1274.44 1363.67 1303.49 1275.62 1303.49ZM628.359 437.568C541.463 437.568 479.617 465.99 449.528 520.011C430.713 553.738 425.35 595.594 433.593 644.385C442.157 695.071 465.046 750.835 501.654 810.142C647.439 1046.37 968.341 1264.63 1216.98 1296.67C1236.42 1299.23 1256.01 1300.56 1275.62 1300.63C1362.53 1300.63 1424.36 1272.21 1454.47 1218.19C1473.29 1184.46 1478.65 1142.6 1470.41 1093.79C1461.84 1043.11 1438.95 987.343 1402.34 928.055C1256.54 691.831 935.656 473.57 687.021 441.529C667.573 438.932 647.979 437.577 628.359 437.474V437.568Z" fill="#979DBD"/>
<path d="M1286.65 1325.94C1256.97 1325.7 1227.39 1322.69 1198.28 1316.94C938.689 1267.49 616.858 1026.71 480.717 780.202C415.745 662.535 402.045 560.406 442.12 492.402C473.138 439.84 533.734 412.062 617.351 412.062C647.025 412.294 676.612 415.307 705.724 421.063C965.311 470.498 1287.14 711.288 1423.28 957.801C1488.25 1075.47 1501.95 1177.6 1461.86 1245.6C1430.84 1298.16 1370.27 1325.94 1286.65 1325.94ZM617.351 415.075C534.87 415.075 475.241 442.36 444.735 493.936C405.209 560.917 418.947 662.043 483.37 778.724C619.132 1024.55 940.015 1264.66 1198.84 1313.97C1227.77 1319.67 1257.17 1322.67 1286.65 1322.91C1369.13 1322.91 1428.76 1295.64 1459.26 1244.05C1498.77 1177.09 1485.05 1075.94 1420.63 959.279C1284.87 713.449 963.984 473.34 705.155 424.038C676.231 418.314 646.835 415.313 617.351 415.075Z" fill="#979DBD"/>
<path d="M1295.25 1349.07C1259.63 1349.07 1220.1 1343.69 1177.77 1333.06C908.903 1265.65 588.493 1002.99 463.74 747.572C406.896 631.269 398.009 531.262 438.748 466.005C470.239 415.566 529.034 388.906 608.786 388.906C644.409 388.906 683.934 394.287 726.264 404.917C995.116 472.334 1315.43 734.99 1440.3 990.409C1497.14 1106.71 1506.03 1206.7 1465.27 1271.97C1433.8 1322.41 1375 1349.07 1295.25 1349.07ZM608.748 392.033C530.114 392.033 472.323 418.181 441.362 467.654C401.193 532.077 410.117 630.928 466.487 746.189C590.994 1000.87 910.4 1262.79 1178.49 1330.01C1220.62 1340.57 1259.97 1345.93 1295.25 1345.93C1373.87 1345.93 1431.68 1319.78 1462.64 1270.29C1502.79 1205.87 1493.86 1107.03 1437.51 991.754C1313.01 737.056 993.6 475.157 725.506 407.93C683.384 397.395 644.03 392.033 608.748 392.033Z" fill="#979DBD"/>
<path d="M1301.52 1372.7C1257.81 1372.7 1208.53 1364.31 1155.07 1347.73C877.695 1261.72 560.621 977.372 448.316 713.863C399.563 599.531 395.508 502.063 436.947 439.421C468.988 390.914 526.306 365.297 602.685 365.297C646.417 365.297 695.701 373.691 749.153 390.27C1026.53 476.275 1343.59 760.627 1455.91 1024.14C1504.66 1138.47 1508.74 1235.94 1467.28 1298.58C1435.18 1347.07 1377.86 1372.7 1301.52 1372.7ZM602.571 368.461C527.31 368.461 470.921 393.605 439.487 441.164C398.711 502.878 402.879 599.266 451.196 712.594C563.235 975.345 879.42 1258.9 1156.06 1344.66C1209.21 1361.14 1258.17 1369.5 1301.56 1369.5C1376.84 1369.5 1433.23 1344.36 1464.65 1296.8C1505.42 1235.08 1501.27 1138.7 1452.95 1025.37C1340.9 762.616 1024.73 479.06 748.092 393.302C694.886 376.836 645.924 368.48 602.515 368.48L602.571 368.461Z" fill="#979DBD"/>
<path d="M1305.31 1396.69C1253.6 1396.69 1194.64 1384.6 1130.04 1360.69C845.104 1255.55 533.032 949.785 434.389 679.076C413.546 622.081 403.428 569.936 404.072 524.139C404.735 479.725 415.573 442.208 436.283 412.63C468.969 365.924 525.092 341.234 598.554 341.234C650.263 341.234 709.228 353.323 773.822 377.235C1058.76 482.378 1370.83 788.14 1469.48 1058.85C1490.32 1115.84 1500.42 1167.97 1499.79 1213.79C1499.11 1258.2 1488.27 1295.72 1467.58 1325.3C1434.92 1372 1378.81 1396.69 1305.31 1396.69ZM598.554 344.588C526.21 344.588 471.015 368.785 438.955 414.582C418.643 443.61 408.013 480.521 407.35 524.252C406.649 569.727 416.824 621.399 437.401 678.034C535.76 947.947 846.961 1252.86 1131.1 1357.7C1195.34 1381.4 1253.92 1393.41 1305.25 1393.41C1377.6 1393.41 1432.77 1369.22 1464.83 1323.42C1485.15 1294.39 1495.8 1257.48 1496.46 1213.73C1497.14 1168.25 1486.98 1116.6 1466.41 1059.97C1368.05 790.054 1056.85 485.144 772.704 380.305C708.565 356.601 649.959 344.588 598.648 344.588H598.554Z" fill="#979DBD"/>
<path d="M1306.89 1420.85C1247.24 1420.85 1178.61 1404.42 1102.93 1372.04C811.453 1247.29 506.202 920.492 422.49 643.549C389.16 533.272 394.39 444.217 437.648 386.009C471.091 340.95 526.249 317.133 597.152 317.133C656.8 317.133 725.429 333.561 801.108 365.962C1092.58 490.715 1397.82 817.51 1481.53 1094.45C1514.88 1204.73 1509.65 1293.79 1466.37 1351.99C1432.95 1397.15 1377.79 1420.85 1306.89 1420.85ZM597.114 320.506C527.31 320.506 473.081 343.849 440.301 387.998C397.744 445.335 392.685 533.367 425.711 642.583C509.082 918.692 813.556 1244.54 1104.26 1368.95C1179.52 1401.16 1247.69 1417.5 1306.89 1417.5C1376.69 1417.5 1430.9 1394.15 1463.7 1350C1506.26 1292.67 1511.3 1204.64 1478.29 1095.42C1394.82 819.31 1090.42 493.462 799.743 369.05C724.482 336.839 656.307 320.506 597.114 320.506Z" fill="#979DBD"/>
<path d="M1306.13 1445.04C1238.46 1445.04 1160.23 1423.63 1073.62 1381.4C776.704 1236.62 480.168 889.32 412.581 607.185C387.039 500.584 396.703 414.901 440.491 359.365C474.768 315.917 529.187 293.047 597.854 293.047C665.536 293.047 743.753 314.458 830.383 356.693C1127.3 501.474 1423.83 848.771 1491.4 1130.91C1516.94 1237.51 1507.3 1323.19 1463.51 1378.71C1429.21 1422.08 1374.81 1445.04 1306.13 1445.04ZM597.854 296.382C530.286 296.382 476.796 318.911 443.201 361.506C400.075 416.171 390.658 500.849 415.935 606.389C483.295 887.633 779.015 1233.93 1075.11 1378.31C1161.27 1420.3 1239 1441.6 1306.13 1441.6C1373.72 1441.6 1427.19 1419.09 1460.8 1376.49C1503.91 1321.83 1513.34 1237.15 1488.07 1131.61C1420.69 850.363 1124.99 504.07 828.886 359.687C742.73 317.679 665.006 296.382 597.854 296.382Z" fill="#979DBD"/>
<path d="M1303.11 1469.15C1228.35 1469.15 1138.1 1441.33 1042.14 1388.71C740.986 1223.58 455.099 856.428 404.849 570.258C386.849 467.825 400.794 385.78 445.132 332.972C480.338 291.06 534.188 268.891 600.884 268.891C675.653 268.891 765.902 296.706 861.854 349.325C1163.01 514.456 1448.9 881.61 1499.15 1167.88C1517.13 1270.31 1503.2 1352.35 1458.87 1405.16C1423.66 1446.96 1369.74 1469.15 1303.11 1469.15ZM600.884 272.434C535.268 272.434 482.346 294.148 447.842 335.246C404.262 387.22 390.524 468.28 408.317 569.651C458.339 854.875 743.506 1220.93 1043.83 1385.59C1139.25 1437.92 1228.91 1465.59 1303.1 1465.59C1368.71 1465.59 1421.63 1443.87 1456.14 1402.77C1499.72 1350.78 1513.46 1269.74 1495.64 1168.37C1445.56 883.126 1160.47 517.09 860.13 352.413C764.709 300.06 675.066 272.415 600.884 272.415V272.434Z" fill="#979DBD"/>
<path d="M1297.85 1492.91C1214.78 1492.91 1114.75 1458.63 1008.57 1393.77C861.249 1303.79 716.771 1164.73 601.738 1002.16C486.705 839.586 414.816 672.881 399.431 532.818C388.687 435.028 406.707 356.868 451.556 306.826C487.747 266.429 541.199 245.094 606.153 245.094C689.201 245.094 789.247 279.371 895.431 344.23C1042.75 434.194 1187.23 573.272 1302.26 735.827C1417.29 898.381 1489.16 1065.12 1504.57 1205.19C1515.31 1302.98 1497.29 1381.14 1452.44 1431.18C1416.25 1471.56 1362.78 1492.91 1297.85 1492.91ZM606.134 248.713C542.241 248.713 489.717 269.556 454.228 309.251C410.098 358.516 392.382 435.672 403.068 532.42C434.73 820.429 707.221 1205.45 1010.48 1390.76C1116.12 1455.19 1215.5 1489.29 1297.89 1489.29C1361.76 1489.29 1414.3 1468.35 1449.77 1428.66C1493.92 1379.39 1511.64 1302.24 1500.93 1205.49C1469.29 917.48 1196.8 532.458 893.536 347.147C787.92 282.819 688.538 248.713 606.134 248.713Z" fill="#979DBD"/>
<path d="M1290.38 1516.27C1198.69 1516.27 1088.93 1474.85 972.928 1396.5C824.85 1296.47 683.347 1147.66 574.491 977.466C465.635 807.276 402.368 635.911 396.494 495.108C392.704 402.263 414.513 328.366 459.818 280.997C497.07 242.153 550.237 221.633 613.618 221.633C705.288 221.633 815.073 263.053 931.072 341.403C1079.15 441.429 1220.65 590.246 1329.51 760.417C1438.37 930.589 1501.61 1101.99 1507.51 1242.79C1511.3 1335.64 1489.49 1409.54 1444.18 1456.91C1406.93 1495.67 1353.74 1516.27 1290.38 1516.27ZM613.713 225.441C551.374 225.441 499.116 245.583 462.603 283.668C418 330.148 396.475 403.211 400.302 494.938C412.391 784.443 670.254 1187.5 975.107 1393.41C1090.48 1471.36 1199.55 1512.56 1290.48 1512.56C1352.8 1512.56 1405.05 1492.41 1441.59 1454.33C1486.17 1407.85 1507.72 1334.79 1503.89 1243.06C1491.78 953.554 1233.94 550.493 929.083 344.586C813.595 266.634 704.55 225.441 613.713 225.441Z" fill="#979DBD"/>
<path d="M1280.78 1539.05C1180.03 1539.05 1060.58 1489.78 935.317 1396.75C787.163 1286.62 649.506 1128.31 547.68 950.94C445.854 773.568 392.022 598.167 396.096 457.27C398.541 374.449 420.501 309.647 461.372 264.646C500.405 221.672 556.339 198.953 623.149 198.953C723.877 198.953 843.343 248.218 968.608 341.252C1116.76 451.359 1254.42 609.688 1356.23 787.059C1458.03 964.431 1511.9 1139.83 1507.81 1280.73C1505.37 1363.55 1483.4 1428.35 1442.55 1473.35C1403.52 1516.33 1347.57 1539.05 1280.78 1539.05ZM623.282 202.762C557.59 202.762 502.622 225.044 464.328 267.185C424.101 311.485 402.463 375.453 400.056 457.346C391.492 746.947 632.661 1166.97 937.666 1393.64C1062.25 1486.24 1180.92 1535.2 1280.83 1535.2C1346.53 1535.2 1401.49 1512.9 1439.79 1470.78C1480.01 1426.48 1501.63 1362.51 1504.06 1280.62C1512.6 991.015 1271.43 570.996 966.448 344.322C841.789 251.704 723.138 202.762 623.187 202.762H623.282Z" fill="#979DBD"/>
<path d="M1269.07 1561.11C1160.34 1561.11 1027.78 1501.89 895.791 1394.36C748.3 1274.2 615.361 1106.64 521.474 922.561C427.587 738.482 383.893 559.746 398.616 419.456C414.779 265.276 500.935 176.922 634.897 176.922C743.639 176.922 876.199 236.134 1008.17 343.664C1155.66 463.832 1288.6 631.369 1382.49 815.467C1476.38 999.566 1520.05 1178.3 1505.35 1318.59C1489.11 1472.7 1403.07 1561.11 1269.07 1561.11ZM634.916 180.806C503.171 180.806 418.455 267.967 402.519 419.91C372.203 708.165 594.689 1143.95 898.292 1391.33C1029.54 1498.29 1161.23 1557.18 1269.07 1557.18C1400.83 1557.18 1485.53 1470.02 1501.46 1318.1C1531.78 1029.84 1309.31 594.061 1005.71 346.676C874.437 239.715 742.767 180.806 634.916 180.806Z" fill="#979DBD"/>
<path d="M1255.38 1582.31C1136.56 1582.31 994.188 1513.74 854.503 1389.25C708.453 1259.08 581.142 1082.65 496.065 892.51C410.989 702.367 378.209 520.921 403.978 381.976C417.583 308.572 446.498 251.576 489.907 212.563C531.915 174.837 585.31 155.719 648.615 155.719C767.438 155.719 909.812 224.291 1049.5 348.779C1195.55 478.952 1322.84 655.376 1407.93 845.519C1493.03 1035.66 1525.77 1217.11 1500.02 1356.05C1486.42 1429.46 1457.5 1486.45 1414.07 1525.45C1372.07 1563.17 1318.69 1582.31 1255.38 1582.31ZM648.615 159.717C586.333 159.717 533.847 178.513 492.598 215.557C449.851 253.964 421.373 310.201 407.92 382.696C355.017 668.128 556.547 1118.31 857.175 1386.26C996.12 1510.08 1137.6 1578.29 1255.38 1578.29C1317.67 1578.29 1370.15 1559.5 1411.38 1522.45C1454.13 1484.05 1482.63 1427.71 1496.06 1355.31C1548.96 1069.88 1347.43 619.697 1046.83 351.754C907.861 227.93 766.453 159.717 648.615 159.717Z" fill="#979DBD"/>
<path d="M1239.77 1602.51C1176.77 1602.51 1108.08 1583.84 1035.68 1547.05C960.839 1509 885.407 1453.22 811.51 1381.25C667.695 1241.21 546.959 1056.33 471.565 860.695C396.171 665.057 375.101 481.736 412.353 344.894C449.112 209.871 538.565 135.5 664.209 135.5C727.23 135.5 795.897 154.164 868.316 190.961C943.16 229.008 1018.57 284.791 1092.49 356.755C1236.3 496.799 1357.02 681.674 1432.42 877.312C1507.81 1072.95 1528.9 1256.27 1491.65 1393.11C1454.87 1528.14 1365.43 1602.51 1239.77 1602.51ZM664.209 139.631C540.592 139.631 452.56 212.902 416.332 345.974C339.82 626.972 518.385 1090.06 814.39 1378.3C887.984 1449.98 963.074 1505.51 1037.56 1543.37C1109.37 1579.86 1177.41 1598.32 1239.77 1598.32C1363.41 1598.32 1451.44 1525.05 1487.67 1391.98C1564.16 1110.98 1385.59 647.871 1089.61 359.654C1016 287.974 940.924 232.438 866.44 194.58C794.608 158.124 726.566 139.631 664.209 139.631Z" fill="#979DBD"/>
<path d="M1222.4 1621.58C1154.03 1621.58 1080.12 1600.27 1002.71 1558.26C922.716 1514.85 843.381 1451.6 766.945 1370.28C626.2 1220.59 513.043 1027.68 448.184 827.246C383.325 626.815 374.685 442.432 423.874 308.489C469.349 184.627 560.867 116.414 681.566 116.414C749.93 116.414 823.846 137.712 901.362 179.738C981.36 223.148 1060.7 286.396 1137.13 367.721C1277.88 517.409 1391.03 710.319 1455.87 910.731C1520.71 1111.14 1529.37 1295.56 1480.18 1429.53C1434.65 1553.37 1343.21 1621.58 1222.4 1621.58ZM681.585 120.64C562.781 120.64 472.665 187.867 427.834 309.929C326.898 584.864 480.395 1059.23 770.034 1367.38C846.167 1448.38 925.123 1511.38 1004.72 1554.54C1081.52 1596.23 1154.75 1617.36 1222.4 1617.36C1341.22 1617.36 1431.34 1550.13 1476.15 1428.07C1577.08 1153.13 1423.59 678.77 1133.97 370.62C1057.83 289.617 978.878 226.615 899.278 183.452C822.482 141.766 749.248 120.64 681.585 120.64Z" fill="#979DBD"/>
<path d="M1203.39 1639.41C1051.45 1639.41 875.591 1536.2 720.957 1356.23C584.153 1197.07 479.428 996.733 426.089 792.247C372.751 587.76 377.166 403.169 438.652 272.959C465.71 215.623 502.601 171.512 548.266 141.821C592.433 113.114 643.688 98.5625 700.607 98.5625C852.551 98.5625 1028.41 201.791 1183.04 381.758C1319.84 540.921 1424.55 741.258 1477.91 945.744C1531.27 1150.23 1526.83 1334.82 1465.35 1465.05C1438.27 1522.37 1401.4 1566.48 1355.71 1596.17C1311.56 1624.86 1260.31 1639.41 1203.39 1639.41ZM700.607 102.996C644.54 102.996 594.082 117.321 550.634 145.553C505.652 174.79 469.291 218.313 442.631 274.892C316.457 542.058 442.82 1025.93 724.311 1353.48C878.13 1532.5 1052.77 1635.17 1203.45 1635.17C1259.51 1635.17 1309.97 1620.86 1353.42 1592.63C1398.4 1563.39 1434.76 1519.87 1461.42 1463.29C1587.58 1196.12 1461.22 712.248 1179.74 384.695C1025.92 205.58 851.281 102.996 700.607 102.996Z" fill="#979DBD"/>
<path d="M1182.91 1655.92C1103.65 1655.92 1016.17 1627.99 929.708 1575.13C839.288 1519.82 753.151 1440.37 673.702 1339.02C541.73 1170.64 446.459 963.524 405.456 755.798C364.453 548.072 382.719 364.182 456.786 238.519C487.235 186.905 525.908 147.285 571.762 120.739C616.1 95.0831 666.35 82.0469 721.091 82.0469C800.331 82.0469 887.833 109.995 974.292 162.841C1064.71 218.169 1150.85 297.618 1230.3 398.97C1362.27 567.342 1457.54 774.462 1498.54 982.188C1539.55 1189.91 1521.28 1373.8 1447.21 1499.47C1416.75 1551.08 1378.07 1590.7 1332.24 1617.23C1287.88 1642.9 1237.65 1655.92 1182.91 1655.92ZM721.091 86.5188C610.245 86.5188 520.243 139.876 460.613 240.793C308.537 498.485 405.664 989.9 677.207 1336.27C756.334 1437.2 842.054 1516.27 932.038 1571.34C1017.72 1623.77 1104.46 1651.47 1182.91 1651.47C1293.75 1651.47 1383.76 1598.13 1443.37 1497.21C1595.44 1239.52 1498.32 748.105 1226.79 401.737C1147.67 300.801 1061.95 221.731 971.962 166.668C886.279 114.239 799.516 86.5188 721.091 86.5188Z" fill="#979DBD"/>
<path d="M1161.16 1670.98C982.876 1670.98 782.578 1539.23 625.348 1318.55C499.117 1141.36 414.268 928.087 386.452 717.897C358.637 507.708 391.246 325.561 478.35 205.375C543.985 114.803 635.428 66.9219 742.825 66.9219C921.106 66.9219 1121.42 198.686 1278.65 419.354C1404.89 596.536 1489.72 809.814 1517.53 1020C1545.35 1230.19 1512.74 1412.34 1425.63 1532.53C1360 1623.12 1268.55 1670.98 1161.16 1670.98ZM742.825 71.5643C636.963 71.5643 546.79 118.782 482.045 208.122C395.642 327.361 363.298 508.22 390.981 717.367C418.664 926.514 503.247 1139.3 629.062 1315.88C785.439 1535.37 984.354 1666.41 1161.16 1666.41C1267.02 1666.41 1357.19 1619.19 1421.94 1529.87C1508.36 1410.62 1540.69 1229.78 1513 1020.61C1485.32 811.443 1400.74 598.696 1274.94 422.12C1118.54 202.627 919.628 71.5643 742.825 71.5643Z" fill="#979DBD"/>
<path d="M1138.42 1684.53C1045.06 1684.53 944.544 1649.68 847.72 1583.72C748.073 1515.81 654.129 1415.88 576.064 1294.73C456.502 1109.15 383.079 890.456 369.285 678.921C355.491 467.386 403.126 287.817 503.436 173.959C572.881 95.1352 663.528 53.4688 765.581 53.4688C858.938 53.4688 959.456 88.3329 1056.26 154.291C1155.93 222.181 1249.87 322.132 1327.94 443.285C1447.48 628.861 1520.92 847.558 1534.7 1059.09C1548.47 1270.63 1500.86 1450.22 1400.55 1564.07C1331.1 1642.88 1240.45 1684.53 1138.42 1684.53ZM765.581 58.1299C664.911 58.1299 575.476 99.2469 506.942 177.047C456.711 234.062 419.781 307.655 397.044 395.801C375.083 481.067 367.333 576.186 374.003 678.599C387.74 889.376 460.917 1107.28 580.043 1292.19C657.729 1412.83 751.257 1512.31 850.411 1579.84C946.439 1645.27 1046.05 1679.85 1138.42 1679.85C1239.07 1679.85 1328.51 1638.73 1397.04 1560.95C1447.27 1503.93 1484.2 1430.32 1506.94 1342.19C1528.9 1256.93 1536.67 1161.81 1529.98 1059.38C1516.26 848.619 1443.08 630.718 1323.96 445.805C1246.27 325.163 1152.74 225.687 1053.59 158.137C957.599 92.7099 857.99 58.1299 765.581 58.1299Z" fill="#979DBD"/>
<path d="M1114.94 1696.52C904.792 1696.52 679.14 1532.15 526.079 1267.54C414.135 1074.08 353.084 850.686 354.126 638.735C354.638 535.582 369.853 440.691 399.355 356.714C429.937 269.553 474.579 198.176 532.086 144.269C603.822 77.0229 692.688 41.4766 789.039 41.4766C999.209 41.4766 1224.84 205.85 1377.92 470.458C1489.85 663.917 1550.92 887.313 1549.86 1099.26C1549.34 1202.42 1534.13 1297.31 1504.63 1381.29C1474.06 1468.35 1429.4 1539.82 1371.9 1593.73C1300.16 1660.98 1211.31 1696.52 1114.94 1696.52ZM789.039 46.2704C693.92 46.2704 606.21 81.3809 535.382 147.774C478.444 201.151 434.2 271.978 403.884 358.305C374.571 441.676 359.451 536.132 358.939 638.735C357.878 849.928 418.72 1072.38 530.228 1265.12C682.456 1528.25 906.497 1691.69 1114.94 1691.69C1210.06 1691.69 1297.77 1656.6 1368.6 1590.21C1425.44 1536.83 1469.78 1466 1500.1 1379.68C1529.41 1296.19 1544.53 1201.85 1545.04 1099.25C1546.1 888.052 1485.28 665.603 1373.77 472.864C1221.54 209.734 997.485 46.2704 789.039 46.2704Z" fill="#979DBD"/>
<path d="M1091.09 1706.88C980.62 1706.88 865.246 1664.12 757.47 1583.23C646.909 1500.24 549.422 1380.48 475.563 1236.94C372.221 1036.09 324.491 809.034 341.165 597.575C349.275 494.687 372.221 401.066 409.378 319.343C447.88 234.608 500.025 166.433 564.353 116.6C637.757 59.7564 721.375 31.0312 812.893 31.0312C923.379 31.0312 1038.73 73.7968 1146.51 154.705C1257.07 237.696 1354.56 357.448 1428.44 500.997C1531.78 701.845 1579.51 928.879 1562.81 1140.36C1554.7 1243.24 1531.76 1336.85 1494.6 1418.59C1456.1 1503.31 1403.96 1571.5 1339.61 1621.33C1266.22 1678.1 1182.61 1706.88 1091.09 1706.88ZM812.893 36.0335C722.492 36.0335 639.898 64.4554 567.366 120.56C503.682 169.825 452.03 237.393 413.887 321.408C376.977 402.619 354.164 495.73 346.111 598.048C329.493 808.598 377.034 1034.72 479.959 1234.7C553.496 1377.59 650.49 1496.75 760.388 1579.31C867.293 1659.55 981.643 1701.97 1091.03 1701.97C1181.43 1701.97 1264.04 1673.55 1336.56 1617.45C1400.24 1568.18 1451.89 1500.61 1490.04 1416.6C1526.93 1335.39 1549.74 1242.28 1557.81 1139.96C1574.41 929.391 1526.87 703.285 1423.95 503.309C1350.43 360.403 1253.41 241.24 1143.52 158.702C1036.63 78.3632 922.299 36.0335 812.893 36.0335Z" fill="#979DBD"/>
<path d="M1067.25 1715.64C946.8 1715.64 823.108 1668.52 709.552 1579.39C593.307 1488.13 494.835 1357.94 424.784 1202.89C330.992 995.317 297.529 765.441 330.575 555.611C346.662 453.52 377.623 361.717 422.643 282.761C469.293 200.925 529.055 136.54 600.261 91.3868C672.49 45.5707 752.053 22.3594 836.731 22.3594C957.202 22.3594 1080.89 69.464 1194.45 158.614C1310.69 249.867 1409.17 380.059 1479.22 535.11C1573.01 742.684 1606.45 972.561 1573.41 1182.37C1557.34 1284.48 1526.36 1376.27 1481.34 1455.22C1434.69 1537.06 1374.93 1601.44 1303.72 1646.6C1231.42 1692.41 1151.93 1715.64 1067.25 1715.64ZM836.731 27.3806C753.038 27.3806 674.385 50.3266 602.97 95.5932C532.465 140.31 473.272 204.089 427.039 285.205C382.322 363.631 351.55 454.865 335.577 556.35C302.683 765.195 335.994 994.048 429.388 1200.75C499.098 1355.06 597.059 1484.59 712.66 1575.35C825.324 1663.78 947.937 1710.53 1067.25 1710.53C1150.96 1710.53 1229.6 1687.56 1301.01 1642.31C1371.52 1597.6 1430.71 1533.8 1476.94 1452.68C1521.66 1374.26 1552.43 1283.04 1568.41 1181.56C1601.3 972.693 1567.99 743.859 1474.61 537.156C1404.89 382.844 1306.92 253.297 1191.32 162.555C1078.68 74.1633 956.065 27.4186 836.731 27.4186V27.3806Z" fill="#979DBD"/>
<path d="M1043.83 1722.79C978.327 1722.79 911.877 1709.75 846.317 1684.06C781.458 1658.63 718.721 1621.28 659.869 1573.08C537.731 1473.05 438.841 1332.08 373.888 1165.38C290.631 951.721 272.384 720.101 322.482 513C346.868 412.254 386.147 322.82 439.201 247.18C494.15 168.792 561.681 108.727 639.765 68.6522C707.845 33.4461 783.391 15.1203 860.035 15.2191C925.557 15.2191 992.008 28.2363 1057.55 53.9486C1122.41 79.3768 1185.14 116.723 1244.02 164.927C1366.13 264.934 1465.02 405.926 1530 572.63C1613.23 786.286 1631.5 1017.91 1581.38 1225.01C1557 1325.73 1517.74 1415.17 1464.66 1490.81C1409.72 1569.2 1342.18 1629.26 1264.1 1669.36C1196.02 1704.56 1120.47 1722.89 1043.83 1722.79ZM860.035 20.4109C784.213 20.3064 709.478 38.4378 642.134 73.2757C564.807 113.066 497.959 172.487 443.465 250.174C390.77 325.264 351.757 414.111 327.522 514.213C277.67 720.234 295.841 950.83 378.682 1163.5C443.313 1329.37 541.634 1469.61 663.109 1568.99C721.564 1616.85 783.827 1653.91 848.174 1679.15C913.127 1704.62 978.915 1717.52 1043.79 1717.52C1119.61 1717.62 1194.35 1699.49 1261.69 1664.66C1339.02 1624.96 1405.87 1565.44 1460.38 1487.76C1513.08 1412.65 1552.07 1323.82 1576.31 1223.7C1626.16 1017.68 1607.99 787.101 1525.15 574.449C1460.51 408.559 1362.19 268.326 1240.72 168.963C1182.28 121.1 1120.02 84.0381 1055.65 58.7994C990.776 33.3144 924.951 20.4109 860.035 20.4109Z" fill="#979DBD"/>
<path d="M1021.57 1728.37C949.868 1728.37 877.563 1714.01 806.963 1685.68C737.215 1657.75 670.538 1616.9 608.786 1564.25C480.49 1454.9 381.79 1302.76 323.316 1124.39C287.255 1014.92 268.623 900.471 268.102 785.22C267.723 674.716 284.246 568.626 317.234 469.869C350.223 371.113 398.047 284.559 459.344 212.803C522.838 138.451 598.1 83.2366 682.929 48.7135C746.233 22.863 813.96 9.57361 882.338 9.58595C954.037 9.58595 1026.34 23.9485 1096.94 52.2567C1166.67 80.205 1233.37 121.057 1295.12 173.713C1423.4 283.062 1522.11 435.195 1580.57 613.571C1616.65 723.032 1635.28 837.486 1635.8 952.739C1636.18 1063.22 1619.64 1169.33 1586.65 1268.09C1553.66 1366.85 1505.84 1453.38 1444.54 1525.16C1381.05 1599.51 1305.79 1654.72 1220.86 1689.25C1157.59 1715.08 1089.91 1728.37 1021.57 1728.37ZM882.432 14.9484C814.74 14.956 747.695 28.1293 685.033 53.7347C600.904 87.841 526.325 142.657 463.342 216.346C402.5 287.59 355.016 373.481 322.236 471.651C289.457 569.82 272.972 675.379 273.37 785.296C273.895 899.98 292.437 1013.87 328.319 1122.8C386.489 1300.26 484.639 1451.54 612.178 1560.25C673.512 1612.53 739.678 1653.09 808.876 1680.79C878.984 1708.88 950.474 1723.11 1021.51 1723.11C1089.19 1723.12 1156.23 1709.96 1218.89 1684.38C1303.02 1650.16 1377.6 1595.45 1440.58 1521.75C1501.4 1450.5 1548.89 1364.61 1581.67 1266.46C1614.45 1168.31 1630.93 1062.73 1630.55 952.815C1630.04 838.136 1611.5 724.251 1575.6 615.333C1517.45 437.847 1419.3 286.567 1291.76 177.863C1230.43 125.585 1164.25 85.0178 1095.07 57.297C1025 29.1024 953.449 14.9484 882.432 14.9484Z" fill="#979DBD"/>
<path d="M1000.9 1732.53C922.223 1732.53 843.627 1716.74 767.172 1685.57C692.081 1654.95 621.121 1610.35 556.3 1552.94C490.854 1495.03 433.499 1425.74 385.769 1346.99C335.702 1263.81 297.783 1173.89 273.161 1079.98C243.353 968.507 232.175 852.875 240.078 737.759C247.79 627.501 272.953 522.794 314.847 426.558C356.741 330.321 413.376 247.329 482.953 180.007C555.069 110.26 638.137 60.4456 729.845 31.9289C785.93 14.4423 844.337 5.53727 903.086 5.51562C981.776 5.51563 1060.35 21.318 1136.83 52.4685C1211.92 83.0883 1282.86 127.711 1347.7 185.104C1413.13 243.009 1470.5 312.302 1518.23 391.049C1568.3 474.233 1606.23 564.147 1630.86 658.064C1660.67 769.533 1671.86 885.165 1663.96 1000.28C1656.23 1110.56 1631.07 1215.27 1589.17 1311.5C1547.28 1407.74 1490.64 1490.73 1421.07 1558.05C1348.95 1627.78 1265.88 1677.61 1174.17 1706.13C1118.07 1723.61 1059.65 1732.5 1000.9 1732.53ZM903.086 10.9914C844.882 11.0149 787.018 19.8436 731.455 37.1776C640.505 65.4289 558.252 114.864 486.743 183.948C417.639 250.759 361.478 333.126 319.849 428.756C278.221 524.386 253.19 628.524 245.517 738.176C237.665 852.694 248.792 967.723 278.448 1078.61C302.956 1171.99 340.678 1261.39 390.468 1344.09C437.838 1422.37 494.89 1491.22 559.92 1548.73C624.343 1605.69 694.715 1649.99 769.237 1680.36C845.029 1711.25 922.924 1726.92 1000.9 1726.92C1059.1 1726.89 1116.96 1718.07 1172.53 1700.75C1263.38 1672.5 1345.73 1623.06 1417.24 1553.98C1486.34 1487.15 1542.5 1404.78 1584.13 1309.17C1625.76 1213.56 1650.79 1109.4 1658.46 999.752C1666.31 885.271 1655.19 770.28 1625.53 659.428C1601.03 566.013 1563.31 476.578 1513.51 393.835C1466.14 315.561 1409.09 246.704 1344.08 189.197C1279.66 132.239 1209.28 87.9391 1134.76 57.5466C1058.99 26.6236 981.057 10.9537 903.086 10.9537V10.9914Z" fill="#979DBD"/>
<path d="M982.648 1735.29C811.188 1735.29 640.751 1665.62 502.697 1539.12C434.067 1476.25 375.367 1401.47 328.186 1316.86C278.86 1227.94 243.639 1131.9 223.783 1032.17C200.657 919.001 197.393 802.669 214.138 688.38C230.339 578.899 264.445 476.163 315.529 383.091C366.613 290.019 432.097 211.157 510.143 148.856C590.994 84.3197 681.849 40.4174 780.208 18.3809C826.538 7.99085 873.871 2.73581 921.352 2.71094C1092.79 2.71094 1263.25 72.3636 1401.3 198.879C1471.01 263.129 1529.93 338.174 1575.79 421.138C1625.13 510.065 1660.36 606.113 1680.22 705.85C1703.35 819.015 1706.6 935.341 1689.84 1049.62C1673.64 1159.1 1639.54 1261.84 1588.47 1354.91C1537.41 1447.98 1471.9 1526.85 1393.84 1589.15C1312.99 1653.68 1222.11 1697.57 1123.75 1719.62C1077.44 1730.01 1030.12 1735.27 982.648 1735.29ZM921.352 8.26279C874.284 8.28742 827.363 13.5043 781.44 23.819C683.915 45.6659 593.855 89.1894 513.648 153.196C436.17 215.023 371.16 293.278 320.379 385.744C269.599 478.21 235.739 580.339 219.633 689.176C202.964 802.815 206.208 918.489 229.221 1031.02C248.961 1130.18 283.977 1225.68 333.018 1314.1C378.614 1396.53 437.158 1471.1 506.41 1534.96C643.499 1660.52 812.666 1729.68 982.648 1729.68C1029.71 1729.65 1076.62 1724.44 1122.54 1714.15C1220.05 1692.28 1310.13 1648.76 1390.33 1584.77C1467.81 1522.92 1532.82 1444.69 1583.6 1352.22C1634.38 1259.76 1668.26 1157.63 1684.37 1048.79C1701.02 935.148 1697.77 819.478 1674.78 706.949C1655.03 607.784 1620.01 512.286 1570.96 423.867C1525.38 341.429 1466.83 266.858 1397.57 203.01C1260.5 77.4607 1091.39 8.26279 921.352 8.26279Z" fill="#979DBD"/>
<path d="M967.679 1736.96C778.56 1736.96 594.064 1660.92 448.165 1522.85C301.072 1383.65 204.21 1191.26 175.314 980.935C159.353 866.404 164.49 749.919 190.473 637.238C215.541 529.121 258.894 429.019 319.319 339.756C379.744 250.492 454.342 176.368 540.877 119.675C658.221 42.3433 795.654 1.09296 936.188 1.02344C1125.31 1.02344 1309.8 77.0426 1455.7 215.135C1602.8 354.327 1699.66 546.724 1728.55 757.046C1744.52 871.57 1739.39 988.051 1713.39 1100.72C1688.35 1208.73 1644.97 1308.92 1584.55 1398.21C1524.12 1487.49 1449.51 1561.59 1362.97 1618.31C1245.61 1695.61 1108.19 1736.86 967.66 1736.96H967.679ZM936.301 6.78345C796.867 6.8447 660.508 47.7658 544.079 124.488C458.188 180.782 384.178 254.301 324.132 343.015C264.085 431.729 220.979 531.187 196.081 638.603C170.257 750.595 165.165 866.369 181.056 980.196C209.667 1189.15 305.923 1380.4 452.011 1518.68C596.83 1655.71 779.924 1731.18 967.566 1731.18C1107 1731.12 1243.36 1690.2 1359.79 1613.47C1445.68 1557.2 1519.69 1483.68 1579.74 1394.97C1639.78 1306.25 1682.89 1206.78 1707.8 1099.38C1733.61 987.384 1738.7 871.613 1722.83 757.785C1694.2 548.827 1597.94 357.586 1451.88 219.285C1307.04 82.2531 1123.94 6.78345 936.301 6.78345Z" fill="#979DBD"/>
<path d="M957.049 1737.74C747.845 1737.74 547.546 1654.84 393.026 1504.28C237.842 1353.09 143.86 1147.92 128.38 926.594C120.026 811.052 133.986 694.982 169.497 584.716C203.191 479.659 256.562 381.97 326.765 296.859C395.438 213.091 479.994 143.725 575.57 92.7515C673.293 40.6293 780.937 9.76983 891.432 2.19948C909.888 0.911022 928.57 0.304688 946.988 0.304688C1156.19 0.304688 1356.51 83.2208 1511.01 233.762C1666.2 384.948 1760.2 590.116 1775.66 811.485C1784.02 927.021 1770.06 1043.09 1734.54 1153.34C1700.85 1258.4 1647.48 1356.09 1577.27 1441.2C1508.6 1524.96 1424.04 1594.32 1328.47 1645.29C1230.74 1697.41 1123.09 1728.28 1012.59 1735.86C994.149 1737.09 975.467 1737.74 957.049 1737.74ZM946.931 6.14057C928.647 6.14057 910.096 6.80375 891.793 8.03536C782.12 15.5641 675.28 46.1969 578.28 97.9243C483.381 148.564 399.43 217.466 331.256 300.667C261.555 385.207 208.569 482.233 175.125 586.573C139.862 696.108 126.011 811.406 134.33 926.177C149.696 1145.97 243.053 1349.89 397.194 1500.05C550.673 1649.53 749.456 1731.84 957.106 1731.84C975.372 1731.84 993.922 1731.2 1012.23 1729.95C1121.91 1722.44 1228.76 1691.8 1325.76 1640.06C1420.65 1589.45 1504.6 1520.59 1572.78 1437.43C1642.49 1352.88 1695.48 1255.85 1728.93 1151.51C1764.2 1041.96 1778.07 926.65 1769.78 811.864C1754.4 592.068 1661.04 388.15 1506.9 237.969C1353.44 88.4693 1154.58 6.14057 946.931 6.14057Z" fill="#979DBD"/>
<path d="M951.992 1737.98C737.235 1737.66 530.254 1657.58 371.197 1513.29C212.141 1368.99 112.348 1170.76 91.177 957.05C70.0059 743.34 128.966 529.383 256.619 356.684C384.272 183.986 571.52 64.8552 782.038 22.4025C992.557 -20.0503 1211.34 17.2008 1395.95 126.93C1580.55 236.659 1717.83 411.044 1781.13 616.257C1844.44 821.47 1829.27 1042.88 1738.57 1237.54C1647.87 1432.21 1488.1 1586.24 1290.25 1669.77C1183.24 1715.03 1068.19 1738.23 951.992 1737.98ZM951.992 6.04483C738.749 6.32076 533.21 85.789 375.243 229.034C217.277 372.279 118.145 569.09 97.077 781.289C76.0085 993.489 134.506 1205.95 261.221 1377.46C387.936 1548.97 573.837 1667.3 782.862 1709.5C991.887 1751.7 1209.14 1714.77 1392.47 1605.85C1575.8 1496.94 1712.14 1323.82 1775.05 1120.06C1837.96 916.313 1822.96 696.458 1732.94 503.146C1642.92 309.835 1484.31 156.847 1287.88 73.8596C1181.62 28.8928 1067.38 5.82765 951.992 6.04483Z" fill="#979DBD"/>
</g>
</svg>
