<svg width="1680" height="836" viewBox="0 0 1680 836" fill="none" xmlns="http://www.w3.org/2000/svg">
<g opacity="0.08" clip-path="url(#clip0_0_4632)">
<path d="M-117.673 -424.547C97.6233 -216.794 543.529 -234.037 644.604 -147.399C835.1 16.0816 693.482 236.453 949.775 464.656C1216.14 701.899 1887.23 624.605 2132.19 675.523C2245.82 699.085 2352.86 743.999 2438.48 808.477" stroke="#979DBD" stroke-width="3" stroke-miterlimit="10"/>
<path d="M-125.217 -404.715C78.8728 -204.613 497.687 -213.555 598.047 -127.695C782.056 29.8291 660.795 236.457 898.52 453.349C985.185 532.381 1086.09 588.615 1223.59 631.369C1343.72 668.726 1475.51 667.187 1599.85 678.439C1701.91 687.738 1781.44 704.242 1866.62 717.633C1950.02 730.755 2027.47 738.377 2087.01 752.127C2168.76 770.654 2248.59 796.809 2325.46 830.25C2355.51 843.479 2384.78 858.444 2413.1 875.068" stroke="#979DBD" stroke-width="3" stroke-miterlimit="10"/>
<path d="M-132.745 -384.927C60.1661 -192.415 451.955 -192.829 551.517 -107.93C728.865 43.8245 627.688 237.16 847.281 441.997C938.369 526.958 1019.43 596.524 1159.5 655.272C1285.12 708.117 1423.71 694.554 1552.27 711.203C1660.52 725.235 1726.16 755.516 1815.11 779.596C1895.5 801.327 1976.5 812.374 2041.8 828.924C2129.14 851.126 2216.72 876.809 2293.97 904.632C2326.77 916.301 2358.17 928.749 2387.68 942.001" stroke="#979DBD" stroke-width="3" stroke-miterlimit="10"/>
<path d="M-140.29 -365.096C41.4754 -180.262 406.262 -172.341 504.959 -88.2265C675.786 57.6598 593.816 238.28 796.026 430.689C891.537 521.58 952.762 604.838 1095.36 679.159C1226.6 747.543 1371.92 722.025 1504.72 743.879C1619 762.681 1670.64 805.986 1763.65 841.471C1840.91 870.864 1925.59 886.344 1996.61 905.677C2087.8 930.255 2180.76 955.506 2262.39 978.471C2297.22 988.132 2330.78 998.217 2362.29 1008.49" stroke="#979DBD" stroke-width="3" stroke-miterlimit="10"/>
<path d="M-147.835 -345.263C22.5919 -168.131 360.481 -151.886 458.4 -68.5228C622.606 71.76 559.743 239.93 744.832 419.354C844.6 516.213 885.997 613.416 1031.27 703.062C1167.9 787.349 1320.14 749.602 1457.17 776.555C1577.82 800.307 1615.07 855.737 1712.18 903.346C1786.34 939.699 1874.7 960.12 1951.4 982.369C2046.25 1009.81 2144.73 1034.38 2231.17 1052.7C2268.03 1060.35 2303.43 1067.85 2337 1075.22" stroke="#979DBD" stroke-width="3" stroke-miterlimit="10"/>
<path d="M-155.379 -325.432C4.06239 -155.866 314.922 -131.348 411.938 -48.935C569.467 85.6226 525.326 241.954 693.539 407.879C797.785 510.79 819.068 622.033 966.913 726.715C1108.93 827.159 1268.15 777.051 1409.38 809.087C1536.23 837.825 1559.49 904.62 1660.39 965.252C1731.68 1007.95 1823.44 1034.1 1905.9 1059.15C2002.02 1088.59 2100.11 1111.21 2199.42 1126.83C2238.25 1132.5 2275.67 1137.48 2311.32 1141.94" stroke="#979DBD" stroke-width="3" stroke-miterlimit="10"/>
<path d="M-162.922 -305.599C-14.6877 -143.684 269.275 -110.842 365.331 -29.0978C516.288 99.7238 490.614 244.221 642.323 396.738C750.864 505.783 752.058 631.125 903.034 750.853C1050.22 867.519 1216.41 804.944 1362.02 841.936C1495.16 875.695 1504.82 953.242 1609.27 1027.01C1677.97 1075.59 1772.88 1107.81 1861.03 1135.73C1963.49 1168.18 2072.78 1191.86 2168.35 1200.81C2209.19 1204.52 2248.61 1207.03 2286.29 1208.52" stroke="#979DBD" stroke-width="3" stroke-miterlimit="10"/>
<path d="M-170.467 -285.767C-33.378 -131.53 223.626 -90.3372 318.773 -9.39382C463.098 113.719 455.635 246.79 591.084 385.386C704.03 500.809 684.915 640.166 838.896 774.739C991.191 907.761 1164.67 832.942 1314.43 874.744C1453.72 913.58 1450.3 1001.32 1557.72 1089.1C1624.1 1143.38 1721.88 1181.89 1815.81 1212.57C1922.04 1247.47 2036.56 1270.71 2136.88 1275C2179.71 1276.68 2221.18 1276.73 2260.89 1275.3" stroke="#979DBD" stroke-width="3" stroke-miterlimit="10"/>
<path d="M-177.995 -265.978C-52.0843 -119.331 177.951 -69.893 272.259 10.3272C409.792 127.62 420.422 249.574 539.829 374.078C656.615 495.765 617.65 649.263 774.819 798.599C931.988 947.935 1112.88 860.668 1266.93 907.288C1412.36 951.288 1396.42 1048.78 1506.3 1150.85C1570.61 1210.7 1671.08 1255.45 1770.64 1289.28C1880.69 1326.64 2000.7 1349.55 2105.44 1349.15C2150.29 1348.82 2193.65 1346.43 2235.51 1342" stroke="#979DBD" stroke-width="3" stroke-miterlimit="10"/>
<path d="M-185.541 -246.147C-70.7926 -107.134 132.301 -49.3888 225.506 30.0071C356.6 141.615 384.875 252.433 488.562 362.665C609.159 490.959 550.252 658.308 710.653 822.424C872.745 988.347 1060.91 888.476 1219.24 940.063C1370.79 989.27 1342.9 1096.22 1454.51 1212.75C1517.07 1278.01 1619.87 1329.25 1725.02 1366.22C1838.91 1406.01 1964.41 1428.57 2073.63 1423.45C2119.25 1421.25 2164.7 1416.4 2209.76 1408.9" stroke="#979DBD" stroke-width="3" stroke-miterlimit="10"/>
<path d="M-193.085 -226.314C-89.5427 -94.9523 86.6542 -28.8832 179.126 49.7789C303.649 155.651 349.445 255.792 437.379 351.435C561.554 486.551 482.893 667.52 646.587 846.389C813.486 1028.8 1009.12 916.501 1171.84 972.64C1329.5 1027.06 1290.09 1143.27 1403.36 1274.6C1464.34 1345.32 1569.32 1402.96 1680.23 1442.72C1797.91 1484.91 1929 1507.02 2042.58 1497.35C2090.39 1493.25 2137.87 1485.98 2184.7 1475.57" stroke="#979DBD" stroke-width="3" stroke-miterlimit="10"/>
<path d="M-200.629 -206.482C-108.233 -82.7985 40.961 -8.395 132.612 69.4996C250.519 169.619 313.51 259.009 386.141 340.083C513.427 482.45 415.417 676.637 582.492 870.293C754.093 1069.21 957.186 944.476 1124.29 1005.32C1288.05 1064.98 1237.62 1190.36 1351.89 1336.47C1411.49 1412.69 1518.47 1476.64 1635.02 1519.41C1756.58 1564.04 1892.76 1585.92 2011.14 1571.49C2061.23 1565.28 2110.8 1555.41 2159.45 1541.95" stroke="#979DBD" stroke-width="3" stroke-miterlimit="10"/>
<path d="M-208.174 -186.65C-126.94 -70.6005 -4.68742 12.1102 86.0541 89.2037C197.329 183.614 277.746 262.443 334.885 328.776C464.426 479.18 347.836 685.764 518.388 894.091C694.497 1109.49 905.188 972.628 1076.76 1037.95C1246.45 1103.16 1185.56 1237.29 1300.46 1398.26C1358.84 1480.08 1467.74 1550.13 1589.86 1596.08C1715.28 1642.93 1856.79 1664.66 1979.7 1645.48C2032.04 1637.31 2083.66 1625.01 2134.06 1608.69" stroke="#979DBD" stroke-width="3" stroke-miterlimit="10"/>
<path d="M2108.65 1675.48C2056.51 1694.66 2002.85 1709.44 1948.24 1719.67C1694.66 1767.1 1364.16 1636.06 1248.95 1460.22C1133.75 1284.37 1205.05 1140.96 1029.18 1070.71C853.308 1000.47 635.098 1150.04 454.259 918.083C280.171 695.113 413.776 477.052 283.713 317.247C205.62 221.403 -64.0039 67.6116 -215.635 -167.039" stroke="#979DBD" stroke-width="3" stroke-miterlimit="10"/>
</g>
<defs>
<clipPath id="clip0_0_4632">
<rect width="2836.38" height="1403.08" fill="white" transform="matrix(-0.934651 -0.355566 -0.355566 0.934651 2538.91 557.519)"/>
</clipPath>
</defs>
</svg>
