<svg width="120" height="120" viewBox="0 0 120 120" fill="none" xmlns="http://www.w3.org/2000/svg">
<path d="M53.17 51.6825H33.925C32.932 51.6825 32.125 50.8755 32.125 49.8825C32.125 48.8895 32.932 48.0825 33.925 48.0825H53.17C54.163 48.0825 54.97 48.8895 54.97 49.8825C54.97 50.8755 54.163 51.6825 53.17 51.6825Z" fill="#7DE140"/>
<path d="M58.021 66.5236H53.134C52.141 66.5236 51.334 65.7166 51.334 64.7236C51.334 63.7306 52.141 62.9236 53.134 62.9236H58.021C58.597 62.9236 59.125 62.6086 59.398 62.1016C59.869 61.2256 60.961 60.8986 61.837 61.3696C62.713 61.8406 63.04 62.9326 62.569 63.8086C61.666 65.4826 59.923 66.5236 58.021 66.5236Z" fill="#7DE140"/>
<path d="M39.9463 66.5235H35.0653C32.2183 66.5235 29.9053 64.2075 29.9053 61.3635V56.4825C29.9053 55.4895 30.7123 54.6825 31.7053 54.6825C32.6983 54.6825 33.5053 55.4895 33.5053 56.4825V61.3635C33.5053 62.2245 34.2043 62.9235 35.0653 62.9235H39.9463C40.9393 62.9235 41.7463 63.7305 41.7463 64.7235C41.7463 65.7165 40.9393 66.5235 39.9463 66.5235Z" fill="#7DE140"/>
<path d="M61.3809 45.0885C60.3879 45.0885 59.5809 44.2815 59.5809 43.2885V38.4045C59.5809 37.5435 58.8819 36.8445 58.0209 36.8445H53.1369C52.1439 36.8445 51.3369 36.0375 51.3369 35.0445C51.3369 34.0515 52.1439 33.2445 53.1369 33.2445H58.0209C60.8679 33.2445 63.1809 35.5605 63.1809 38.4045V43.2885C63.1809 44.2845 62.3739 45.0885 61.3809 45.0885Z" fill="#7DE140"/>
<path d="M31.7023 45.0885C30.7093 45.0885 29.9023 44.2815 29.9023 43.2885V38.4045C29.9023 35.5575 32.2183 33.2445 35.0623 33.2445H39.9433C40.9363 33.2445 41.7433 34.0515 41.7433 35.0445C41.7433 36.0375 40.9363 36.8445 39.9433 36.8445H35.0623C34.2013 36.8445 33.5023 37.5435 33.5023 38.4045V43.2885C33.5023 44.2845 32.6953 45.0885 31.7023 45.0885Z" fill="#7DE140"/>
<path d="M52.6812 18.6435C53.6772 18.6435 54.4812 17.8365 54.4812 16.8435C54.4812 15.8505 53.6742 15.0435 52.6812 15.0435H41.0832C40.0902 15.0435 39.2832 15.8505 39.2832 16.8435C39.2832 17.8365 40.0902 18.6435 41.0832 18.6435H52.6812Z" fill="#979DBD"/>
<path d="M97.4439 94.0305L92.1924 86.1853L89.0349 76.3725L84.3789 59.7765C83.7819 57.6465 82.3119 55.8255 80.3469 54.7815C80.2539 54.7305 80.1549 54.6855 80.0529 54.6495L71.5119 51.6724V15.6375C71.5119 10.8255 67.5969 6.91052 62.785 6.91052H30.9789C26.167 6.91052 22.252 10.8255 22.252 15.6375V82.2735C22.252 87.0855 26.167 91.0005 30.9789 91.0005H46.5308L62.6317 105.895L67.9149 113.792C68.1789 114.188 68.5929 114.464 69.0609 114.557C69.1779 114.578 69.2949 114.59 69.4119 114.59C69.766 114.59 70.1139 114.485 70.4139 114.287L96.9489 96.5265C97.7739 95.9745 97.9959 94.8555 97.4439 94.0305ZM80.9109 60.7545L85.5759 77.3805C85.5819 77.4045 85.5909 77.4255 85.5969 77.4465L88.4199 86.2185C84.5859 88.7805 71.884 97.2795 64.1859 102.428L51.8352 91.0035H62.7819C64.5872 91.0035 66.2662 90.4525 67.6596 89.5098C69.9821 87.9408 71.5119 85.2845 71.5119 82.2765V65.9595C71.5119 65.1915 71.023 64.5075 70.2969 64.2585L55.645 59.2155C53.2599 58.4085 51.973 55.8105 52.777 53.4225C53.3918 51.6051 55.0739 50.3724 56.9901 50.3177C57.0437 50.3266 57.0973 50.3326 57.1509 50.3385C58.0359 50.4315 58.3959 50.5035 58.5399 50.5455L69.0579 54.6345C69.0789 54.6405 69.0969 54.6495 69.1179 54.6555L78.727 58.0035C79.8069 58.6005 80.5809 59.5755 80.9109 60.7545ZM25.852 82.2765V15.6375C25.852 12.8115 28.1529 10.5105 30.9789 10.5105H62.785C65.6109 10.5105 67.9119 12.8115 67.9119 15.6375V50.3204L59.7999 47.1675C59.7759 47.1585 59.7519 47.1495 59.7279 47.1405C59.1249 46.9365 58.2819 46.8345 57.538 46.7535C57.5259 46.7535 57.5139 46.7505 57.502 46.7505C57.3789 46.7265 57.2529 46.7115 57.1239 46.7115C53.605 46.7115 50.488 48.9435 49.366 52.2675C49.0962 53.0684 48.9581 53.8825 48.9398 54.6863C48.8595 58.1653 51.0251 61.4505 54.4839 62.6205L67.9119 67.2435V82.2739C67.9118 85.0997 65.6108 87.4005 62.785 87.4005H47.2359C47.2227 87.4005 47.2099 87.4032 47.1967 87.4035H30.9789C28.1529 87.4035 25.852 85.1025 25.852 82.2765ZM69.9069 110.294L66.5019 105.207C73.9937 100.198 85.8893 92.2399 90.0511 89.4556L93.4509 94.5345L69.9069 110.294Z" fill="#979DBD"/>
</svg>
