<svg width="120" height="120" viewBox="0 0 120 120" fill="none" xmlns="http://www.w3.org/2000/svg">
<path d="M81.8707 96.96C80.8807 96.96 80.0707 96.15 80.0707 95.16L79.8907 70.26H69.8707C69.5107 70.26 69.1807 70.17 68.8807 69.96L49.9207 57.42C49.0807 56.88 48.8707 55.74 49.4107 54.93C49.9507 54.09 51.0907 53.88 51.9007 54.42L70.4107 66.66H81.6907C82.6807 66.66 83.4907 67.47 83.4907 68.46L83.7007 95.16C83.7007 96.15 82.8907 96.96 81.8707 96.96C81.9007 96.96 81.9007 96.96 81.8707 96.96Z" fill="#7DE140"/>
<path d="M81.6604 109.83C80.6704 109.83 79.8604 109.02 79.8604 108.03V95.1C79.8604 94.1101 80.6704 93.3 81.6604 93.3C82.6504 93.3 83.4604 94.1101 83.4604 95.1V108.03C83.4604 109.02 82.6503 109.83 81.6604 109.83Z" fill="#7DE140"/>
<path d="M67.1398 109.83C66.1498 109.83 65.3398 109.02 65.3398 108.03V95.1C65.3398 94.1101 66.1498 93.3 67.1398 93.3C68.1298 93.3 68.9398 94.1101 68.9398 95.1V108.03C68.9398 109.02 68.1298 109.83 67.1398 109.83Z" fill="#7DE140"/>
<path d="M38.1301 109.83C37.1401 109.83 36.3301 109.02 36.3301 108.03V95.1C36.3301 94.1101 37.1401 93.3 38.1301 93.3C39.1201 93.3 39.9301 94.1101 39.9301 95.1V108.03C39.9301 109.02 39.1201 109.83 38.1301 109.83Z" fill="#7DE140"/>
<path d="M52.6203 109.83C51.6303 109.83 50.8203 109.02 50.8203 108.03V95.1C50.8203 94.1101 51.6303 93.3 52.6203 93.3C53.6103 93.3 54.4203 94.1101 54.4203 95.1V108.03C54.4203 109.02 53.6403 109.83 52.6203 109.83Z" fill="#7DE140"/>
<path d="M81.6604 26.7C80.6704 26.7 79.8604 25.89 79.8604 24.9V11.97C79.8604 10.98 80.6704 10.17 81.6604 10.17C82.6504 10.17 83.4604 10.98 83.4604 11.97V24.9C83.4604 25.89 82.6503 26.7 81.6604 26.7Z" fill="#7DE140"/>
<path d="M67.1398 26.7C66.1498 26.7 65.3398 25.89 65.3398 24.9V11.97C65.3398 10.98 66.1498 10.17 67.1398 10.17C68.1298 10.17 68.9398 10.98 68.9398 11.97V24.9C68.9398 25.89 68.1298 26.7 67.1398 26.7Z" fill="#7DE140"/>
<path d="M38.1301 26.7C37.1401 26.7 36.3301 25.89 36.3301 24.9V11.97C36.3301 10.98 37.1401 10.17 38.1301 10.17C39.1201 10.17 39.9301 10.98 39.9301 11.97V24.9C39.9301 25.89 39.1201 26.7 38.1301 26.7Z" fill="#7DE140"/>
<path d="M52.6203 26.7C51.6303 26.7 50.8203 25.89 50.8203 24.9V11.97C50.8203 10.98 51.6303 10.17 52.6203 10.17C53.6103 10.17 54.4203 10.98 54.4203 11.97V24.9C54.4203 25.89 53.6403 26.7 52.6203 26.7Z" fill="#7DE140"/>
<path d="M108.3 83.5801H95.3703C94.3803 83.5801 93.5703 82.7701 93.5703 81.7801C93.5703 80.7901 94.3803 79.9801 95.3703 79.9801H108.3C109.29 79.9801 110.1 80.7901 110.1 81.7801C110.1 82.7701 109.29 83.5801 108.3 83.5801Z" fill="#7DE140"/>
<path d="M108.3 69.0601H95.3703C94.3803 69.0601 93.5703 68.2501 93.5703 67.2601C93.5703 66.2701 94.3803 65.4601 95.3703 65.4601H108.3C109.29 65.4601 110.1 66.2701 110.1 67.2601C110.1 68.2501 109.29 69.0601 108.3 69.0601Z" fill="#7DE140"/>
<path d="M108.3 40.02H95.3703C94.3803 40.02 93.5703 39.21 93.5703 38.22C93.5703 37.23 94.3803 36.42 95.3703 36.42H108.3C109.29 36.42 110.1 37.23 110.1 38.22C110.1 39.21 109.29 40.02 108.3 40.02Z" fill="#7DE140"/>
<path d="M108.3 54.5401H95.3703C94.3803 54.5401 93.5703 53.7301 93.5703 52.7401C93.5703 51.7501 94.3803 50.9401 95.3703 50.9401H108.3C109.29 50.9401 110.1 51.7501 110.1 52.7401C110.1 53.7301 109.29 54.5401 108.3 54.5401Z" fill="#7DE140"/>
<path d="M24.6304 83.5801H11.7004C10.7104 83.5801 9.90039 82.7701 9.90039 81.7801C9.90039 80.7901 10.7104 79.9801 11.7004 79.9801H24.6304C25.6204 79.9801 26.4304 80.7901 26.4304 81.7801C26.4304 82.7701 25.6204 83.5801 24.6304 83.5801Z" fill="#7DE140"/>
<path d="M24.6304 69.0601H11.7004C10.7104 69.0601 9.90039 68.2501 9.90039 67.2601C9.90039 66.2701 10.7104 65.4601 11.7004 65.4601H24.6304C25.6204 65.4601 26.4304 66.2701 26.4304 67.2601C26.4304 68.2501 25.6204 69.0601 24.6304 69.0601Z" fill="#7DE140"/>
<path d="M24.6304 40.02H11.7004C10.7104 40.02 9.90039 39.21 9.90039 38.22C9.90039 37.23 10.7104 36.42 11.7004 36.42H24.6304C25.6204 36.42 26.4304 37.23 26.4304 38.22C26.4304 39.21 25.6204 40.02 24.6304 40.02Z" fill="#7DE140"/>
<path d="M24.6304 54.5401H11.7004C10.7104 54.5401 9.90039 53.7301 9.90039 52.7401C9.90039 51.7501 10.7104 50.9401 11.7004 50.9401H24.6304C25.6204 50.9401 26.4304 51.7501 26.4304 52.7401C26.4304 53.7301 25.6204 54.5401 24.6304 54.5401Z" fill="#7DE140"/>
<path d="M88.0205 96.9001H31.7705C26.9405 96.9001 22.9805 92.9701 22.9805 88.1101V31.8601C22.9805 27.0301 26.9105 23.0701 31.7705 23.0701H88.0205C92.8505 23.0701 96.8105 27.0001 96.8105 31.8601V88.1101C96.8105 92.9701 92.8505 96.9001 88.0205 96.9001ZM31.7705 26.7001C28.9205 26.7001 26.5805 29.0101 26.5805 31.8901V88.1401C26.5805 90.9901 28.8905 93.3301 31.7705 93.3301H88.0205C90.8705 93.3301 93.2105 91.0201 93.2105 88.1401V31.8601C93.2105 29.0101 90.9005 26.6701 88.0205 26.6701H31.7705V26.7001Z" fill="#979DBD"/>
<path d="M60.4205 81.78C60.0905 81.78 59.7305 81.69 59.4305 81.48L40.9205 69.24H24.7805C23.7905 69.24 22.9805 68.43 22.9805 67.44C22.9805 66.45 23.7905 65.64 24.7805 65.64H41.4305C41.7905 65.64 42.1205 65.73 42.4205 65.94L61.3805 78.48C62.2205 79.02 62.4305 80.16 61.8905 80.97C61.5605 81.51 60.9905 81.78 60.4205 81.78Z" fill="#979DBD"/>
<path d="M47.8201 40.14H25.3801C24.3901 40.14 23.5801 39.33 23.5801 38.34C23.5801 37.35 24.3901 36.54 25.3801 36.54H47.8201C48.8101 36.54 49.6201 37.35 49.6201 38.34C49.6201 39.33 48.8101 40.14 47.8201 40.14Z" fill="#979DBD"/>
<path d="M94.41 54.6901H74.76C73.77 54.6901 72.96 53.8801 72.96 52.8901C72.96 51.9001 73.77 51.0901 74.76 51.0901H94.41C95.4 51.0901 96.21 51.9001 96.21 52.8901C96.21 53.8801 95.4 54.6901 94.41 54.6901Z" fill="#979DBD"/>
<path d="M74.76 54.63C73.77 54.63 72.96 53.82 72.96 52.83V38.34C72.96 37.35 73.77 36.54 74.76 36.54C75.75 36.54 76.56 37.35 76.56 38.34V52.83C76.56 53.82 75.78 54.63 74.76 54.63Z" fill="#979DBD"/>
<path d="M74.8504 41.64H74.7004C72.8704 41.64 71.4004 40.17 71.4004 38.34C71.4004 36.51 72.8704 35.04 74.7004 35.04H74.8204C76.6504 35.04 78.1204 36.51 78.1204 38.34C78.1204 40.17 76.6504 41.64 74.8504 41.64Z" fill="#979DBD"/>
<path d="M51.3009 58.89H51.1809C49.3509 58.89 47.8809 57.42 47.8809 55.59C47.8809 53.76 49.3509 52.29 51.1809 52.29H51.3009C53.1309 52.29 54.6009 53.76 54.6009 55.59C54.6009 57.42 53.1009 58.89 51.3009 58.89Z" fill="#7DE140"/>
<path d="M60.2706 83.2801H60.1506C58.3206 83.2801 56.8506 81.8101 56.8506 79.9801C56.8506 78.1501 58.3206 76.6801 60.1506 76.6801H60.2706C62.1006 76.6801 63.5706 78.1501 63.5706 79.9801C63.5706 81.8101 62.1006 83.2801 60.2706 83.2801Z" fill="#979DBD"/>
<path d="M47.9405 41.64H47.8205C45.9905 41.64 44.5205 40.17 44.5205 38.34C44.5205 36.51 45.9905 35.04 47.8205 35.04H47.9405C49.7705 35.04 51.2405 36.51 51.2405 38.34C51.2405 40.17 49.7705 41.64 47.9405 41.64Z" fill="#979DBD"/>
</svg>
