<svg width="120" height="120" viewBox="0 0 120 120" fill="none" xmlns="http://www.w3.org/2000/svg">
<path d="M72.3179 49.098C71.8649 49.098 71.4089 48.933 71.0519 48.597C68.0459 45.771 64.1189 44.217 59.9969 44.217C58.9769 44.217 58.1489 43.389 58.1489 42.369C58.1489 41.349 58.9769 40.521 59.9969 40.521C65.0639 40.521 69.8879 42.432 73.5809 45.903C74.3249 46.602 74.3609 47.772 73.6619 48.516C73.3019 48.903 72.8099 49.098 72.3179 49.098Z" fill="#7DE140"/>
<path d="M85.6829 70.5629C85.4938 70.5629 85.3019 70.5329 85.1128 70.4729C84.1409 70.1579 83.6099 69.1139 83.9249 68.1449C84.7378 65.6399 85.1519 63.0269 85.1519 60.3719C85.1519 46.5029 73.8688 35.2199 59.9999 35.2199C58.9799 35.2199 58.1519 34.3919 58.1519 33.3719C58.1519 32.3519 58.9799 31.5239 59.9999 31.5239C75.9059 31.5239 88.8479 44.4659 88.8479 60.3719C88.8479 63.4139 88.3739 66.4139 87.4409 69.2879C87.1889 70.0649 86.4629 70.5629 85.6829 70.5629Z" fill="#7DE140"/>
<path d="M59.9999 98.217C58.9799 98.217 58.1519 97.389 58.1519 96.369C58.1519 95.349 58.9799 94.521 59.9999 94.521C78.8309 94.521 94.1519 79.2 94.1519 60.369C94.1519 41.538 78.8309 26.217 59.9999 26.217C58.9799 26.217 58.1519 25.389 58.1519 24.369C58.1519 23.349 58.9799 22.521 59.9999 22.521C80.8679 22.521 97.8479 39.501 97.8479 60.369C97.8479 81.237 80.8679 98.217 59.9999 98.217Z" fill="#7DE140"/>
<path d="M59.9998 107.217C45.0748 107.217 30.9088 99.996 22.1038 87.903C21.5038 87.078 21.6838 85.923 22.5088 85.32C23.3338 84.72 24.4888 84.9 25.0918 85.725C33.2038 96.867 46.2538 103.518 59.9998 103.518C83.7928 103.518 103.152 84.159 103.152 60.366C103.152 36.573 83.7928 17.217 59.9998 17.217C58.9798 17.217 58.1518 16.389 58.1518 15.369C58.1518 14.349 58.9798 13.521 59.9998 13.521C85.8327 13.521 106.848 34.536 106.848 60.369C106.848 86.202 85.8327 107.217 59.9998 107.217Z" fill="#7DE140"/>
<path d="M59.9999 116.217C29.2049 116.217 4.15186 91.164 4.15186 60.369C4.15186 54.474 5.06686 48.669 6.87586 43.11C7.19086 42.141 8.23486 41.607 9.20386 41.925C10.1759 42.24 10.7069 43.284 10.3889 44.253C8.70286 49.443 7.84786 54.864 7.84786 60.369C7.84786 89.127 31.2419 112.521 59.9999 112.521C88.7579 112.521 112.152 89.127 112.152 60.369C112.152 31.611 88.7579 8.217 59.9999 8.217C58.9799 8.217 58.1519 7.389 58.1519 6.369C58.1519 5.349 58.9799 4.521 59.9999 4.521C90.7949 4.521 115.848 29.574 115.848 60.369C115.848 91.164 90.7949 116.217 59.9999 116.217Z" fill="#7DE140"/>
<path d="M52.3141 30.8579C53.6401 30.8579 54.7141 31.9319 54.7141 33.2579C54.7141 34.5839 53.6401 35.6579 52.3141 35.6579C50.9881 35.6579 49.9141 34.5839 49.9141 33.2579C49.9141 31.9319 50.9881 30.8579 52.3141 30.8579Z" fill="#979DBD"/>
<path d="M52.3141 21.8579C53.6401 21.8579 54.7141 22.9319 54.7141 24.2579C54.7141 25.5839 53.6401 26.6579 52.3141 26.6579C50.9881 26.6579 49.9141 25.5839 49.9141 24.2579C49.9141 22.9319 50.9881 21.8579 52.3141 21.8579Z" fill="#979DBD"/>
<path d="M52.3141 12.8579C53.6401 12.8579 54.7141 13.9319 54.7141 15.2579C54.7141 16.5839 53.6401 17.6579 52.3141 17.6579C50.9881 17.6579 49.9141 16.5839 49.9141 15.2579C49.9141 13.9319 50.9881 12.8579 52.3141 12.8579Z" fill="#979DBD"/>
<path d="M52.3141 3.78296C53.6401 3.78296 54.7141 4.85696 54.7141 6.18296C54.7141 7.50896 53.6401 8.58296 52.3141 8.58296C50.9881 8.58296 49.9141 7.50896 49.9141 6.18296C49.9141 4.85696 50.9881 3.78296 52.3141 3.78296Z" fill="#979DBD"/>
<path d="M52.3141 39.6329C53.6401 39.6329 54.7141 40.7069 54.7141 42.0329C54.7141 43.3589 53.6401 44.4329 52.3141 44.4329C50.9881 44.4329 49.9141 43.3589 49.9141 42.0329C49.9141 40.7069 50.9881 39.6329 52.3141 39.6329Z" fill="#979DBD"/>
</svg>
